<?xml version="1.0" standalone="no"?>
<!DOCTYPE svg PUBLIC "-//W3C//DTD SVG 1.1//EN" "http://www.w3.org/Graphics/SVG/1.1/DTD/svg11.dtd" >
<svg xmlns="http://www.w3.org/2000/svg" xmlns:xlink="http://www.w3.org/1999/xlink" version="1.1">
<metadata>
Created by FontForge 20150824 at Sat Jun  4 13:20:38 2016
 By Everything Fonts
Copyright (c) 2015 by www.fontiran.com (Moslem Ebrahimi). All rights reserved.
</metadata>
<defs>
<font id="mahboubehmehravar" horiz-adv-x="0" >
  <font-face 
    font-family="mahboubehmehravar"
    font-weight="400"
    font-stretch="normal"
    units-per-em="2048"
    panose-1="3 0 7 0 0 0 0 0 0 0"
    ascent="1638"
    descent="-410"
    x-height="820"
    cap-height="1240"
    bbox="-211 -1034 1989 1919.79"
    underline-thickness="60"
    underline-position="-900"
    unicode-range="U+0020-FEFC"
  />
<missing-glyph horiz-adv-x="1024" 
d="M128 1343h768v-1343h-768v1343zM768 128v1087h-512v-1087h512z" />
    <glyph glyph-name="uFC60" unicode="&#x651;&#x64e;" arabic-form="isolated" 
d="M499 1484q0 -57 -17 -112t-47.5 -92.5t-74.5 -49.5t-98 16q-23 -9 -48.5 -15t-49.5 -5.5t-45.5 9.5t-34.5 31q-5 7 -9 21t-7 30t-4 31t0 24q4 25 19 46t34 33q10 6 20.5 6.5t19.5 -3.5t15.5 -10t10.5 -13q4 -8 3 -19.5t-2.5 -22t-1 -19.5t6.5 -12q14 -6 21.5 0.5t11 19.5
t5 31t4 34.5t8 29.5t16.5 17q31 12 53 1.5t33 -27.5q6 -10 4.5 -24t-4 -28t-2.5 -25t8 -15q14 -7 20 2.5t8.5 25.5t4 34t7.5 30q9 19 22.5 31.5t28.5 16t30.5 -2.5t30.5 -25zM124 1564q-8 0 -14 10t-8 22.5t0 25.5t10 19q9 6 36 19t63 28.5t76 30t75 23.5t61 10.5t33 -9.5
q3 -4 4.5 -11.5t1.5 -15.5t-1.5 -16t-5.5 -12q-9 -11 -32 -24.5t-54 -27t-66 -26t-69 -22.5t-63 -16.5t-47 -7.5z" />
    <glyph glyph-name="uFC61" unicode="&#x651;&#x64f;" arabic-form="isolated" 
d="M483 1470q0 -57 -17 -112t-47.5 -92.5t-74.5 -49.5t-98 16q-23 -9 -48.5 -15t-49.5 -5.5t-45.5 9.5t-34.5 31q-5 7 -9 21t-7 30t-4 31t0 24q4 25 19 46t34 33q10 6 20.5 6.5t19.5 -3.5t15.5 -10t10.5 -13q4 -8 3 -19.5t-2.5 -22t-1 -19.5t6.5 -12q14 -6 21.5 0.5t11 19.5
t5 31t4 34.5t8 29.5t16.5 17q31 12 53 1.5t33 -27.5q6 -10 4.5 -24t-4 -28t-2.5 -25t8 -15q14 -7 20 2.5t8.5 25.5t4 34t7.5 30q9 19 22.5 31.5t28.5 16t30.5 -2.5t30.5 -25zM417 1604q6 -2 5.5 -11t-5.5 -18.5t-13 -16.5t-16 -6q-17 2 -32.5 8.5t-22.5 10.5
q-39 -27 -85.5 -40t-89 -14.5t-75.5 8t-44 27.5q-5 8 6.5 12.5t32 8.5t45.5 8t48 11t40 18t20 28q-22 20 -28 45.5t1 50.5t24.5 47t42 35t54.5 14.5t61 -13.5q29 -14 41 -37.5t10 -51.5t-16 -57t-36 -54q10 -7 15.5 -8t16.5 -5zM302 1662q22 -6 34.5 3t16.5 23q4 15 -1 32
t-26 22q-41 12 -54 -27q-8 -21 0.5 -34t29.5 -19z" />
    <glyph glyph-name="uE818" unicode="&#x651;&#x64b;" 
d="M514 1453q0 -57 -17 -112t-47.5 -92.5t-74.5 -49.5t-98 16q-23 -9 -48.5 -15t-49.5 -5.5t-45.5 9.5t-34.5 31q-5 7 -9 21t-7 30t-4 31t0 24q4 25 19 46t34 33q10 6 20.5 6.5t19.5 -3.5t15.5 -10t10.5 -13q4 -8 3 -19.5t-2.5 -22t-1 -19.5t6.5 -12q14 -6 21.5 0.5t11 19.5
t5 31t4 34.5t8 29.5t16.5 17q31 12 53 1.5t33 -27.5q6 -10 4.5 -24t-4 -28t-2.5 -25t8 -15q14 -7 20 2.5t8.5 25.5t4 34t7.5 30q9 19 22.5 31.5t28.5 16t30.5 -2.5t30.5 -25zM143 1676q-8 0 -14 10t-8 22.5t0 25.5t10 19q9 6 36 19t63 28.5t76 30t75 23.5t61 10.5t33 -9.5
q3 -4 4.5 -11.5t1.5 -15.5t-1.5 -16t-5.5 -12q-9 -11 -32 -24.5t-54 -27t-66 -26t-69 -22.5t-63 -16.5t-47 -7.5zM133 1500q-8 0 -14 10t-8 22.5t0 25.5t10 19q9 6 36 19t63 28.5t76 30t75 23.5t61 10.5t33 -9.5q3 -4 4.5 -11.5t1.5 -15.5t-1.5 -16t-5.5 -12
q-9 -11 -32 -24.5t-54 -27t-66 -26t-69 -22.5t-63 -16.5t-47 -7.5z" />
    <glyph glyph-name="uFC5E" unicode="&#x651;&#x64c;" arabic-form="isolated" 
d="M485 1529q0 -57 -17 -112t-47.5 -92.5t-74.5 -49.5t-98 16q-23 -9 -48.5 -15t-49.5 -5.5t-45.5 9.5t-34.5 31q-5 7 -9 21t-7 30t-4 31t0 24q4 25 19 46t34 33q10 6 20.5 6.5t19.5 -3.5t15.5 -10t10.5 -13q4 -8 3 -19.5t-2.5 -22t-1 -19.5t6.5 -12q14 -6 21.5 0.5t11 19.5
t5 31t4 34.5t8 29.5t16.5 17q31 12 53 1.5t33 -27.5q6 -10 4.5 -24t-4 -28t-2.5 -25t8 -15q14 -7 20 2.5t8.5 25.5t4 34t7.5 30q9 19 22.5 31.5t28.5 16t30.5 -2.5t30.5 -25zM440 1707q6 -2 5 -9.5t-5.5 -16t-12 -15.5t-14.5 -7q-16 3 -30.5 9t-20.5 10q-36 -25 -79 -37.5
t-82.5 -14t-70 7t-40.5 25.5q-5 8 11 13t37 8q19 13 23 30.5t-3.5 29.5t-23 12.5t-35.5 -20.5q-9 10 -16.5 19t-16.5 21q3 6 12.5 14.5t29.5 16.5q23 9 46.5 4t38.5 -20t17 -40t-17 -57q30 2 51 15t24 33q-21 19 -26.5 42.5t0.5 46.5t22.5 43.5t39.5 32.5t50.5 13.5
t56.5 -12.5q27 -13 38 -34.5t9.5 -47t-14.5 -52.5t-34 -50q9 -6 14 -7t16 -6zM380 1786q4 14 -0.5 29t-23.5 20q-38 12 -50 -25q-16 -37 27 -48q20 -6 32 2t15 22z" />
    <glyph glyph-name="uFC62" unicode="&#x651;&#x650;" arabic-form="isolated" 
d="M499 1695q0 -57 -17 -112t-47.5 -92.5t-74.5 -49.5t-98 16q-23 -9 -48.5 -15t-49.5 -5.5t-45.5 9.5t-34.5 31q-5 7 -9 21t-7 30t-4 31t0 24q4 25 19 46t34 33q10 6 20.5 6.5t19.5 -3.5t15.5 -10t10.5 -13q4 -8 3 -19.5t-2.5 -22t-1 -19.5t6.5 -12q14 -6 21.5 0.5t11 19.5
t5 31t4 34.5t8 29.5t16.5 17q31 12 53 1.5t33 -27.5q6 -10 4.5 -24t-4 -28t-2.5 -25t8 -15q14 -7 20 2.5t8.5 25.5t4 34t7.5 30q9 19 22.5 31.5t28.5 16t30.5 -2.5t30.5 -25zM102 1207q-8 0 -14 10t-8 22.5t0 25.5t10 19q9 6 36 19t63 28.5t76 30t75 23.5t61 10.5t33 -9.5
q3 -4 4.5 -11.5t1.5 -15.5t-1.5 -16t-5.5 -12q-9 -11 -32 -24.5t-54 -27t-66 -26t-69 -22.5t-63 -16.5t-47 -7.5z" />
    <glyph glyph-name="uFC5F" unicode="&#x651;&#x64d;" arabic-form="isolated" 
d="M499 1891q0 -57 -17 -112t-47.5 -92.5t-74.5 -49.5t-98 16q-23 -9 -48.5 -15t-49.5 -5.5t-45.5 9.5t-34.5 31q-5 7 -9 21t-7 30t-4 31t0 24q4 25 19 46t34 33q10 6 20.5 6.5t19.5 -3.5t15.5 -10t10.5 -13q4 -8 3 -19.5t-2.5 -22t-1 -19.5t6.5 -12q14 -6 21.5 0.5t11 19.5
t5 31t4 34.5t8 29.5t16.5 17q31 12 53 1.5t33 -27.5q6 -10 4.5 -24t-4 -28t-2.5 -25t8 -15q14 -7 20 2.5t8.5 25.5t4 34t7.5 30q9 19 22.5 31.5t28.5 16t30.5 -2.5t30.5 -25zM102 1388q-8 0 -14 10t-8 22.5t0 25.5t10 19q9 6 36 19t63 28.5t76 30t75 23.5t61 10.5t33 -9.5
q3 -4 4.5 -11.5t1.5 -15.5t-1.5 -16t-5.5 -12q-9 -11 -32 -24.5t-54 -27t-66 -26t-69 -22.5t-63 -16.5t-47 -7.5zM99 1224q-8 0 -14 10t-8 22.5t0 25.5t10 19q9 6 36 19t63 28.5t76 30t75 23.5t61 10.5t33 -9.5q3 -4 4.5 -11.5t1.5 -15.5t-1.5 -16t-5.5 -12
q-9 -11 -32 -24.5t-54 -27t-66 -26t-69 -22.5t-63 -16.5t-47 -7.5z" />
    <glyph glyph-name="uFEF5" unicode="&#xfedf;&#xfe82;" horiz-adv-x="842" arabic-form="isolated" 
d="M-21 1186q-17 78 11.5 118t97.5 48q22 2 44.5 0t43.5 -5t39 -5t30 0q41 4 70 15.5t49 22.5t32 17t20 0q19 -18 19 -37t-12.5 -37.5t-36 -36t-51.5 -31t-58 -23.5t-56 -14q-17 -3 -36.5 -0.5t-37.5 5t-34 2.5t-26 -7q-6 -4 -14 -14t-17.5 -20.5t-19.5 -19t-20 -11
t-19.5 4.5t-17.5 28zM808 1167q16 -19 20.5 -56t1.5 -83t-10.5 -95t-16.5 -92t-17 -74.5t-11 -41.5q-9 -34 -23.5 -66.5t-31 -62.5t-33.5 -57.5t-31 -51.5q9 -27 18 -57t16 -59.5t10 -58t0 -52.5q-8 -54 -32 -101.5t-58.5 -85t-75.5 -62t-83 -32.5q-20 -4 -41.5 -5.5
t-44 1.5t-47 11.5t-51.5 24.5q-28 17 -52 49t-37 73t-11.5 88t24.5 93q7 13 20 37t35 52.5t53.5 59t75.5 56.5q-7 16 -35 46t-66 64.5t-80.5 71.5t-79 67.5t-60.5 51t-26 24.5q-15 23 -18 61.5t9 74.5t40.5 60.5t76.5 19.5q27 -2 62.5 -31.5t73.5 -72t75.5 -92t68.5 -93.5
t52 -75t26 -37q17 9 30 32.5t23 54t17.5 65t12.5 65t8.5 54t5.5 32.5q7 38 11 78.5t11.5 76t22 61t42.5 33.5q45 12 77.5 -3.5t52.5 -40.5zM397 227q10 -12 24.5 -12t29 7.5t27.5 20.5t20.5 27.5t7.5 29t-12 24.5q-16 14 -38 6.5t-39.5 -25.5t-25.5 -40.5t6 -37.5z" />
    <glyph glyph-name="uFEF6" unicode="&#xfee0;&#xfe82;" horiz-adv-x="916" arabic-form="final" 
d="M427 346q-6 14 -31 53.5t-61 93.5t-78.5 116.5t-83 122t-75.5 110t-55 80.5q-21 30 -11.5 57t37.5 40.5t67.5 10t77.5 -33.5t77 -72t77 -91t73 -102.5t64 -106t50.5 -102t32.5 -90.5q7 -27 -6 -51.5t-37.5 -39.5t-56 -15.5t-61.5 20.5zM907 1118q8 -32 9 -82t-2 -109
t-9.5 -122.5t-14 -124.5t-15 -114t-12.5 -90q-6 -43 -12 -78t-8.5 -63t1 -48.5t16.5 -33.5q10 -8 19 -12.5t20.5 -6.5t28.5 -2.5t43 -0.5l1 -231q-100 0 -182.5 32.5t-142.5 86.5q-57 -30 -122.5 -63t-131.5 -59.5t-128.5 -42t-114.5 -10.5q-24 2 -36 22.5t-11.5 46t15 49
t43.5 30.5q77 18 153 54t139.5 82.5t109.5 99.5t63 105q13 40 17 94.5t3.5 115.5t-4 124t-5.5 121t-0.5 106.5t10.5 80.5q8 29 28 52.5t46.5 39t55.5 22t55.5 1.5t46.5 -22.5t28 -49.5zM-21 1186q-17 78 11.5 118t97.5 48q22 2 44.5 0t43.5 -5t39 -5t30 0q41 4 70 15.5
t49 22.5t32 17t20 0q19 -18 19 -37t-12.5 -37.5t-36 -36t-51.5 -31t-58 -23.5t-56 -14q-17 -3 -36.5 -0.5t-37.5 5t-34 2.5t-26 -7q-6 -4 -14 -14t-17.5 -20.5t-19.5 -19t-20 -11t-19.5 4.5t-17.5 28z" />
    <glyph glyph-name="uFEF7" unicode="&#xfedf;&#xfe84;" horiz-adv-x="838" arabic-form="isolated" 
d="M310 1516q6 -9 6.5 -21t-2.5 -22.5t-9.5 -18t-14.5 -7.5q-20 0 -44.5 -1t-43 -6t-26 -17t6.5 -34q8 -13 28 -10t43 11t45 15t35 1q9 -4 14 -12t7 -17t1.5 -17t-2.5 -13q-7 -20 -18 -30t-16 -11q-47 -8 -93.5 -22t-86.5 -27.5t-69.5 -24t-40.5 -11.5q-8 -1 -14.5 5
t-10 15.5t-3 22t6.5 24.5q3 7 14 14.5t23.5 14.5t25 13t18.5 10q-30 33 -37 60t4 62q9 27 39 49t68.5 32.5t78 5.5t67.5 -33zM808 1167q16 -19 20.5 -56t1.5 -83t-10.5 -95t-16.5 -92t-17 -74.5t-11 -41.5q-9 -34 -23.5 -66.5t-31 -62.5t-33.5 -57.5t-31 -51.5q9 -27 18 -57
t16 -59.5t10 -58t0 -52.5q-8 -54 -32 -101.5t-58.5 -85t-75.5 -62t-83 -32.5q-20 -4 -41.5 -5.5t-44 1.5t-47 11.5t-51.5 24.5q-28 17 -52 49t-37 73t-11.5 88t24.5 93q7 13 20 37t35 52.5t53.5 59t75.5 56.5q-7 16 -35 46t-66 64.5t-80.5 71.5t-79 67.5t-60.5 51t-26 24.5
q-15 23 -18 61.5t9 74.5t40.5 60.5t76.5 19.5q27 -2 62.5 -31.5t73.5 -72t75.5 -92t68.5 -93.5t52 -75t26 -37q17 9 30 32.5t23 54t17.5 65t12.5 65t8.5 54t5.5 32.5q7 38 11 78.5t11.5 76t22 61t42.5 33.5q45 12 77.5 -3.5t52.5 -40.5zM397 227q10 -12 24.5 -12t29 7.5
t27.5 20.5t20.5 27.5t7.5 29t-12 24.5q-16 14 -38 6.5t-39.5 -25.5t-25.5 -40.5t6 -37.5z" />
    <glyph glyph-name="uFEF8" unicode="&#xfee0;&#xfe84;" horiz-adv-x="916" arabic-form="final" 
d="M427 346q-6 14 -31 53.5t-61 93.5t-78.5 116.5t-83 122t-75.5 110t-55 80.5q-21 30 -11.5 57t37.5 40.5t67.5 10t77.5 -33.5t77 -72t77 -91t73 -102.5t64 -106t50.5 -102t32.5 -90.5q7 -27 -6 -51.5t-37.5 -39.5t-56 -15.5t-61.5 20.5zM907 1118q8 -32 9 -82t-2 -109
t-9.5 -122.5t-14 -124.5t-15 -114t-12.5 -90q-6 -43 -12 -78t-8.5 -63t1 -48.5t16.5 -33.5q8 -7 16.5 -11.5t21 -6.5t30 -3t43.5 -1l1 -231q-100 0 -182.5 32.5t-142.5 86.5q-57 -30 -122.5 -63t-131.5 -59.5t-128.5 -42t-114.5 -10.5q-24 2 -36 22.5t-11.5 46t15 49
t43.5 30.5q77 18 153 54t139.5 82.5t109.5 99.5t63 105q13 40 17 94.5t3.5 115.5t-4 124t-5.5 121t-0.5 106.5t10.5 80.5q8 29 28 52.5t46.5 39t55.5 22t55.5 1.5t46.5 -22.5t28 -49.5zM313 1522q6 -9 6.5 -21t-2.5 -22.5t-9.5 -18t-14.5 -7.5q-20 0 -44.5 -1t-43 -6
t-26 -17t6.5 -34q8 -13 28 -10t43 11t45 15t35 1q9 -4 14 -12t7 -17t1.5 -17t-2.5 -13q-7 -20 -18 -30t-16 -11q-47 -8 -93.5 -22t-86.5 -27.5t-69.5 -24t-40.5 -11.5q-8 -1 -14.5 5t-10 15.5t-3 22t6.5 24.5q3 7 14 14.5t23.5 14.5t25 13t18.5 10q-30 33 -37 60t4 62
q9 27 39 49t68.5 32.5t78 5.5t67.5 -33z" />
    <glyph glyph-name="uFEF9" unicode="&#xfedf;&#xfe88;" horiz-adv-x="838" arabic-form="isolated" 
d="M460 -216q6 -9 6.5 -21t-2.5 -22.5t-9.5 -18t-14.5 -7.5q-20 0 -44.5 -1t-43 -6t-26 -17t6.5 -34q8 -13 28 -10t43 11t45 15t35 1q9 -4 14 -12t7 -17t1.5 -17t-2.5 -13q-7 -20 -18 -30t-16 -11q-47 -8 -93.5 -22t-86.5 -27.5t-69.5 -24t-40.5 -11.5q-8 -1 -14.5 5
t-10 15.5t-3 22t6.5 24.5q3 7 14 14.5t23.5 14.5t25 13t18.5 10q-30 33 -37 60t4 62q9 27 39 49t68.5 32.5t78 5.5t67.5 -33zM808 1167q16 -19 20.5 -56t1.5 -83t-10.5 -95t-16.5 -92t-17 -74.5t-11 -41.5q-9 -34 -23.5 -66.5t-31 -62.5t-33.5 -57.5t-31 -51.5q9 -27 18 -57
t16 -59.5t10 -58t0 -52.5q-8 -54 -32 -101.5t-58.5 -85t-75.5 -62t-83 -32.5q-20 -4 -41.5 -5.5t-44 1.5t-47 11.5t-51.5 24.5q-28 17 -52 49t-37 73t-11.5 88t24.5 93q7 13 20 37t35 52.5t53.5 59t75.5 56.5q-7 16 -35 46t-66 64.5t-80.5 71.5t-79 67.5t-60.5 51t-26 24.5
q-15 23 -18 61.5t9 74.5t40.5 60.5t76.5 19.5q27 -2 62.5 -31.5t73.5 -72t75.5 -92t68.5 -93.5t52 -75t26 -37q17 9 30 32.5t23 54t17.5 65t12.5 65t8.5 54t5.5 32.5q7 38 11 78.5t11.5 76t22 61t42.5 33.5q45 12 77.5 -3.5t52.5 -40.5zM397 227q10 -12 24.5 -12t29 7.5
t27.5 20.5t20.5 27.5t7.5 29t-12 24.5q-16 14 -38 6.5t-39.5 -25.5t-25.5 -40.5t6 -37.5z" />
    <glyph glyph-name="uFEFA" unicode="&#xfee0;&#xfe88;" horiz-adv-x="912" arabic-form="final" 
d="M427 346q-6 14 -31 53.5t-61 93.5t-78.5 116.5t-83 122t-75.5 110t-55 80.5q-21 30 -11.5 57t37.5 40.5t67.5 10t77.5 -33.5t77 -72t77 -91t73 -102.5t64 -106t50.5 -102t32.5 -90.5q7 -27 -6 -51.5t-37.5 -39.5t-56 -15.5t-61.5 20.5zM907 1117q8 -32 9 -82t-2 -109
t-9.5 -122.5t-14 -124.5t-15 -114t-12.5 -90q-6 -43 -12 -78t-8.5 -63t1 -48.5t16.5 -33.5q11 -8 20 -12t20.5 -6t28 -2h42.5l1 -233q-100 0 -182.5 32.5t-142.5 86.5q-57 -30 -122.5 -63t-131.5 -59.5t-128.5 -42t-114.5 -10.5q-24 2 -36 22.5t-11.5 46t15 49t43.5 30.5
q77 18 153 54t139.5 82.5t109.5 99.5t63 105q13 40 17 94.5t3.5 115.5t-4 124t-5.5 121t-0.5 106.5t10.5 80.5q8 29 28 52.5t46.5 39t55.5 22t55.5 1.5t46.5 -22.5t28 -49.5zM439 -223q6 -9 6.5 -21t-2.5 -22.5t-9.5 -18t-14.5 -7.5q-20 0 -44.5 -1t-43 -6t-26 -17t6.5 -34
q8 -13 28 -10t43 11t45 15t35 1q9 -4 14 -12t7 -17t1.5 -17t-2.5 -13q-7 -20 -18 -30t-16 -11q-47 -8 -93.5 -22t-86.5 -27.5t-69.5 -24t-40.5 -11.5q-8 -1 -14.5 5t-10 15.5t-3 22t6.5 24.5q3 7 14 14.5t23.5 14.5t25 13t18.5 10q-30 33 -37 60t4 62q9 27 39 49t68.5 32.5
t78 5.5t67.5 -33z" />
    <glyph glyph-name="uFEFB" unicode="&#xfedf;&#xfe8e;" horiz-adv-x="838" arabic-form="isolated" 
d="M808 1167q16 -19 20.5 -56t1.5 -83t-10.5 -95t-16.5 -92t-17 -74.5t-11 -41.5q-9 -34 -23.5 -66.5t-31 -62.5t-33.5 -57.5t-31 -51.5q9 -27 18 -57t16 -59.5t10 -58t0 -52.5q-8 -54 -32 -101.5t-58.5 -85t-75.5 -62t-83 -32.5q-20 -4 -41.5 -5.5t-44 1.5t-47 11.5
t-51.5 24.5q-28 17 -52 49t-37 73t-11.5 88t24.5 93q7 13 20 37t35 52.5t53.5 59t75.5 56.5q-7 16 -35 46t-66 64.5t-80.5 71.5t-79 67.5t-60.5 51t-26 24.5q-15 23 -18 61.5t9 74.5t40.5 60.5t76.5 19.5q27 -2 62.5 -31.5t73.5 -72t75.5 -92t68.5 -93.5t52 -75t26 -37
q17 9 30 32.5t23 54t17.5 65t12.5 65t8.5 54t5.5 32.5q7 38 11 78.5t11.5 76t22 61t42.5 33.5q45 12 77.5 -3.5t52.5 -40.5zM397 227q10 -12 24.5 -12t29 7.5t27.5 20.5t20.5 27.5t7.5 29t-12 24.5q-16 14 -38 6.5t-39.5 -25.5t-25.5 -40.5t6 -37.5z" />
    <glyph glyph-name="uFEFC" unicode="&#xfee0;&#xfe8e;" horiz-adv-x="939" arabic-form="final" 
d="M907 1118q8 -32 9 -82t-2 -109t-9.5 -122.5t-14 -124.5t-15 -114t-12.5 -90q-6 -43 -12 -78t-8.5 -63t1 -48.5t16.5 -33.5q11 -8 20 -12.5t20.5 -6.5t28 -2.5t42.5 -0.5l1 -231q-72 0 -121 8.5t-84.5 24.5t-63 38t-56.5 48q-57 -30 -122.5 -63t-131.5 -59.5t-128.5 -42
t-114.5 -10.5q-24 2 -36 22.5t-11.5 46t15 49t43.5 30.5q77 18 153 54t139.5 82.5t109.5 99.5t63 105q13 40 17 94.5t3.5 115.5t-4 124t-5.5 121t-0.5 106.5t10.5 80.5q8 29 28 52.5t46.5 39t55.5 22t55.5 1.5t46.5 -22.5t28 -49.5zM427 346q-6 14 -31 53.5t-61 93.5
t-78.5 116.5t-83 122t-75.5 110t-55 80.5q-21 30 -11.5 57t37.5 40.5t67.5 10t77.5 -33.5t77 -72t77 -91t73 -102.5t64 -106t50.5 -102t32.5 -90.5q7 -27 -6 -51.5t-37.5 -39.5t-56 -15.5t-61.5 20.5z" />
    <glyph glyph-name="uFDF2" unicode="&#xfedf;&#xfee0;&#xfeea;" horiz-adv-x="1204" arabic-form="isolated" 
d="M870 1092q0 -36 -10.5 -71t-30 -58.5t-47.5 -31t-62 10.5q-15 -6 -31 -10t-31.5 -3.5t-29 6.5t-22.5 19q-3 5 -5.5 14t-4 19t-2.5 19.5t0 14.5q2 16 12 29.5t22 21.5q14 8 25 1.5t16 -14.5q3 -5 2.5 -12.5t-1 -14.5t-0.5 -12.5t4 -6.5q13 -6 17.5 4.5t6 27t4 32.5
t13.5 20q20 8 34 1t21 -18q4 -6 3 -15t-2.5 -18t-1.5 -16t5 -10q9 -4 12.5 2t5 16t2.5 21.5t5 19.5q12 23 32.5 30t38.5 -18zM741 1278q14 1 21 -6.5t10 -17t3 -18.5v-10q0 -11 -4.5 -28t-10.5 -33t-13 -27.5t-12 -11.5q-13 1 -19 17.5t-7.5 38t1.5 43t8 32.5q2 5 9 12.5
t14 8.5zM1107 844q37 -31 59.5 -81.5t32 -113t6.5 -132.5t-17 -139t-38.5 -133.5t-59 -116t-78 -85.5t-94.5 -43t-109.5 12t-123.5 80q-33 -18 -63 -40t-67 -36.5t-86 -17t-119 18.5q-39 16 -55.5 57t-21 95.5t-1.5 116.5t3 120q-57 -8 -78.5 -25t-22 -38.5t12 -45t24 -43.5
t15 -34.5t-15.5 -18.5q-39 -10 -77.5 -2t-74.5 34q-26 19 -37.5 43t-13.5 49.5t4 50.5t15 47.5t18 40.5l14 28q16 28 40 61t53.5 63.5t63.5 55.5t71 37.5t75 8.5t76 -31q28 -20 35 -61t4.5 -92t-9 -105.5t-6 -101.5t13 -81.5t48.5 -44.5q35 -10 53 17t26 75.5t8.5 111.5
t0.5 126t2.5 118t14.5 88q7 18 20.5 38t31.5 34t39 17t42 -13q31 -23 42.5 -69.5t11.5 -104.5t-7 -122t-12.5 -121.5t-5.5 -104t14 -69.5q6 -9 15 -18t19.5 -14.5t21.5 -6.5t22 7q33 23 46.5 65t16.5 95t-1 112.5t-8 117t-3 109.5t14 90q7 22 23.5 43t38 32.5t47 11
t51.5 -21.5z" />
    <glyph glyph-name="u0652_u064E" unicode="&#x652;&#x64e;" horiz-adv-x="1" 
d="M242 1249q34 4 52 -14.5t25.5 -43t7.5 -46t-1 -24.5q-1 -19 -6 -45t-13.5 -53.5t-18.5 -55t-20.5 -49t-21.5 -34.5t-20 -13q-21 2 -35 22t-21.5 50t-9 66.5t1 72t8 66.5t13.5 50q3 6 9.5 14.5t14.5 17t17 14t18 5.5z" />
    <glyph glyph-name="u0652_u064B" unicode="&#x652;&#x64b;" horiz-adv-x="1" 
d="M571 951q6 -22 3.5 -47t-14 -46.5t-30.5 -36.5t-46 -18q-25 -3 -58 -7t-68 -7.5t-70 -6t-65 -1.5t-52.5 6t-32.5 16q-11 19 -13.5 39t1 39t12 37t19.5 33q48 13 103.5 25.5t111 16t107 -5t92.5 -36.5z" />
    <glyph glyph-name="u0652_u064D" unicode="&#x652;&#x64d;" horiz-adv-x="1" 
d="M838 -681q6 -22 3.5 -47t-14 -46.5t-30.5 -36.5t-46 -18q-25 -3 -58 -7t-68 -7.5t-70 -6t-65 -1.5t-52.5 6t-32.5 16q-11 19 -13.5 39t1 39t12 37t19.5 33q48 13 103.5 25.5t111 16t107 -5t92.5 -36.5z" />
    <glyph glyph-name="u0622" unicode="&#x622;" horiz-adv-x="545" arabic-form="isolated" 
d="M305 -14q-12 -12 -26 -17.5t-27 -7t-23.5 -0.5t-15.5 1q-13 1 -24 8t-19 17.5t-12 22t-3 21.5q4 46 9.5 91t11 92.5t11 98.5t10.5 109q9 117 8.5 222t-4 188t-6 139t2.5 74q3 10 9.5 21.5t17 21t25.5 16t35 7.5q39 2 61 -10t34 -32q8 -14 12.5 -54t6.5 -90t2 -102v-89
q0 -129 -3.5 -261.5t-20.5 -257.5q-10 -76 -25 -130t-47 -99zM106 1124q-20 -6 -41 -2t-32 10q-11 7 -15.5 15t-8.5 21q-12 54 -7 100.5t25 82t54 58.5t79 29q30 4 61.5 -1.5t60 -13t53.5 -14t42 -4.5q21 3 42 15.5t42 27t41.5 28.5t40 19t37.5 -2t34 -33q19 -31 16.5 -61.5
t-20 -59t-47.5 -53t-66.5 -43t-76 -30t-76.5 -13.5q-17 -1 -34.5 2.5l-35 7t-35 5t-35.5 -3.5q-21 -6 -31.5 -16t-18.5 -21.5t-18 -24.5t-30 -25z" />
    <glyph glyph-name="Hcircumflex" unicode="&#x622;" horiz-adv-x="445" arabic-form="final" 
d="M3 1236q-17 78 11.5 118t97.5 48q22 2 44.5 0t43.5 -5t39 -5t30 0q41 4 70 15.5t49 22.5t32 17t20 0q19 -18 19 -37t-12.5 -37.5t-36 -36t-51.5 -31t-58 -23.5t-56 -14q-17 -3 -36.5 -0.5t-37.5 5t-34 2.5t-26 -7q-6 -4 -14 -14t-17.5 -20.5t-19.5 -19t-20 -11t-19.5 4.5
t-17.5 28zM471 0q-45 0 -85.5 7.5t-70.5 21.5q-46 16 -87 53t-73 82.5t-54 92t-29 80.5q-6 25 -8 57t-1 68t3.5 74.5t5.5 76.5q2 34 3 68t1.5 64.5t2 56t4.5 43.5q2 12 3.5 31.5t4 41t5.5 42.5t7 35q9 31 14.5 59.5t15 51t27.5 38t52 20.5q45 7 68.5 -8t47.5 -51
q7 -78 -1.5 -151.5t-21.5 -147.5t-24 -151t-9 -161q1 -59 6.5 -107t25 -82.5t59 -53t108.5 -18.5v-233z" />
    <glyph glyph-name="u0623" unicode="&#x623;" horiz-adv-x="388" arabic-form="isolated" 
d="M147 36q5 130 6.5 259t-8.5 257q-1 17 -2 52t-2 79.5t-2.5 94t-3 96t-3 85t-3.5 60.5q-5 45 11.5 82t46 55t68 11.5t77.5 -47.5q13 -14 20 -61t10 -111.5t3 -139t-0.5 -143t-0.5 -123.5t2 -81q1 -12 0.5 -39t-2 -62t-4.5 -74.5t-6 -75.5t-6 -64.5t-6 -41.5
q-17 -66 -46.5 -93.5t-75.5 -22.5q-25 2 -47 10.5t-26 37.5zM383 1531q6 -9 6.5 -21t-2.5 -22.5t-9.5 -18t-14.5 -7.5q-20 0 -44.5 -1t-43 -6t-26 -17t6.5 -34q8 -13 28 -10t43 11t45 15t35 1q9 -4 14 -12t7 -17t1.5 -17t-2.5 -13q-7 -20 -18 -30t-16 -11q-47 -8 -93.5 -22
t-86.5 -27.5t-69.5 -24t-40.5 -11.5q-8 -1 -14.5 5t-10 15.5t-3 22t6.5 24.5q3 7 14 14.5t23.5 14.5t25 13t18.5 10q-30 33 -37 60t4 62q9 27 39 49t68.5 32.5t78 5.5t67.5 -33z" />
    <glyph glyph-name="uFE84" unicode="&#x623;" horiz-adv-x="445" arabic-form="final" 
d="M471 0q-45 0 -85.5 7.5t-70.5 21.5q-46 16 -87 53t-73 82.5t-54 92t-29 80.5q-6 25 -8 57t-1 68t3.5 74.5t5.5 76.5q2 34 3 68t1.5 64.5t2 56t4.5 43.5q2 12 3.5 31.5t4 41t5.5 42.5t7 35q9 31 14.5 59.5t15 51t27.5 38t52 20.5q45 7 68.5 -8t47.5 -51q7 -78 -1.5 -151.5
t-21.5 -147.5t-24 -151t-9 -161q1 -59 6.5 -107t25 -82.5t59 -53t108.5 -18.5v-233zM399 1535q6 -9 6.5 -21t-2.5 -22.5t-9.5 -18t-14.5 -7.5q-20 0 -44.5 -1t-43 -6t-26 -17t6.5 -34q8 -13 28 -10t43 11t45 15t35 1q9 -4 14 -12t7 -17t1.5 -17t-2.5 -13q-7 -20 -18 -30
t-16 -11q-47 -8 -93.5 -22t-86.5 -27.5t-69.5 -24t-40.5 -11.5q-8 -1 -14.5 5t-10 15.5t-3 22t6.5 24.5q3 7 14 14.5t23.5 14.5t25 13t18.5 10q-30 33 -37 60t4 62q9 27 39 49t68.5 32.5t78 5.5t67.5 -33z" />
    <glyph glyph-name="u0624" unicode="&#x624;" horiz-adv-x="628" arabic-form="isolated" 
d="M436 890q6 -9 6.5 -21t-2.5 -22.5t-9.5 -18t-14.5 -7.5q-20 0 -44.5 -1t-43 -6t-26 -17t6.5 -34q8 -13 28 -10t43 11t45 15t35 1q9 -4 14 -12t7 -17t1.5 -17t-2.5 -13q-7 -20 -18 -30t-16 -11q-47 -8 -93.5 -22t-86.5 -27.5t-69.5 -24t-40.5 -11.5q-8 -1 -14.5 5
t-10 15.5t-3 22t6.5 24.5q3 7 14 14.5t23.5 14.5t25 13t18.5 10q-30 33 -37 60t4 62q9 27 39 49t68.5 32.5t78 5.5t67.5 -33zM20 -278q-9 29 0.5 56.5t29.5 42.5q30 23 74.5 39t88 34t79 42.5t46.5 65.5q-40 0 -81.5 11t-94.5 48q-24 16 -38.5 42.5t-23 54.5t-11.5 53t-3 39
q0 45 10 89.5t30.5 81.5t52 64t73.5 37q70 16 132 9t110 -34t79 -72.5t40 -105.5q16 -114 7.5 -204t-41.5 -162t-91 -128t-140 -101q-11 -6 -31.5 -15.5t-45.5 -20.5t-52 -21t-52 -16.5t-45 -8t-31 5.5q-24 14 -43 29.5t-28 44.5zM274 284q0 -19 10 -31t26.5 -19t39 -10
t48.5 -4q6 26 -1 47t-20.5 35.5t-31.5 21.5t-33.5 5.5t-26.5 -12.5t-11 -33z" />
    <glyph glyph-name="uFE86" unicode="&#x624;" horiz-adv-x="681" arabic-form="final" 
d="M473 883q6 -9 6.5 -21t-2.5 -22.5t-9.5 -18t-14.5 -7.5q-20 0 -44.5 -1t-43 -6t-26 -17t6.5 -34q8 -13 28 -10t43 11t45 15t35 1q9 -4 14 -12t7 -17t1.5 -17t-2.5 -13q-7 -20 -18 -30t-16 -11q-47 -8 -93.5 -22t-86.5 -27.5t-69.5 -24t-40.5 -11.5q-8 -1 -14.5 5
t-10 15.5t-3 22t6.5 24.5q3 7 14 14.5t23.5 14.5t25 13t18.5 10q-30 33 -37 60t4 62q9 27 39 49t68.5 32.5t78 5.5t67.5 -33zM696 233v-233h-76q-17 -35 -43 -77.5t-59.5 -84t-74.5 -77.5t-88 -57q-17 -8 -49.5 -17.5t-67 -17.5t-64.5 -12.5t-43 -2.5q-17 3 -35 13t-32.5 24
t-24 29.5t-10.5 29.5q-3 43 17 69t52.5 42t72 26.5t75.5 24t63.5 33.5t35.5 55q-61 12 -112.5 45t-84.5 82.5t-42 114.5t15 141q12 37 33.5 70t52 58.5t69.5 41.5t86 18q74 4 132 -14t97 -60t58 -107.5t15 -156.5h32zM450 236q10 2 14 15t4 29.5t-4 32t-11 23.5
q-24 24 -42.5 24t-30 -14t-14.5 -36.5t4.5 -42t26.5 -30t53 -1.5z" />
    <glyph glyph-name="u0625" unicode="&#x625;" horiz-adv-x="427" arabic-form="isolated" 
d="M147 36q5 130 6.5 259t-8.5 257q-1 17 -2 52t-2 79.5t-2.5 94t-3 96t-3 85t-3.5 60.5q-5 45 11.5 82t46 55t68 11.5t77.5 -47.5q13 -14 20 -61t10 -111.5t3 -139t-0.5 -143t-0.5 -123.5t2 -81q1 -12 0.5 -39t-2 -62t-4.5 -74.5t-6 -75.5t-6 -64.5t-6 -41.5
q-17 -66 -46.5 -93.5t-75.5 -22.5q-25 2 -47 10.5t-26 37.5zM369 -168q6 -9 6.5 -21t-2.5 -22.5t-9.5 -18t-14.5 -7.5q-20 0 -44.5 -1t-43 -6t-26 -17t6.5 -34q8 -13 28 -10t43 11t45 15t35 1q9 -4 14 -12t7 -17t1.5 -17t-2.5 -13q-7 -20 -18 -30t-16 -11q-47 -8 -93.5 -22
t-86.5 -27.5t-69.5 -24t-40.5 -11.5q-8 -1 -14.5 5t-10 15.5t-3 22t6.5 24.5q3 7 14 14.5t23.5 14.5t25 13t18.5 10q-30 33 -37 60t4 62q9 27 39 49t68.5 32.5t78 5.5t67.5 -33z" />
    <glyph glyph-name="uFE88" unicode="&#x625;" horiz-adv-x="445" arabic-form="final" 
d="M471 0q-45 0 -85.5 7.5t-70.5 21.5q-46 16 -87 53t-73 82.5t-54 92t-29 80.5q-6 25 -8 57t-1 68t3.5 74.5t5.5 76.5q2 34 3 68t1.5 64.5t2 56t4.5 43.5q2 12 3.5 31.5t4 41t5.5 42.5t7 35q9 31 14.5 59.5t15 51t27.5 38t52 20.5q45 7 68.5 -8t47.5 -51q7 -78 -1.5 -151.5
t-21.5 -147.5t-24 -151t-9 -161q1 -59 6.5 -107t25 -82.5t59 -53t108.5 -18.5v-233zM419 -138q6 -9 6.5 -21t-2.5 -22.5t-9.5 -18t-14.5 -7.5q-20 0 -44.5 -1t-43 -6t-26 -17t6.5 -34q8 -13 28 -10t43 11t45 15t35 1q9 -4 14 -12t7 -17t1.5 -17t-2.5 -13q-7 -20 -18 -30
t-16 -11q-47 -8 -93.5 -22t-86.5 -27.5t-69.5 -24t-40.5 -11.5q-8 -1 -14.5 5t-10 15.5t-3 22t6.5 24.5q3 7 14 14.5t23.5 14.5t25 13t18.5 10q-30 33 -37 60t4 62q9 27 39 49t68.5 32.5t78 5.5t67.5 -33z" />
    <glyph glyph-name="u0626" unicode="&#x626;" horiz-adv-x="1217" arabic-form="isolated" 
d="M992 392q-58 1 -98 -29.5t-47 -81.5q-1 -23 15 -38.5t40.5 -29t53.5 -28.5t55 -36.5t44.5 -52.5t21.5 -78q2 -26 0.5 -51t-10 -52t-26.5 -56.5t-49 -64.5q-45 -42 -106 -84t-139 -77q-57 -26 -129.5 -38t-148.5 -7.5t-148.5 26t-128.5 62.5q-51 37 -88.5 90t-61 117.5
t-32 139.5t-0.5 155q15 61 47 105.5t71.5 64.5t81 11.5t76.5 -53.5q0 -39 -1.5 -83.5t-1 -89.5t5.5 -88t18 -79.5t37 -64.5t62 -43q36 -14 78.5 -17.5t85.5 2t83.5 18.5t71.5 32t49 42.5t17 50.5q-6 19 -22 28t-35.5 13.5t-39.5 8t-35 11.5q-20 10 -38.5 32t-32 55t-19.5 78
t0 101q5 51 35 97.5t76 85t103.5 65.5t117.5 39q53 11 104 13.5t92.5 -7.5t70.5 -33.5t38 -63.5q12 -59 2 -87.5t-38.5 -37.5t-74 -4.5t-103.5 12.5zM316 687q6 -9 6.5 -21t-2.5 -22.5t-9.5 -18t-14.5 -7.5q-20 0 -44.5 -1t-43 -6t-26 -17t6.5 -34q8 -13 28 -10t43 11t45 15
t35 1q9 -4 14 -12t7 -17t1.5 -17t-2.5 -13q-7 -20 -18 -30t-16 -11q-47 -8 -93.5 -22t-86.5 -27.5t-69.5 -24t-40.5 -11.5q-8 -1 -14.5 5t-10 15.5t-3 22t6.5 24.5q3 7 14 14.5t23.5 14.5t25 13t18.5 10q-30 33 -37 60t4 62q9 27 39 49t68.5 32.5t78 5.5t67.5 -33z" />
    <glyph glyph-name="uFE8A" unicode="&#x626;" horiz-adv-x="1039" arabic-form="final" 
d="M1062 2q-40 0 -93.5 3.5t-107.5 -4.5q27 -11 53.5 -21.5t49 -23.5t40.5 -31t27 -43q17 -46 12.5 -85t-23.5 -77q-27 -56 -77.5 -106.5t-124 -87t-168.5 -55t-211 -9.5q-48 3 -87.5 12t-74.5 23.5t-67 34.5t-65 46q-12 10 -27 25.5t-29.5 33t-25.5 33.5t-15 27
q-16 38 -22 100t-1 128t21.5 125t46.5 92q19 21 50.5 32t63.5 10.5t58 -13.5t34 -40q13 -43 14 -92t-1 -98.5t-3 -95.5t8 -83.5t32 -62.5t69 -32q35 -5 83.5 0.5t96.5 19t90 33t65 43.5q-45 22 -91 44t-80 51t-48.5 68.5t3.5 96.5q10 34 37.5 64t67 55t88 44t99.5 31
q44 10 83.5 14t71 5t52.5 0t28 -1zM355 533q6 -9 6.5 -21t-2.5 -22.5t-9.5 -18t-14.5 -7.5q-20 0 -44.5 -1t-43 -6t-26 -17t6.5 -34q8 -13 28 -10t43 11t45 15t35 1q9 -4 14 -12t7 -17t1.5 -17t-2.5 -13q-7 -20 -18 -30t-16 -11q-47 -8 -93.5 -22t-86.5 -27.5t-69.5 -24
t-40.5 -11.5q-8 -1 -14.5 5t-10 15.5t-3 22t6.5 24.5q3 7 14 14.5t23.5 14.5t25 13t18.5 10q-30 33 -37 60t4 62q9 27 39 49t68.5 32.5t78 5.5t67.5 -33z" />
    <glyph glyph-name="uFE8B" unicode="&#x626;" horiz-adv-x="388" arabic-form="initial" 
d="M-25 234q17 0 45.5 2t57 11.5t51.5 31t29 60.5q6 38 5.5 77t-1.5 76t0 69t9.5 56t27.5 38t55 14q39 0 64.5 -20t40 -51.5t20.5 -71t6.5 -78t-3 -72t-7.5 -54.5q-13 -74 -35 -131q-17 -43 -45.5 -74t-63 -52t-72.5 -33.5t-73 -19t-64.5 -8.5t-47.5 -2zM311 952
q6 -9 6.5 -21t-2.5 -22.5t-9.5 -18t-14.5 -7.5q-20 0 -44.5 -1t-43 -6t-26 -17t6.5 -34q8 -13 28 -10t43 11t45 15t35 1q9 -4 14 -12t7 -17t1.5 -17t-2.5 -13q-7 -20 -18 -30t-16 -11q-47 -8 -93.5 -22t-86.5 -27.5t-69.5 -24t-40.5 -11.5q-8 -1 -14.5 5t-10 15.5t-3 22
t6.5 24.5q3 7 14 14.5t23.5 14.5t25 13t18.5 10q-30 33 -37 60t4 62q9 27 39 49t68.5 32.5t78 5.5t67.5 -33z" />
    <glyph glyph-name="uFE8C" unicode="&#x626;" horiz-adv-x="497" arabic-form="medial" 
d="M523 2q-45 0 -75.5 5.5t-55 13t-48 15t-54.5 10.5q-24 2 -58 -4.5t-74.5 -15.5t-85 -16.5t-89.5 -7.5v232q15 0 32 1t36 6t40.5 15t44.5 27q22 17 38 47t30.5 59t30 51t38.5 24q41 3 65.5 -5.5t37.5 -24t18 -36.5t8 -42.5t7 -41.5t16 -35q19 -23 41 -34t57 -11v-232z
M414 769q6 -9 6.5 -21t-2.5 -22.5t-9.5 -18t-14.5 -7.5q-20 0 -44.5 -1t-43 -6t-26 -17t6.5 -34q8 -13 28 -10t43 11t45 15t35 1q9 -4 14 -12t7 -17t1.5 -17t-2.5 -13q-7 -20 -18 -30t-16 -11q-47 -8 -93.5 -22t-86.5 -27.5t-69.5 -24t-40.5 -11.5q-8 -1 -14.5 5t-10 15.5
t-3 22t6.5 24.5q3 7 14 14.5t23.5 14.5t25 13t18.5 10q-30 33 -37 60t4 62q9 27 39 49t68.5 32.5t78 5.5t67.5 -33z" />
    <glyph glyph-name="u0627" unicode="&#x627;" horiz-adv-x="423" arabic-form="isolated" 
d="M147 36q5 130 6.5 259t-8.5 257q-1 17 -2 52t-2 79.5t-2.5 94t-3 96t-3 85t-3.5 60.5q-5 45 11.5 82t46 55t68 11.5t77.5 -47.5q13 -14 20 -61t10 -111.5t3 -139t-0.5 -143t-0.5 -123.5t2 -81q1 -12 0.5 -39t-2 -62t-4.5 -74.5t-6 -75.5t-6 -64.5t-6 -41.5
q-17 -66 -46.5 -93.5t-75.5 -22.5q-25 2 -47 10.5t-26 37.5z" />
    <glyph glyph-name="uFE8E" unicode="&#x627;" horiz-adv-x="467" arabic-form="final" 
d="M509 0q-45 0 -85.5 7.5t-70.5 21.5q-46 16 -87 53t-73 82.5t-54 92t-29 80.5q-6 25 -8 57t-1 68t3.5 74.5t5.5 76.5q2 34 3 68t1.5 64.5t2 56t4.5 43.5q2 12 3.5 31.5t4 41t5.5 42.5t7 35q9 31 14.5 59.5t15 51t27.5 38t52 20.5q45 7 68.5 -8t47.5 -51q7 -78 -1.5 -151.5
t-21.5 -147.5t-24 -151t-9 -161q1 -59 6.5 -107.5t25 -83t59 -53.5t108.5 -19v-231v0z" />
    <glyph glyph-name="u0628" unicode="&#x628;" horiz-adv-x="1330" arabic-form="isolated" 
d="M790 -182q46 1 69.5 -18t30 -48t-3 -61.5t-30.5 -59t-52 -41t-68 -6.5q-34 7 -53.5 27t-26 45.5t-0.5 53.5t23.5 51.5t45.5 39.5t65 17zM499 -14q-46 3 -91 11.5t-85 24t-72.5 39t-53.5 55.5q-24 37 -34 86t-6 94t23 76.5t54 32.5q54 2 83 -8t47 -32t32.5 -55t38.5 -77
q11 -22 44.5 -35t80 -18.5t101.5 -2.5t110 14.5t105 30.5t87 46t55.5 62t10.5 78q-6 35 -3.5 74t24 67.5t68 39.5t128.5 -8q42 -10 60.5 -38.5t22 -65.5t-3.5 -78.5t-15 -77.5q-17 -75 -61.5 -129t-110 -91.5t-149.5 -61.5t-180 -39q-38 -6 -79 -9.5t-81.5 -5t-78.5 -1.5
t-71 2z" />
    <glyph glyph-name="uFE90" unicode="&#x628;" horiz-adv-x="1387" arabic-form="final" 
d="M697 -382q-22 -26 -51 -28.5t-56 9.5t-48.5 32.5t-28.5 40.5q-17 46 -7 81t34.5 58t59.5 33t68 6.5t59 -21t35 -49.5q7 -25 3.5 -46.5t-13.5 -41t-25 -38t-30 -36.5zM1417 0q-46 0 -77 6.5t-55 18.5t-44.5 29t-45.5 38q-27 -20 -73.5 -36t-104 -28.5t-121 -22t-125 -15
t-116.5 -8.5t-94 -3q-92 1 -173 13.5t-147 33t-114 47t-75 56.5q-21 23 -34.5 60.5t-16.5 80.5t7.5 86t38 76t74.5 51t117 11q35 -3 54.5 -25.5t19.5 -48.5q0 -30 -4.5 -55t-2.5 -46t16 -38t52 -32q46 -18 106 -26t127 -8t136 8t132.5 22t116.5 34t89 45q21 15 35.5 41
t27.5 52t26 46.5t30 24.5q38 8 72 -1t54 -35q16 -21 22.5 -47t4.5 -53t-13.5 -52.5t-31.5 -46.5q17 -13 45.5 -17.5t64.5 -4.5v-231z" />
    <glyph glyph-name="uFE91" unicode="&#x628;" horiz-adv-x="538" arabic-form="initial" 
d="M-34 231q34 0 72.5 4t71.5 11.5t57 18.5t30 26q15 36 10.5 65.5t-15.5 57.5t-22 56.5t-9 62.5q2 39 23.5 67.5t53 42t67.5 11t67 -24.5q29 -21 50.5 -61t34 -89.5t17 -104t-0.5 -105t-19.5 -93t-38.5 -66.5q-23 -23 -59.5 -42t-79 -33.5t-85.5 -23t-78 -9.5l-37.5 -1.5
t-19.5 -1t-11.5 0t-12.5 0.5h-23h-43v231zM87 -310q-11 60 1 96.5t36 54t55 16.5t59 -16.5t47 -43t19 -64.5q0 -49 -26 -80t-61.5 -38.5t-72 10t-57.5 65.5z" />
    <glyph glyph-name="uFE92" unicode="&#x628;" horiz-adv-x="527" arabic-form="medial" 
d="M547 0q-46 0 -76.5 3.5t-51.5 9.5t-35.5 12.5t-28 13t-29 11.5t-39.5 7q-23 2 -48.5 -6.5t-61 -20t-84.5 -21t-119 -9.5v231q62 0 102 16t66 40t40.5 52.5t25.5 54.5t22 45t29 24q48 12 75 8t41.5 -18t19.5 -36t8 -46.5t8 -49.5t19.5 -45t41.5 -32.5t75 -12.5v-231z
M285 -182q21 -9 39.5 -30.5t29 -49t9 -58.5t-19.5 -58q-14 -21 -43.5 -32t-61.5 -11.5t-60.5 10t-40.5 33.5q-23 39 -18.5 81.5t27 73.5t59.5 45t80 -4z" />
    <glyph glyph-name="u067E" unicode="&#x67e;" horiz-adv-x="1387" arabic-form="isolated" 
d="M799 -381q14 -6 26.5 -20.5t19 -33.5t6 -39.5t-13.5 -39.5q-9 -14 -29 -22t-42 -8t-41.5 7t-27.5 23q-15 27 -12.5 56t18 50.5t41 30.5t55.5 -4zM918 -339q-56 5 -110.5 1.5t-106 -7.5t-98.5 -4.5t-87 10.5q-11 12 -15 27.5t-3 32t6 32t12 29.5q24 2 59.5 9t78 14.5
t88 12.5t88.5 3q31 -1 63 -6.5t58 -14.5t44 -20t21 -23q6 -22 -3 -35t-25.5 -22.5t-36 -18t-33.5 -20.5zM126 280q9 40 39 63t67 29t74.5 -3t62.5 -32q16 -15 23.5 -27.5t11 -25.5t5 -26.5t5.5 -30.5q5 -24 37 -38.5t80.5 -21t108.5 -5t121 10t118.5 24t101 37t67.5 49
t19 60.5q-18 114 20.5 169.5t133.5 63.5q45 3 74.5 -6t48 -24t27 -33t10.5 -33q11 -76 -3 -136t-42.5 -106.5t-65 -80t-70.5 -56.5q-44 -30 -117.5 -54.5t-162.5 -40.5t-187 -22t-191.5 0t-176.5 26t-141.5 55.5t-86.5 88.5t-11 126z" />
    <glyph glyph-name="uFB57" unicode="&#x67e;" horiz-adv-x="1497" arabic-form="final" 
d="M1387 426q11 -12 14 -31t2 -41t-3.5 -45.5t-1.5 -44.5q3 -12 17 -19t33 -10t40 -3.5t38 -0.5q0 -32 -0.5 -60t-1 -55t-1 -55t-0.5 -61q-31 0 -77.5 5.5t-94.5 18t-91 32t-67 46.5q-49 -33 -111 -56.5t-132 -37.5t-144.5 -18.5t-149.5 0.5t-147.5 19.5t-137.5 38.5
q-25 9 -54 25t-57 39t-51.5 51.5t-37 63t-14 73t18.5 81.5q15 34 49.5 53.5t74 22t77 -13t59.5 -51.5q12 -20 18.5 -36t13 -29t16 -23t28.5 -18q39 -18 88 -28.5t102.5 -13.5t108.5 1t106.5 16t97 31.5t80.5 47.5q19 15 36 35.5t32.5 39.5t31 34.5t30.5 20.5q57 15 97.5 -1
t64.5 -43zM744 -362q20 3 36 -0.5t28 -10t19.5 -15.5t10.5 -18q7 -22 3 -44.5t-14.5 -41t-26 -31t-31.5 -14.5q-24 -3 -43.5 7.5t-32 28t-17 40t1 43t21.5 36t45 20.5zM984 -138q15 -49 3.5 -84t-41 -59t-74 -38t-95.5 -19.5t-105 -4t-103 8.5q-67 35 -78 66.5t16.5 58
t84 45.5t125 29.5t139.5 10t128 -13.5z" />
    <glyph glyph-name="uFB58" unicode="&#x67e;" horiz-adv-x="486" arabic-form="initial" 
d="M276 -535q-44 -6 -73.5 15t-41 51t-1 60.5t47.5 44.5q28 10 53 2.5t44 -25t29.5 -41.5t9 -46.5t-17.5 -39.5t-50 -21zM430 -284q-36 -3 -79.5 -11t-89.5 -15t-90.5 -11t-82 0.5t-64 20.5t-36.5 49q-15 46 3.5 69.5t55.5 32t84.5 7t90.5 -4.5q9 0 32 -0.5t49 -1t49 -2
t31 -3.5q64 -14 73.5 -46t-26.5 -84zM-19 0v86v47t-0.5 23t-0.5 14v20v42q44 0 75 2.5t53 9t35.5 17.5t22.5 27q12 23 11.5 46.5t-7.5 48t-17 50.5t-17.5 53t-8.5 55.5t10 58.5q6 16 25 34t49.5 28t71 7.5t90.5 -27.5q30 -17 50.5 -62.5t33 -100.5t17 -108.5t3.5 -86.5
q-2 -67 -25.5 -114.5t-62 -79t-88 -49.5t-104 -27t-110.5 -11.5t-106 -2.5z" />
    <glyph glyph-name="uFB59" unicode="&#x67e;" horiz-adv-x="470" arabic-form="medial" 
d="M-27 231q47 0 76.5 8t48.5 21t30 30.5t22 37.5q7 14 13.5 30.5t14 32t16.5 29t21 22.5q16 11 36 16t40.5 3t40 -12t33.5 -29q9 -12 11 -30.5t3.5 -39.5t4.5 -42t14 -38.5t33 -28t60 -10.5v-231q-27 0 -56 8t-58.5 19.5t-58.5 24t-57 21.5q-20 6 -51.5 -4.5t-70 -26
t-81.5 -29t-85 -13.5v231zM171 -482q-8 46 1 73.5t27 40t41.5 12t44 -12t35 -32.5t14.5 -48q0 -37 -20 -60.5t-46.5 -29.5t-54 7.5t-42.5 49.5zM463 -193q6 -18 3.5 -39t-13.5 -39.5t-29.5 -31.5t-43.5 -15q-37 -4 -88 -10t-100.5 -8t-89.5 1t-55 17q-11 16 -13.5 33t1 33.5
t12 31.5t19.5 27q45 12 98 23t106.5 14t103.5 -4.5t89 -32.5z" />
    <glyph glyph-name="u062A" unicode="&#x62a;" horiz-adv-x="1387" arabic-form="isolated" 
d="M1019 760q-9 -32 -25 -44t-35 -18t-40 -13t-40 -29q-42 -14 -95.5 -26t-109 -15.5t-107 5t-88.5 36.5q-21 74 -2 114.5t64 57t108 14t130 -16t130.5 -32t109.5 -33.5zM1368 489q26 -97 10 -174.5t-64 -149.5q-19 -29 -63 -55.5t-104.5 -49t-133.5 -40t-150.5 -27.5
t-154.5 -12t-146 6q-38 5 -78.5 9t-75.5 15q-42 12 -90 33.5t-86 54.5t-58 78.5t-6 106.5q7 30 26.5 49t47 27.5t61.5 5.5t70 -17q15 -15 21.5 -30t11 -31t9 -33t15.5 -35q36 -19 93 -31t123 -16t134.5 0.5t128.5 19t104.5 39.5t62.5 62q4 30 0.5 53.5t-8 44t-7 38.5t3.5 38
q9 31 33 52t55.5 31.5t66 12t65.5 -6.5t53.5 -25t29.5 -43z" />
    <glyph glyph-name="uFE96" unicode="&#x62a;" horiz-adv-x="1427" arabic-form="final" 
d="M1010 824q7 -24 4 -51.5t-15.5 -52t-34 -41.5t-51.5 -20q-28 -3 -64.5 -7.5t-76 -8.5t-78.5 -6.5t-72.5 -1.5t-58.5 6.5t-36 17.5q-13 21 -16 43t1 44t13.5 41.5t22.5 36.5q52 15 114 29t124 18t120.5 -5.5t103.5 -41.5zM1452 0q-17 0 -46 0.5t-63.5 8.5t-72.5 28t-74 59
q-28 -17 -60 -33q-27 -14 -61.5 -28.5t-70.5 -24.5q-38 -11 -111 -18.5t-166 -10.5t-197 0t-203 13q-41 4 -86.5 26t-87.5 54.5t-76 72t-52 78.5t-20.5 78.5t11.5 71t45.5 50.5t81.5 18q54 -2 80 -14.5t38.5 -33t20 -47t24.5 -55.5q7 -13 36 -23t73 -17t99 -11.5t113.5 -5.5
t116.5 0.5t109 6.5t90.5 12.5t60.5 18.5q29 15 48 38t32.5 48.5t25 50.5t27 44.5t38 30.5t57.5 8q55 -5 82 -22.5t37.5 -39t10.5 -43.5v-35q0 -29 -1 -54.5t13 -39.5q13 -13 27 -19t25 -8q15 -3 26 -2v-231z" />
    <glyph glyph-name="uFE97" unicode="&#x62a;" horiz-adv-x="486" arabic-form="initial" 
d="M-19 231q68 0 107 8.5t57.5 25.5t20.5 41t-3 55t-12.5 68.5t-8.5 80.5q-2 38 11 71t36 56t52 35.5t60 10.5t60 -20t51 -55q8 -13 13.5 -41t8.5 -65t3.5 -79t-2 -82t-8 -75t-14.5 -58q-17 -42 -52 -80t-89 -66.5t-127 -45t-164 -16.5v231zM491 1000q15 -49 3.5 -84
t-41 -59t-74 -38t-95.5 -19.5t-105 -4t-103 8.5q-67 35 -78 66.5t16.5 58t84 45.5t125 29.5t139.5 10t128 -13.5z" />
    <glyph glyph-name="uFE98" unicode="&#x62a;" horiz-adv-x="500" arabic-form="medial" 
d="M258 463q61 13 91.5 1t44 -37.5t18 -59.5t14 -64t31.5 -51t71 -21v-231q-56 0 -92.5 7t-62.5 16.5t-45.5 19t-41.5 14.5q-23 2 -46 -6.5t-57.5 -20t-85.5 -21t-130 -9.5v231q19 0 43 1t48 6t46 15.5t37 29.5q18 22 30 51t23.5 56t26 47.5t37.5 25.5zM261 652
q-29 -10 -68 -11t-77.5 6.5t-70.5 23.5t-47 41q7 27 31.5 47t60.5 34.5t79.5 24.5t88.5 16q23 3 42 6t38 3t38 -4.5t42 -16.5q15 -26 19.5 -49t-17.5 -49q-15 -17 -34 -28t-40 -18.5t-42.5 -13t-42.5 -12.5z" />
    <glyph glyph-name="u062B" unicode="&#x62b;" horiz-adv-x="1387" arabic-form="isolated" 
d="M809 960q17 -8 32 -26t23.5 -41t7.5 -49t-16 -50q-12 -17 -36.5 -26t-51.5 -9.5t-51 8t-34 27.5q-18 33 -14.5 69t22 63t49.5 38.5t69 -4.5zM947 553q-62 5 -122 1.5t-116.5 -7.5t-108.5 -4.5t-96 10.5q-12 13 -16.5 30t-3.5 35t6.5 35.5t13.5 32.5q26 3 65.5 11t86 16
t96.5 13.5t98 4.5q34 -1 69.5 -7.5t64.5 -16.5t48.5 -22t23.5 -25q6 -25 -4 -39.5t-28 -25t-39.5 -20t-37.5 -22.5zM126 271q9 40 38.5 66t66.5 36.5t74.5 5t62.5 -28.5q16 -15 23.5 -31t11 -33t5 -34.5t5.5 -34.5q4 -16 34 -24.5t77 -11t105 1t118.5 12t117.5 22t102 31.5
t72 39.5t27 46.5q0 55 6.5 97t23.5 71t47 45t77 19q45 3 74.5 -6t47.5 -24t26.5 -33t11.5 -33q11 -64 -1.5 -123t-39.5 -109t-64.5 -88t-74.5 -59q-47 -26 -122 -48t-164.5 -37t-187.5 -21.5t-191 -1.5t-175 23t-139.5 52.5t-84.5 87t-10 125.5z" />
    <glyph glyph-name="uFE9A" unicode="&#x62b;" horiz-adv-x="1503" arabic-form="final" 
d="M709 954q31 8 60 0.5t49.5 -27t30 -49t2.5 -64.5q-5 -23 -21.5 -37t-38.5 -19.5t-46.5 -3.5t-46 11.5t-36.5 26.5t-18 41q-3 18 0.5 37.5t12 36.5t22 29.5t30.5 17.5zM971 698q6 -21 3.5 -46t-13.5 -46.5t-30 -37t-46 -18.5q-38 -5 -91 -11.5t-105 -9.5t-94 0.5t-57 20.5
q-22 38 -13 78t33 70q48 13 103 25.5t110.5 16t107 -5t92.5 -36.5zM1522 0q-22 0 -59 2.5t-82 11.5t-93.5 26.5t-92.5 47.5l-17 -7t-44 -18t-62.5 -23.5t-72.5 -22.5q-32 -8 -80.5 -15t-111 -10.5t-137.5 -3.5t-159 6q-42 6 -88 28t-88 54t-76.5 71t-52.5 78t-20 78.5t12 71
t45.5 50.5t80.5 18q54 -2 84 -14.5t45.5 -32.5t21.5 -46.5t13 -56.5q4 -19 38 -34.5t85 -25.5t111.5 -14t118 0.5t105 17.5t71.5 37t40 50.5t30 52.5t27 49t30 39.5t41 24.5t59 4q46 -6 72 -23t38.5 -37t15 -40.5t2.5 -33.5q0 -35 -3.5 -60t2.5 -32q21 -25 62 -31t89 -6
v-231z" />
    <glyph glyph-name="uFE9B" unicode="&#x62b;" horiz-adv-x="535" arabic-form="initial" 
d="M369 670q23 -10 40.5 -43.5t29 -81t17.5 -102.5t5.5 -108t-7 -98.5t-19.5 -73.5q-18 -36 -52.5 -62t-78 -44t-91.5 -29.5t-93 -17.5t-83.5 -8t-61.5 -2v231q16 0 51.5 0.5t73.5 7.5t69 22t37 45q4 18 -0.5 53t-11 74t-11 76.5t0.5 60.5q5 25 23 49t43.5 39.5t56.5 20
t62 -8.5zM290 943q-11 -16 -34 -25t-48.5 -9.5t-48 8t-32.5 26.5q-17 31 -14 65t21 59t47 35.5t64 -4.5q16 -7 31 -23.5t23 -38.5t7 -46.5t-16 -46.5zM3 792q-2 29 21.5 49.5t62 32.5t86 16t93.5 0t84.5 -16t59 -32t17 -48.5t-41.5 -64.5q-35 -2 -76.5 -6t-83 -6t-81 -1
t-70 9t-50 23.5t-21.5 43.5z" />
    <glyph glyph-name="uFE9C" unicode="&#x62b;" horiz-adv-x="505" arabic-form="medial" 
d="M86 567q-26 13 -36.5 36t-7.5 47.5t19 46t44 30.5q42 1 88 4.5t91.5 6.5t88 3.5t77.5 -3.5q23 -3 34.5 -26.5t11.5 -50.5t-11.5 -50.5t-34.5 -26.5q-41 -5 -85 -11t-90 -10t-93.5 -4t-95.5 8zM280 462q56 4 82.5 -11.5t37 -41t13.5 -57t11.5 -58.5t31 -45t72.5 -18v-231
q-70 0 -109.5 11t-62 23t-34.5 21.5t-27 6.5q-24 -5 -47 -15t-57 -20.5t-85 -18.5t-132 -8v231q16 0 36.5 1t42 5.5t44 14t42.5 25.5q21 18 37 48.5t32 60t33 52t39 24.5zM334 791q-12 -18 -38.5 -28t-55.5 -10.5t-55 9t-37 29.5q-20 36 -16.5 74.5t23.5 67.5t54 41t75 -6
q18 -8 34.5 -27t25.5 -44t8 -53t-18 -53z" />
    <glyph glyph-name="u062C" unicode="&#x62c;" horiz-adv-x="1061" arabic-form="isolated" 
d="M1049 489q18 -54 2.5 -86t-51 -51.5t-83.5 -31.5t-95 -26t-103.5 -44.5t-110 -71.5t-98 -89t-66.5 -97q-21 -45 -19 -94t21 -93t52.5 -78t75.5 -49q26 -9 67.5 -3.5t88.5 18.5t96.5 28.5t93 26.5t76.5 13t48 -13q14 -14 20 -22t14 -26q16 -39 5.5 -73t-41 -61.5
t-77 -48.5t-100.5 -36t-112.5 -23t-113.5 -9.5t-103 4.5t-81 20q-24 10 -61.5 36.5t-75 60t-69 68.5t-43.5 62q-14 30 -22 63t-11 66t-2.5 64t3.5 56q5 53 24.5 98.5t49 86.5t66.5 77t76 69t78 63.5t73 59.5q-27 3 -49.5 5t-43 -1.5t-40 -14.5t-40.5 -33q-4 -4 -5 -11
t-1.5 -15t-1 -15.5t-3.5 -12.5q-11 -19 -32.5 -32.5t-48 -19.5t-54 -4.5t-51.5 12.5t-41 32.5t-21 55.5q-6 42 3.5 71.5t27.5 53.5t41.5 45t46.5 46q25 27 65.5 36.5t90 8t105.5 -11.5t113.5 -21.5t114 -21.5t105.5 -12q42 -2 78.5 2t65.5 2.5t50.5 -13.5t32.5 -45zM730 71
q55 6 87 -11.5t44.5 -48t8 -67t-23 -69t-48.5 -54t-68 -21.5q-35 0 -64 18.5t-47 46.5t-23 61.5t6.5 63.5t42.5 52.5t85 28.5z" />
    <glyph glyph-name="uFE9E" unicode="&#x62c;" horiz-adv-x="1145" arabic-form="final" 
d="M555 -162q-11 26 -16 53t-2.5 50.5t13 41.5t30.5 26q27 10 55 5.5t50 -20.5t34.5 -43t7.5 -62q-5 -27 -22 -45.5t-41.5 -26t-53 -3t-55.5 23.5zM1170 0q-56 0 -111 5.5t-111 29.5t-113.5 73t-118.5 136q-36 -14 -81 -40.5t-87.5 -62.5t-78.5 -79.5t-54.5 -91t-13.5 -98
t43 -99.5q9 -12 21.5 -23t27 -21t30.5 -16.5t31 -9.5q26 -5 67 2.5t87 21.5t94 30t90 28.5t73 17t43 -4.5q14 -11 20 -29t6 -37t-4.5 -36t-11.5 -26q-38 -51 -94 -85.5t-122 -53.5t-137 -24t-137.5 2.5t-124.5 26.5t-98 48q-41 26 -69.5 67t-46.5 79.5t-26.5 65.5t-8.5 26
q-14 65 2 126t51 116t83.5 103.5t100.5 90.5t101.5 76.5t86.5 61.5q-54 25 -92.5 26t-66 -12t-46.5 -34.5t-36 -42t-34 -35t-39 -12.5q-89 7 -126 51.5t-7 133.5q10 30 41.5 64t72 63.5t83 51t74.5 26.5q94 15 179 6.5t163 -32.5t151.5 -60t144.5 -76q17 -10 29 -32.5
t17 -46.5t1 -44.5t-18 -26.5q-27 -11 -50.5 -17t-39.5 -10.5t-23.5 -8t-2.5 -9.5q26 -29 52.5 -46.5t53.5 -26.5t54.5 -12t55.5 -3v-231z" />
    <glyph glyph-name="uFE9F" unicode="&#x62c;" horiz-adv-x="1038" arabic-form="initial" 
d="M292 -146q44 10 74.5 -5t47 -42.5t18.5 -61.5t-10.5 -61.5t-40 -42.5t-69.5 -5q-16 4 -31.5 20t-26.5 38t-17 47t-3 48t16.5 40.5t41.5 24.5zM-18 231q82 0 157 15.5t132.5 38t91 47.5t32.5 45q-1 12 -13 21t-29 14t-37.5 6t-39.5 -3q-29 -6 -46.5 -17.5t-31.5 -23
t-29 -19t-39 -5.5q-29 2 -47.5 18.5t-29 39t-14 46.5t-1.5 42q3 37 26.5 69t60 56.5t83.5 40.5t97 21t99.5 -2t92.5 -28q25 -12 48 -29.5t44 -36.5t40 -36t36 -28q15 -10 42.5 -22.5t55 -28t48 -35t22.5 -44.5q1 -24 -14 -47.5t-39 -44.5t-54.5 -40t-60.5 -35t-56 -28.5
t-41 -20.5q-44 -22 -80.5 -40.5t-82.5 -40.5q-60 -30 -117.5 -49t-111 -29.5t-102.5 -14t-92 -3.5v231z" />
    <glyph glyph-name="uFEA0" unicode="&#x62c;" horiz-adv-x="1016" arabic-form="medial" 
d="M650 -411q-54 -4 -93.5 5t-68.5 28q-30 45 -33.5 91t14.5 80.5t54 51.5t84 4q32 -9 52.5 -40t27.5 -70t-2 -80t-35 -70zM1040 0h-62t-80 4.5t-88.5 15.5t-87.5 33t-78 57t-59 87q-137 -106 -293.5 -151.5t-318.5 -45.5v231q93 1 176.5 16.5t148.5 41.5t106.5 61t50.5 74
q-11 9 -30 15t-40.5 7.5t-43 -1.5t-38.5 -10q-21 -10 -40.5 -26.5t-39 -33.5t-38 -31t-36.5 -19t-36.5 2t-36.5 32q-28 38 -31.5 74t10.5 68.5t42 61t62.5 53t72.5 43.5t71.5 32t60 19.5t37.5 5.5q45 -4 91 -16t90.5 -26.5t86.5 -29.5t78 -25q33 -9 71.5 -16.5t71.5 -22
t54 -41t19 -72.5q-1 -26 -11.5 -41.5t-25.5 -25.5t-31 -18t-28 -19.5t-17.5 -29t1.5 -46.5q4 -15 23.5 -25.5t46.5 -17.5t58.5 -10t60.5 -3v-231z" />
    <glyph glyph-name="u0686" unicode="&#x686;" horiz-adv-x="1061" arabic-form="isolated" 
d="M1037 316q-29 -42 -72.5 -66t-96.5 -40.5t-112 -30t-119 -35.5q-34 -13 -65.5 -37t-57 -55t-44.5 -66t-29.5 -70.5t-10 -68.5t13.5 -60q23 -48 65 -71t95 -28.5t113 1.5t118.5 17.5t111 20t91.5 9.5q22 0 34 -25t13.5 -59t-7.5 -69t-29 -54q-11 -10 -46.5 -21.5t-87 -21
t-115 -14.5t-131.5 -2t-135.5 16t-127 40t-107 69.5t-74.5 104.5q-21 48 -24.5 104t3.5 109.5t22 100t32 76.5q24 43 59.5 81t77.5 71.5t87.5 62.5t89.5 55q-18 6 -41.5 10t-47.5 5.5t-46.5 0.5t-37.5 -5q-18 -12 -28.5 -27t-17 -31t-11.5 -32t-13.5 -29t-22.5 -22t-37 -11
q-21 -2 -41.5 8t-37 26t-27.5 36t-13 38q-2 26 11 60t35.5 67.5t50.5 63.5t55 47q25 16 76 20.5t116 0.5t138 -15t141.5 -26t126.5 -32t94 -34q14 -7 30 -21.5t25.5 -35.5t8.5 -48t-21 -58zM722 -251q-12 14 -15 34.5t1 40.5t14.5 36t25.5 21q17 6 32 2t26.5 -15.5
t17.5 -28.5t4 -37q-1 -9 -9 -22.5t-21.5 -24t-32.5 -14t-43 7.5zM971 8q0 -18 -8 -30t-23.5 -20t-37.5 -12.5t-49 -8.5q-38 -6 -76 -15.5t-72.5 -16.5t-64.5 -7t-52 13q-11 7 -20 10.5t-16.5 8t-13 12t-9.5 21.5q-6 19 14 33.5t55.5 26t80.5 19t89 11t81 4t56 -2.5
q20 -4 37 -17t29 -29z" />
    <glyph glyph-name="uFB7B" unicode="&#x686;" horiz-adv-x="1145" arabic-form="final" 
d="M674 -131q38 5 59.5 -10t26.5 -31q6 -21 2.5 -41.5t-13 -37.5t-23.5 -28.5t-29 -13.5q-23 -4 -41 5.5t-29.5 26t-15.5 37.5t1 40.5t20 34t42 18.5zM833 8q13 -43 -9 -70.5t-64 -42.5t-95.5 -18t-103.5 3q-43 23 -50 44t10.5 38t54.5 29t81.5 18.5t91.5 6.5t84 -8zM1170 0
q-14 0 -46.5 -0.5t-74.5 3.5t-90 15.5t-93.5 36t-84.5 64t-63 99.5q-35 -11 -77.5 -37t-83.5 -62t-75.5 -79.5t-53.5 -89.5t-17.5 -91.5t32.5 -85.5q31 -38 70.5 -57.5t83 -26t89.5 -3.5t91 10t86.5 16t76.5 13t61 1t40 -19q14 -15 22 -34.5t2 -39.5q-17 -54 -63 -93
t-110 -62t-140.5 -30t-155 3t-153.5 37.5t-136 73.5t-102 111t-52 149q-15 100 12 177t85.5 143t143 126.5t185.5 127.5q-54 26 -91.5 30.5t-64.5 -4.5t-46 -26.5t-35.5 -35t-33.5 -30.5t-39 -13q-39 0 -74 8.5t-57 27.5t-26 48t20 70q16 28 51 61.5t75.5 64t80 52.5
t63.5 27q64 13 138 1t154 -36.5t163.5 -55.5t166.5 -56q15 -5 28.5 -26.5t20.5 -46t5.5 -46t-15.5 -27.5q-54 -22 -83.5 -35.5t-25.5 -27.5q8 -32 32 -49.5t55.5 -26.5t65.5 -11t63 -2v-231z" />
    <glyph glyph-name="uFB7C" unicode="&#x686;" horiz-adv-x="976" arabic-form="initial" 
d="M478 -158q31 2 63.5 3.5t60.5 -7.5q10 -3 23.5 -11.5t25 -20t18 -24t3.5 -24.5q-2 -12 -18 -22.5t-38 -19t-45 -15.5t-39 -12q-18 -6 -46 -13t-61 -13t-68 -9.5t-67 -3t-58 7t-41 21.5q-11 10 -15.5 23t-3.5 26.5t6 26t13 21.5q14 15 46.5 26.5t73.5 19.5t85 13t82 7z
M-15 231q37 0 85.5 2.5t101 8.5t106 16.5t102 26t88.5 37.5t65 51q10 11 0.5 22t-31.5 21t-52 17.5t-60 12.5t-57 6t-43 -3q-26 -7 -56.5 -23t-61 -32.5t-60 -29t-53 -12.5t-40 17t-21.5 59q-8 56 23.5 113t92.5 98t147.5 57t190.5 -9q29 -7 60 -20t64 -28.5t66.5 -31
t68.5 -28.5q37 -14 80 -22.5t80.5 -18t65 -24.5t34.5 -43q8 -33 -3 -62.5t-32.5 -53.5t-50 -41.5t-55.5 -26.5q-8 -2 -39.5 -24t-84.5 -54t-126.5 -68.5t-165 -68t-199.5 -52t-230 -20.5v231zM445 -363q15 -3 27.5 -13.5t20 -26.5t8.5 -35t-9 -39q-7 -14 -23 -26.5
t-36 -19.5t-41.5 -5t-39.5 17q-26 22 -24 50t20 52t45.5 38t51.5 8z" />
    <glyph glyph-name="uFB7D" unicode="&#x686;" horiz-adv-x="1039" arabic-form="medial" 
d="M1061 0q-38 0 -97.5 3t-126.5 19.5t-134 53t-119 103.5q-45 -38 -105.5 -68.5t-129.5 -53.5t-144 -37t-148 -18q-16 -1 -25 -1.5t-14 -0.5h-8h-34v231q47 0 106.5 6t120.5 18t118 29t99 38.5t62.5 47t8.5 54.5q-6 13 -31 19t-56.5 6.5t-62 -3.5t-46.5 -11
q-21 -10 -40 -26t-37.5 -32t-36 -29.5t-36 -18.5t-37.5 1t-40 29q-39 42 -41.5 84.5t18.5 81t60 71.5t82.5 57t85.5 36.5t69 10.5q63 -4 119 -13.5t105.5 -21t92.5 -24t79 -22.5q33 -9 71.5 -16t71.5 -21.5t54 -41t19 -73.5q-2 -39 -23.5 -63.5t-44.5 -42.5t-38.5 -34.5
t-5.5 -39.5q9 -20 33.5 -31.5t56 -17t66 -6.5t63.5 -1v-231zM698 -174q6 -22 3.5 -46.5t-14 -46t-30.5 -36.5t-46 -18q-38 -4 -91 -11t-105 -10t-93.5 0.5t-56.5 20.5q-11 19 -13.5 38.5t1 38.5t12 37t19.5 33q47 14 102.5 26.5t111.5 16t108 -5t92 -37.5zM549 -556
q-42 -3 -71.5 3.5t-52.5 21.5q-23 34 -25 69t11.5 61t41 39.5t64.5 3.5q25 -7 40.5 -30.5t20 -53.5t-2 -61t-26.5 -53z" />
    <glyph glyph-name="u062D" unicode="&#x62d;" horiz-adv-x="1139" arabic-form="isolated" 
d="M1027 480q31 -66 30.5 -102.5t-25 -57.5t-71 -33.5t-107.5 -31.5q-29 -9 -50.5 -20.5t-40 -24t-35 -26t-34.5 -26.5q-22 -17 -56 -48t-66 -69.5t-54.5 -81t-21.5 -81.5q1 -47 25 -81.5t61.5 -58t83.5 -37t90 -17.5q31 -3 61 2t58 13t53 15t45.5 7.5t37 -8t26.5 -31.5
q21 -50 13.5 -79t-34.5 -51q-18 -14 -33.5 -24.5t-33.5 -18t-40 -13t-53 -9.5q-66 -8 -135 -8.5t-133.5 6.5t-120.5 22.5t-96 39.5q-35 21 -55.5 34t-34 26.5t-24.5 33t-26 52.5q-14 27 -20 60t-7.5 65.5t1 62t5.5 50.5q6 51 35 95.5t69.5 84t87 74.5t87.5 67.5t70.5 62.5
t37.5 59q3 14 -12.5 18.5t-41.5 0t-58.5 -17t-62 -32.5t-52.5 -47.5t-31 -60.5q-5 -21 -18 -32t-29 -14.5t-33 -2t-30 4.5q-39 11 -58.5 49t-22 85.5t10.5 96.5t38 82q26 36 69.5 60t93.5 39t101 22.5t92 10.5q14 1 40.5 -3.5t59.5 -13t69.5 -18.5t70 -20.5t61.5 -20
t44 -15.5q37 -13 69 -26t60 -39z" />
    <glyph glyph-name="uFEA2" unicode="&#x62d;" horiz-adv-x="1145" arabic-form="final" 
d="M1170 0q-75 0 -142 4t-124 27.5t-104.5 73t-83.5 139.5q-36 -14 -81 -40.5t-87.5 -62.5t-78.5 -79.5t-54.5 -91t-13.5 -98t43 -99.5q17 -23 48 -33.5t62 -15.5q34 -5 73 0t79.5 13.5t80.5 18t75 13.5t64 -0.5t47 -23.5q19 -20 24 -38t0 -36q-16 -62 -63 -101
t-111.5 -59.5t-139.5 -23t-146.5 8.5t-133 34t-98.5 54t-65.5 72.5t-47.5 78.5t-28.5 62.5t-9.5 24.5q-14 65 2 126t51 116t83.5 103.5t100.5 90.5t101.5 76.5t86.5 61.5q-54 25 -91.5 27.5t-64.5 -8.5t-46 -31.5t-35.5 -40.5t-33.5 -34.5t-39 -14.5q-38 0 -73.5 12.5
t-57.5 35.5t-26 55.5t20 73.5q16 28 50.5 64t75 68t80 53.5t64.5 19.5q85 -6 150.5 -17.5t119 -25.5t98 -30.5t87 -32.5t87 -30.5t97.5 -25.5q15 -3 26 -21.5t15 -41t0 -42.5t-19 -26q-54 -23 -83.5 -36.5t-25.5 -27.5q8 -31 32 -48.5t55.5 -26.5t65.5 -11t63 -2v-231v0z
" />
    <glyph glyph-name="uFEA3" unicode="&#x62d;" horiz-adv-x="901" arabic-form="initial" 
d="M-13 231q19 0 49.5 0.5t68.5 4t80.5 12t85.5 24.5q44 16 83.5 32.5t71 34.5t51.5 39.5t25 48.5q2 10 -12 17.5t-37.5 12t-53.5 6.5t-59.5 -0.5t-55.5 -9t-41 -17.5q-27 -20 -39 -35.5t-20.5 -27t-19 -19t-33.5 -11.5q-26 -4 -50 -1.5t-42.5 12.5t-31.5 28.5t-17 46.5
t1 53.5t16 49.5t26.5 46.5t32.5 44.5q35 45 74 67.5t80.5 29t85 -0.5t88 -21t90 -31.5t90.5 -32.5q43 -14 82.5 -24.5t76 -23t69.5 -31.5t63 -51q27 -29 30 -66t-10 -69.5t-36.5 -55.5t-48.5 -25q-30 -2 -72 -24t-96 -54t-121 -69t-147 -68t-174.5 -52t-202.5 -21v231z" />
    <glyph glyph-name="uFEA4" unicode="&#x62d;" horiz-adv-x="916" arabic-form="medial" 
d="M-10 231l32.5 1t82.5 5t110.5 13t117 25t101 41.5t62.5 62.5q7 14 -2 25t-26.5 18.5t-39 10.5t-39.5 2q-35 -3 -64 -16.5t-56.5 -29.5t-56 -30.5t-62.5 -18.5q-36 3 -59.5 17t-36 35.5t-15.5 49.5t3 58q7 37 23 71t37.5 61.5t48 46.5t55.5 26q80 17 169.5 9t176.5 -32
t166.5 -58.5t138.5 -70.5q25 -15 35.5 -33t12 -35.5t-3.5 -33.5t-11 -27q-18 -23 -44 -47t-45.5 -46.5t-24 -42.5t21.5 -34q18 -10 35.5 -14.5t36 -6.5t39.5 -2h45v-231q-117 0 -189.5 10.5t-115 25t-63 30.5t-33.5 27q-26 -7 -64 -22.5t-101.5 -31t-159.5 -27.5t-238 -12
v231v0z" />
    <glyph glyph-name="u062E" unicode="&#x62e;" horiz-adv-x="1061" arabic-form="isolated" 
d="M523 831q-14 33 -20.5 67.5t-3 64t17 52t39.5 32.5q33 13 68.5 8t63 -25.5t43 -54.5t9.5 -79q-5 -34 -26.5 -57.5t-52.5 -33t-67.5 -4t-70.5 29.5zM695 221q-36 -14 -81 -40.5t-88 -62.5t-79 -79.5t-54.5 -91t-13.5 -98t43 -99.5q18 -23 49 -33.5t61 -15.5
q21 -4 65.5 2.5t99.5 18t116 23.5t115 19.5t96 7t60 -15.5q11 -9 15 -23.5t4 -30t-3 -30.5t-5 -24q-20 -62 -76 -100t-131.5 -56t-163 -19.5t-171 10t-155 32t-114.5 46.5q-42 25 -71 66t-47 79.5t-26 66t-8 26.5q-14 65 2 125.5t51 116t84 104t101 91t101.5 77t85.5 60.5
q-53 26 -91 29t-65.5 -8t-47 -31.5t-36.5 -41t-34 -37.5t-39 -21q-44 -8 -76.5 3.5t-50.5 37.5t-20.5 63t14.5 81q10 27 41.5 60.5t71.5 64t82.5 53t74.5 27.5q63 10 120 5t110.5 -19.5t103.5 -35t100 -42t100.5 -40.5t103.5 -30q16 -3 26 -20t13 -38.5t-0.5 -42
t-15.5 -30.5q-21 -18 -37.5 -28t-29 -16t-23 -10t-19.5 -10z" />
    <glyph glyph-name="uFEA6" unicode="&#x62e;" horiz-adv-x="1145" arabic-form="final" 
d="M530 837q-14 33 -20.5 67.5t-3 64t17 52t38.5 32.5q33 13 68.5 8t63 -25.5t43 -54.5t9.5 -79q-5 -34 -26.5 -57.5t-52.5 -33t-67 -4t-70 29.5zM1172 0q-75 0 -142 4.5t-124.5 27.5t-104.5 72.5t-83 139.5q-36 -14 -81 -41t-87.5 -64t-78.5 -81.5t-54.5 -92.5t-13.5 -99
t43 -100q17 -23 48 -34t62 -16q33 -5 76.5 -0.5t90.5 12.5t94.5 17t89 12t74.5 -2t51 -25q9 -10 12.5 -24.5t4 -30t-1.5 -30t-4 -23.5q-12 -47 -62 -76t-120.5 -43t-153.5 -15t-160.5 8t-142 25.5t-97.5 38.5q-27 17 -49 43.5t-38.5 56t-28.5 59t-20 53t-11.5 37.5t-3.5 13
q-14 65 2 126t50.5 116t83.5 104t100.5 91t101.5 76.5t87 60.5q-54 26 -91.5 29t-65.5 -8t-47.5 -31.5t-36.5 -41t-34 -37.5t-39 -21q-45 -8 -77 3.5t-50 37.5t-20 63t14 81q10 27 41.5 61t71.5 64.5t82.5 53t74.5 27.5q63 10 120 5t110 -19.5t103.5 -35.5t100.5 -42.5
t100.5 -40.5t103.5 -30q15 -3 26.5 -21.5t15.5 -41t0 -42.5t-19 -26q-54 -22 -83.5 -35.5t-25.5 -27.5q8 -32 32 -49.5t55.5 -26.5t65.5 -11t63 -2v-231z" />
    <glyph glyph-name="uFEA7" unicode="&#x62e;" horiz-adv-x="964" arabic-form="initial" 
d="M-18 231q84 0 163 12.5t143.5 35t110 53.5t61.5 68q11 26 -8 41.5t-51 23t-67.5 7t-57.5 -6.5q-35 -9 -51 -28.5t-28 -39t-29 -35t-54 -16.5q-40 -1 -65 13t-37 37.5t-12.5 54t8 62t25 61.5t38.5 53q27 29 55 50t63.5 32.5t80.5 12.5t105 -10q35 -6 83.5 -30t99 -53.5
t96.5 -57.5t76 -41q24 -11 55 -19.5t59.5 -18t51 -23.5t29.5 -37q10 -36 10 -60t-9 -42t-26 -34t-40 -37q-70 -5 -134.5 -26.5t-128 -50.5t-126.5 -61.5t-128.5 -59.5t-135.5 -44.5t-147 -16.5h-78v231zM382 1115q20 -3 33.5 -21.5t19.5 -45.5t4 -58t-14 -59
q-20 -50 -45.5 -66.5t-50.5 -10t-47 31t-35.5 57t-16 67.5t12 61.5t48 40t91.5 3.5z" />
    <glyph glyph-name="uFEA8" unicode="&#x62e;" horiz-adv-x="942" arabic-form="medial" 
d="M300 874q-24 -12 -47.5 -13t-44.5 5t-39 17t-31 23q-26 25 -36 54t-7.5 57.5t16.5 53t35.5 41.5t50 23.5t60.5 -2.5q21 -6 39.5 -24t31 -43t18.5 -54t3.5 -56t-14.5 -49t-35 -33zM972 0q-56 0 -114 -0.5t-114.5 15.5t-109 57t-97.5 125q-41 -29 -99.5 -63.5t-129.5 -64
t-154 -49.5t-174 -20v231q187 0 290 46.5t137 146.5q-12 9 -30.5 14.5t-40 7t-43 -1t-37.5 -9.5q-32 -15 -61 -42.5t-56.5 -47.5t-54.5 -21.5t-55 35.5q-19 25 -22.5 57.5t4 67t25 69.5t41 65t50 53t53.5 34q32 13 78.5 14.5t94.5 -3.5q45 -4 91 -16t90.5 -26.5t86.5 -29.5
t78 -25q33 -9 71.5 -16t71.5 -21.5t54.5 -40.5t19.5 -73q-1 -26 -13.5 -43.5t-29.5 -30.5t-34.5 -23t-30 -21.5t-15.5 -26t10 -36.5q4 -7 15 -16.5t30.5 -18.5t50 -15t73.5 -6v-231z" />
    <glyph glyph-name="u062F" unicode="&#x62f;" horiz-adv-x="823" arabic-form="isolated" 
d="M380 0q-40 0 -70 0.5t-54 3.5t-42.5 9.5t-34.5 18.5q-38 27 -56 62.5t-15 68t28 56t75 26.5q27 1 63 -1.5t75 -3.5t77.5 2t70 15t53.5 36t28 64q4 30 -13.5 50t-46.5 34.5t-64.5 26.5t-66.5 26t-53.5 32.5t-25.5 46.5q-5 44 8 77.5t40.5 50.5t69.5 15t95 -27
q15 -8 42.5 -21t58 -28t59 -29.5t45.5 -26.5q19 -14 34.5 -35t26.5 -43.5t17.5 -45t8.5 -39.5q7 -66 -9.5 -121t-49.5 -99.5t-78.5 -78.5t-96 -59t-102 -40.5t-97.5 -22.5z" />
    <glyph glyph-name="uFEAA" unicode="&#x62f;" horiz-adv-x="795" arabic-form="final" 
d="M824 0q-35 0 -63.5 2.5t-54.5 11.5t-51.5 27t-54.5 50q-41 -38 -99.5 -61.5t-120.5 -29.5t-120 5t-96.5 41t-50 79.5t18.5 120.5q11 15 27 21t33 6.5t33.5 -2.5t29.5 -5t37.5 -9t54 -9.5t61 6t57.5 37.5q18 15 20 36.5t-6 47t-22.5 53.5t-29 57.5t-27 58t-15.5 55t6 48.5
t36 39q73 25 118.5 13.5t67.5 -50.5q17 -32 25 -75t14.5 -89.5t15 -92t26.5 -81.5t48.5 -58t81.5 -22v-231v0z" />
    <glyph glyph-name="u0630" unicode="&#x630;" horiz-adv-x="813" arabic-form="isolated" 
d="M95 248q14 22 37.5 27.5t53.5 2t64.5 -13t72.5 -17.5q21 -5 36 -7t27 -2.5t24 0.5t27 3q21 2 44.5 13.5t44 28.5t34 37t14.5 38q1 23 -7.5 39t-24.5 28t-38.5 21t-50.5 18q-29 9 -59.5 22.5t-55 34t-38.5 49t-9 67.5q2 19 18.5 39.5t41.5 36t54.5 25t58.5 7.5
q18 -1 43.5 -14t54.5 -34t58.5 -46.5t56 -52t47.5 -50.5t32 -41q51 -79 55 -161t-34 -151q-12 -22 -32.5 -45t-47 -45t-58.5 -40.5t-67 -31.5q-60 -22 -139 -30.5t-164 8.5q-39 8 -81.5 29.5t-72.5 53t-39 71t19 83.5zM560 1002q-19 -43 -50 -61.5t-65.5 -17.5t-69 18.5
t-59.5 46t-36.5 65.5t-1.5 78q9 33 31.5 56t52 35t62 13.5t62 -8.5t52.5 -31t32 -54q6 -21 8.5 -37.5t1.5 -32.5t-6 -32.5t-14 -37.5z" />
    <glyph glyph-name="uFEAC" unicode="&#x630;" horiz-adv-x="971" arabic-form="final" 
d="M523 1175q45 1 69.5 -18t30.5 -47.5t-3 -61.5t-30.5 -59t-53 -40.5t-68.5 -6.5q-33 7 -52.5 26.5t-26 45.5t-0.5 53.5t23.5 51.5t45 39.5t65.5 16.5zM999 0q-75 0 -127.5 14.5t-86.5 31.5q-40 19 -66 47q-11 -8 -21 -14.5t-21 -13.5q-18 -11 -40 -22.5t-42 -19.5
q-32 -12 -60.5 -19t-58.5 -10t-65.5 -2t-81.5 6q-26 4 -65.5 17.5t-76.5 34t-62 48t-22 60.5q3 43 15.5 66.5t31 34t42.5 10.5t51 -3q26 -3 46.5 -7.5t39 -9t37 -8.5t39.5 -6q54 -6 91 3t56.5 30t21 51t-15.5 66q-14 29 -26 51.5t-23 43.5t-23 42t-26 47q-3 5 -8.5 18.5
t-9 30t-2 34.5t12.5 32t31 25t44 15t49.5 -2t47.5 -25q31 -30 50.5 -52.5t32 -42t21 -39t17.5 -43.5q17 -45 31 -96t38.5 -93.5t67 -71t116.5 -28.5v-231z" />
    <glyph glyph-name="u0631" unicode="&#x631;" horiz-adv-x="549" arabic-form="isolated" 
d="M44 -286q-37 44 -38.5 79t19 64.5t56.5 55t74 51t71.5 52t48.5 58.5q15 31 17.5 66.5t-2.5 72t-14.5 72t-17 67.5t-10 58t5.5 43q23 51 54.5 67t64.5 3t63.5 -49.5t52.5 -90t32 -119.5t1 -136q-9 -67 -31.5 -122t-51 -98.5t-59 -76t-55.5 -53.5q-28 -23 -66.5 -46
t-78.5 -36t-76.5 -11t-59.5 29z" />
    <glyph glyph-name="uFEAE" unicode="&#x631;" horiz-adv-x="585" arabic-form="final" 
d="M605 0q-54 0 -83.5 7t-48.5 18q-2 1 -10 -19t-19 -46.5t-22.5 -53.5t-19.5 -41q-13 -23 -29.5 -50.5t-36 -55.5t-43.5 -53.5t-52 -44.5q-19 -13 -51.5 -33t-70 -33.5t-74 -14t-63.5 26.5q-43 43 -46 75.5t15 57t47.5 42t53.5 30.5q29 16 57.5 36.5t52 46t40.5 55.5t23 66
q5 29 2 62.5t-8.5 68t-10.5 68.5t-3.5 63.5t12.5 53t37 37.5q27 15 53.5 14t51 -11t45.5 -26t36 -31q23 -22 42.5 -38t39 -26t39.5 -15t44 -5v-231v0z" />
    <glyph glyph-name="u0632" unicode="&#x632;" horiz-adv-x="545" arabic-form="isolated" 
d="M402 842q22 -9 41.5 -31.5t30 -52t9 -62t-20.5 -61.5q-14 -21 -45 -33t-65 -12.5t-64.5 10.5t-43.5 35q-23 42 -18.5 86.5t28 78t62.5 47.5t86 -5zM464 358q53 -85 70.5 -167.5t6.5 -159.5t-45.5 -146t-84.5 -127.5t-111 -105t-124 -77.5q-17 -9 -39 -16t-44.5 -8
t-44 7.5t-39.5 31.5q-36 45 -38 80t17.5 64t54 54t72 50t72 51.5t53.5 58.5q21 37 31.5 70.5t12.5 70t-3.5 80.5t-16.5 101q-3 14 4 34t20 39t31 33t37 16q15 1 30.5 0.5t30 -4t27 -10.5t20.5 -20z" />
    <glyph glyph-name="uFEB0" unicode="&#x632;" horiz-adv-x="654" arabic-form="final" 
d="M673 0q-54 0 -84 6t-48 15q-3 1 -11.5 -18t-19 -45t-21.5 -52.5t-19 -40.5q-26 -48 -65.5 -91.5t-96.5 -81.5q-19 -13 -49.5 -30t-66 -28.5t-73 -13t-70.5 17.5q-12 6 -22 20t-16.5 32t-8.5 37t3 35q4 13 19 25.5t33.5 23t35.5 19t26 13.5q29 16 55.5 31.5t48.5 35t37 45
t21 61.5q5 29 2 62t-8 67t-9 66.5t-2 61.5t13 52t37 37q27 15 55 14t54.5 -10.5t48.5 -25.5t36 -32q36 -42 76.5 -59.5t88.5 -17.5v-231zM282 802q37 10 71 1t58.5 -31.5t35.5 -57t2 -74.5q-6 -27 -25 -43.5t-45 -23t-54.5 -4t-53.5 14t-43 31t-22 47.5q-3 21 1 44
t14.5 42.5t25.5 34t35 19.5z" />
    <glyph glyph-name="u0698" unicode="&#x698;" horiz-adv-x="647" arabic-form="isolated" 
d="M416 917q33 1 51 -13t22.5 -35t-2 -45t-22.5 -43.5t-39 -30t-50 -4.5q-25 5 -39 19.5t-19 33.5t-0.5 40t17 38t33 28.5t48.5 11.5zM593 722q43 -45 29.5 -78.5t-73.5 -55.5q-8 -3 -30 -7.5t-47 -9t-47 -8.5t-29 -6q-28 -6 -58 -12t-58 -9t-52.5 -1.5t-42 10.5t-26 27.5
t-3.5 49.5q5 34 29.5 54t61.5 30t82.5 12.5t92.5 2.5t91.5 -1t79.5 2zM197 -513q-13 7 -26 22t-21 30q-16 30 -13 56t18.5 49.5t39.5 45t51 43.5t53.5 44.5t45.5 47.5q37 48 46 99t4.5 100.5t-15.5 93t-15 76.5q-3 28 12 52t37.5 41t48 24.5t43.5 2.5q45 -12 74 -47
t44.5 -83.5t18.5 -106t-3.5 -115.5t-22 -112t-37.5 -95q-20 -38 -51.5 -76t-59.5 -72q-33 -42 -66.5 -73.5t-68.5 -53.5q-35 -24 -71.5 -17.5t-65.5 24.5z" />
    <glyph glyph-name="uFB8B" unicode="&#x698;" horiz-adv-x="770" arabic-form="final" 
d="M694 237q7 -3 15 -4.5t19.5 -1.5h27.5h39v-231q-35 0 -63 0.5t-60 2.5q-20 -65 -56 -128.5t-81.5 -117t-96.5 -93t-101 -57.5t-95.5 -10.5t-79.5 48.5q-34 40 -39.5 69t9 51t44.5 41t65.5 39t72 44t65.5 58q30 34 42.5 76t15.5 87t0.5 90t-4 85t2 71.5t20 49.5t48.5 19
t88 -20q25 -9 36.5 -33.5t19.5 -51.5t17 -51t29 -32zM520 1042q38 1 58.5 -15.5t26 -40.5t-2 -52.5t-25.5 -50.5t-44.5 -34.5t-58.5 -5.5q-29 6 -45.5 23t-22 38.5t-0.5 45.5t20 44t38.5 33.5t55.5 14.5zM712 793q45 -46 31.5 -81.5t-76.5 -58.5q-9 -3 -31.5 -7.5t-48 -9
t-48 -8.5t-31.5 -6q-43 -9 -90 -17.5t-84.5 -5.5t-59.5 23t-14 68q5 34 30.5 54.5t64 31t85.5 13.5t95.5 3t94.5 -1t82 2z" />
    <glyph glyph-name="u0633" unicode="&#x633;" horiz-adv-x="1790" arabic-form="isolated" 
d="M1226 13q-7 -76 -34.5 -148t-72.5 -133.5t-105.5 -110.5t-133 -80t-155.5 -41.5t-172 4.5q-69 12 -127.5 44.5t-102 83.5t-69 119.5t-28.5 152.5q-2 56 1.5 108.5t14.5 96t30.5 75.5t49.5 47q22 11 48 12t50.5 -5t46 -18.5t34.5 -29.5q18 -22 21.5 -46.5t-0.5 -50.5
t-13 -53t-16.5 -55t-10.5 -56t5 -55q8 -29 31 -49t53.5 -32.5t66 -19t70 -8t65 1.5t50.5 9q36 10 68 29t55.5 49t34.5 71.5t5 97.5q-2 18 -13.5 41t-26 47t-27 48t-16.5 46q-10 60 6 95.5t44.5 53t61.5 20.5t57 -3q25 -6 40.5 -20.5t26.5 -32t20.5 -35.5t21 -31t27 -18.5
t40.5 1.5q22 7 33.5 25.5t20.5 39.5t19.5 40.5t31.5 28.5q23 11 49.5 11t48.5 -11q14 -7 23 -22t16 -32.5t13 -35t13 -29.5t17 -16t25 5q16 10 18 35t-1.5 58.5t-8.5 71t-3 73t15 65t46 46.5q41 13 68.5 14t44.5 -7.5t26.5 -23.5t13.5 -34t5.5 -40t3.5 -41q4 -40 4 -88
t-6.5 -97.5t-20 -96.5t-36.5 -84t-56.5 -61t-79.5 -27q-42 -3 -73.5 5.5t-56 19t-43.5 19t-35 5.5q-26 -4 -38 -15t-24 -20t-32.5 -12t-62.5 9z" />
    <glyph glyph-name="uFEB2" unicode="&#x633;" horiz-adv-x="1888" arabic-form="final" 
d="M1905 0q-39 0 -72.5 7t-64.5 15t-60.5 15t-59.5 7q-14 0 -37 -7t-49 -15t-50.5 -15t-40.5 -7q-23 0 -46 7t-46.5 15.5t-45.5 15.5t-43 7q-13 0 -27.5 -5.5t-29.5 -13l-30 -15t-30 -11.5q-15 -92 -62.5 -169.5t-117.5 -134.5t-158.5 -89.5t-185.5 -34.5q-83 -2 -151.5 24
t-121.5 71.5t-91 106t-61.5 128.5t-32 138t-2 134t27.5 118.5t56 89.5q9 9 28 13t42 2t47.5 -10.5t44 -25.5t31 -42.5t9.5 -60.5q-3 -35 -10 -73t-11.5 -77.5t-4 -79.5t12.5 -78q8 -26 17 -46.5t22 -38t32 -32.5t47 -31q56 -13 107 1.5t91.5 43t67 63t33.5 61.5
q10 39 3.5 84.5t-19 93t-26 93.5t-17.5 87q-2 21 0 42t11 39t26 32t45 20q44 10 74 -3t51 -38.5t35.5 -58t28 -61.5t29 -48.5t37.5 -19.5q16 0 24 17t14 42.5t12.5 55t19 55t34 42.5t57.5 17q33 0 51.5 -17t29.5 -43t16.5 -56t11.5 -55.5t15.5 -42t28.5 -15.5q23 2 37 19.5
t24 43t19.5 55t24 54t37 41t58.5 16.5q7 0 19.5 -4t25.5 -10.5t24.5 -15t18.5 -18.5q9 -13 13.5 -31t9 -38.5t11.5 -40.5t20.5 -36.5t35 -26.5t56.5 -10v-231v0z" />
    <glyph glyph-name="uFEB3" unicode="&#x633;" horiz-adv-x="1005" arabic-form="initial" 
d="M-24 231q57 0 89 14.5t50 36.5t26.5 48t19 47.5t28 35.5t52.5 13q22 -1 41 -20t36 -45.5t32.5 -54.5t31.5 -48t33 -25.5t36 13.5q18 18 27.5 40t14.5 45t9.5 44.5t13 38.5t23.5 28.5t43 13.5t45.5 -7t28 -24.5t15.5 -34.5t9 -38q3 -17 4.5 -38t5 -39t10 -30.5t19.5 -12.5
q24 0 34 17t10.5 43.5t-5 60.5l-11 68t-7.5 65t5 52q15 48 42 74.5t56 33t55.5 -5t40.5 -39.5q12 -24 23.5 -63.5t21 -88t14.5 -102.5t3 -106t-12 -98.5t-31 -80.5q-23 -37 -59.5 -49.5t-74.5 -12.5q-44 0 -75.5 6.5t-56 14.5t-45 14.5t-42.5 6.5q-16 0 -38.5 -6.5
t-52.5 -14.5t-67.5 -14.5t-82.5 -6.5q-26 0 -48.5 9t-42.5 19.5t-38 19.5t-34 9q-18 0 -33 -9t-37.5 -19.5t-58.5 -19.5t-96 -9v231z" />
    <glyph glyph-name="uFEB4" unicode="&#x633;" horiz-adv-x="1073" arabic-form="medial" 
d="M1094 0q-75 0 -113.5 6.5t-60 14.5t-35 14.5t-36.5 6.5q-12 0 -33 -6t-47.5 -13.5t-56.5 -14.5t-58 -8q-21 -1 -41.5 5.5t-41 14.5t-40.5 15t-39 7q-22 0 -40 -7t-35.5 -15t-37 -14.5t-44.5 -5.5q-23 1 -42 7t-35.5 12.5t-31.5 11t-30 3.5q-27 -3 -42 -8.5t-33.5 -11.5
t-49 -10t-89.5 -4v231q68 0 99.5 17t43.5 43t12.5 55.5t7 55.5t27.5 43t74 17q34 0 51.5 -17t26.5 -42.5t12 -55t8 -55t15 -42.5t32 -17q11 0 18 17.5t14 44t15.5 56.5t23.5 56t38 43t58 16q31 -1 49 -19t28.5 -45t15.5 -57t10.5 -56t13.5 -42t24 -14q25 3 37 20t18.5 41
t10 52t11 52.5t22.5 42t45 21.5q34 4 49.5 -11.5t23.5 -41t15 -57t23.5 -58.5t48.5 -45t91 -18v-231v0z" />
    <glyph glyph-name="u0634" unicode="&#x634;" horiz-adv-x="1776" arabic-form="isolated" 
d="M1298 1163q38 13 67 8.5t49 -19.5t31.5 -35.5t14.5 -39.5q7 -44 -12 -79.5t-52 -58.5t-72 -31.5t-73 1.5t-55 40t-17 84q2 28 12.5 46t27 31.5t37 25.5t42.5 27zM1395 893q19 2 50 6t61.5 0.5t54.5 -19t29 -52.5q4 -38 -22.5 -61.5t-70.5 -40.5t-97.5 -30.5t-101.5 -29.5
q-18 -6 -35.5 -15.5t-35.5 -17.5t-38 -11.5t-43 1.5q-15 3 -32.5 16.5t-32 31.5t-24 37t-8.5 34q1 29 22.5 49t47 33t47.5 19t24 7q28 9 50.5 15.5t46 12t49 9t59.5 6.5zM1763 567q7 -52 9 -104t-2 -101t-14 -93.5t-26 -80.5q-12 -28 -31.5 -57.5t-44.5 -55t-55 -45
t-63 -26.5q-30 -6 -62.5 -3.5t-65 8t-65 10t-62.5 3t-56 -12.5t-46 -37q-2 -81 -30 -146.5t-74 -115.5t-106.5 -85t-128 -55.5t-138 -26.5t-136.5 1.5t-124.5 28.5t-100.5 56q-28 23 -53.5 66.5t-45 98.5t-32 116t-14.5 119.5t7.5 108.5t33.5 83t64 43.5t99 -11.5
q32 -12 45.5 -37.5t16.5 -59t0 -72t-4.5 -78t3 -76t23.5 -65.5t56 -47.5t101 -21.5q58 -4 111 15.5t91.5 57.5t58.5 92t13 119q-3 32 -15 57.5t-25 48t-22 43.5t-6 45q4 39 27.5 69.5t57.5 47.5t74 18.5t76 -16.5q22 -11 31.5 -26.5t13 -33t3.5 -35t3.5 -31.5t12.5 -22.5
t31 -8.5q36 0 52 17.5t26.5 41t23 46t41.5 31.5t48 1.5t31 -24.5t21 -38.5t19 -40t23.5 -29t35.5 -5.5q23 5 31.5 22.5t8 43t-7 56.5t-13.5 62.5t-12 61t-2 52.5q11 33 45 55t75 28t80 -5.5t60 -44.5z" />
    <glyph glyph-name="uFEB6" unicode="&#x634;" horiz-adv-x="1750" arabic-form="final" 
d="M1143 1037q57 16 96.5 3.5t61 -40.5t26 -64t-9 -67t-44.5 -50.5t-79 -12.5q-21 3 -41.5 17t-36 34t-24.5 45t-8 49.5t15 47t44 38.5zM1475 732q9 -50 1 -82.5t-28.5 -53.5t-52 -32t-69 -17t-80 -8.5t-84.5 -6.5q-18 -2 -38 -7.5t-41 -10.5t-42.5 -6.5t-41.5 4.5
q-36 11 -55 45t-19.5 73t18 74t56.5 48q7 3 18 2t24.5 -2.5t27.5 -2t28 2.5q22 4 62.5 11t86.5 13t90.5 8.5t73.5 -2.5q18 0 38.5 -10t26.5 -40zM1785 0q-65 0 -107 2.5t-69.5 6.5t-44 8.5t-30.5 9.5t-29.5 9.5t-39.5 7.5q-13 2 -36.5 -4.5t-49.5 -15.5t-50.5 -16.5
t-39.5 -7.5q-42 0 -67.5 7t-44.5 15t-34 15t-36 7q-13 0 -27.5 -5.5t-29.5 -12.5t-30 -14.5t-29 -11.5q-16 -92 -63.5 -169.5t-117 -134.5t-157.5 -89.5t-186 -34.5q-83 -2 -151.5 24t-121.5 71.5t-91 106t-61.5 128.5t-32 138t-2 134t27.5 118.5t56 89.5q13 13 38.5 14.5
t53.5 -4.5t53.5 -18t37.5 -25q17 -18 19 -45.5t-1 -45.5q-5 -35 -12 -73t-11.5 -77.5t-3 -79.5t13.5 -78q9 -27 17.5 -47.5t21.5 -37.5t31.5 -32t47.5 -32q27 -16 59 -14.5t63.5 14.5t61 34.5t54 46t40.5 48t21 41.5q10 39 4 84.5t-18.5 93t-26 93.5t-17.5 87q-2 21 0 44.5
t10.5 43t25.5 32.5t46 13q39 0 67 -17t48.5 -42.5t36.5 -55t31.5 -55t32 -42.5t39.5 -17q16 0 24 17t14 42.5t12.5 55t19 55t34 42.5t57.5 17q32 0 51 -17t29.5 -43t16.5 -56t12 -55.5t15.5 -42t28.5 -15.5q24 1 39 18.5t27 43t23 54.5t27.5 54.5t40 42t60.5 16.5q7 0 19 -4
t25 -10.5t25 -15t19 -18.5q9 -13 11 -31t4.5 -38.5t9.5 -40.5t25 -36.5t51.5 -26.5t89.5 -10v-231z" />
    <glyph glyph-name="uFEB7" unicode="&#x634;" horiz-adv-x="903" arabic-form="initial" 
d="M-19 231q52 0 76.5 14t34.5 34.5t12 45t9 45.5t25.5 35.5t61.5 15.5q21 0 35 -13.5t24 -33.5t16 -43.5t12 -44.5t13 -35.5t17 -16.5q33 -6 46 6.5t17 35t4 51.5t6.5 56.5t25 49t59.5 29.5q28 6 46.5 -8t30.5 -38.5t19.5 -55.5t14 -58t13.5 -46.5t18 -21.5q25 -5 36.5 12
t14.5 47t0.5 68.5t-6 76.5t-5.5 70.5t3 51.5q5 18 18.5 36.5t33 33t42.5 22.5t47 5q31 -5 50.5 -38.5t30 -83t13.5 -109t0 -117t-11 -107.5t-18 -79t-25.5 -51.5t-34.5 -38.5t-40 -24.5t-41 -8.5q-43 0 -69.5 3.5t-43 8.5t-26 10.5t-19 10.5t-22 8.5t-33.5 3.5
q-30 0 -48.5 -7t-36.5 -15.5t-41 -15.5t-62 -7q-35 0 -58.5 7t-40.5 16t-31 16t-30 7q-13 0 -23.5 -7t-28.5 -16t-48.5 -16t-82.5 -7v231zM446 1237q46 1 70 -18t30.5 -48t-2.5 -61.5t-30.5 -59t-53 -41t-68.5 -6.5q-34 7 -53.5 27t-26 45.5t0 53.5t23.5 51.5t45 39.5t65 17
zM707 956q54 -57 37 -100t-92 -72q-11 -4 -38.5 -9.5t-59 -11.5t-59.5 -10.5t-38 -6.5q-35 -7 -73 -14.5t-74 -12t-67.5 -2.5t-54 13.5t-33 35t-4.5 63.5q6 42 37.5 67t78.5 38t105.5 17t118.5 4t116 -1t100 2z" />
    <glyph glyph-name="uFEB8" unicode="&#x634;" horiz-adv-x="1119" arabic-form="medial" 
d="M923 462q33 0 49 -17t25 -43t16 -55.5t21 -55.5t40 -43t74 -17v-231q-36 0 -68.5 5.5t-63 13t-60.5 15.5t-61 12q-17 2 -36 -5t-38 -16t-38 -16.5t-37 -7.5q-15 0 -32 8t-35 17.5t-36.5 18t-35.5 9.5q-22 1 -44 -7t-45.5 -18.5t-47.5 -19t-50 -8.5q-17 0 -35.5 8
t-38 17.5t-38.5 17.5t-36 8q-15 0 -47 -8t-72.5 -18t-85.5 -18t-86 -8v231q62 0 102.5 17.5t66.5 43t42.5 55t31.5 55t32.5 42.5t46.5 18q33 0 52.5 -17t30.5 -42.5t17 -55t11 -55t12.5 -42.5t22.5 -17q14 0 20.5 17t12 42.5t12.5 55t22.5 55t42 42.5t71.5 17q33 0 48.5 -17
t21.5 -42t5.5 -54.5t-0.5 -54.5t5 -42t22 -17q23 0 35.5 17t20 42t14.5 54.5t20.5 54.5t37 42t63.5 17zM336 795q22 11 46 14.5t51 3t57 -3t63 -3.5q48 -3 98.5 -1t99 3.5t92 -0.5t77.5 -13q3 -30 9 -56t7.5 -49.5t-6 -45.5t-31.5 -44q-17 -15 -50 -19.5t-75 -4.5t-91 0.5
t-98 -4.5q-27 -3 -58.5 -5.5t-64.5 -3t-64 0.5t-55.5 5t-41 11.5t-19.5 19.5q-8 26 -5.5 50.5t11.5 48.5t22 48zM704 1087q35 -60 30.5 -107.5t-30.5 -80t-66 -47t-76.5 -8t-62 36.5t-22.5 87q1 37 20.5 68t51 49.5t72 20.5t83.5 -19z" />
    <glyph glyph-name="u0635" unicode="&#x635;" horiz-adv-x="1884" arabic-form="isolated" 
d="M1719 682q42 -12 73.5 -38t52 -63t29 -82.5t5.5 -95.5q-1 -15 -3 -35t-11.5 -44t-29 -52t-56.5 -59t-93.5 -65.5t-139.5 -71.5q-28 -12 -73.5 -24.5t-95.5 -24.5t-97.5 -21.5t-79.5 -15.5q-6 -87 -28.5 -153.5t-60 -116t-88.5 -83.5t-115 -56q-54 -19 -112 -26t-116 -4
t-113.5 16.5t-103 35t-84.5 52t-59 67.5q-19 33 -32 80.5t-19 100t-4 106t13.5 97.5t33.5 74.5t56 37.5q32 6 65.5 -13t53.5 -52q9 -14 7.5 -39.5t-5 -58t-6 -69t4.5 -72.5t27 -69t61 -58q38 -23 84 -37t92 -16t88 10.5t72 43t44.5 80t5.5 122.5q-6 44 -21.5 85.5t-31.5 78
t-26.5 66.5t-6.5 51q6 33 26 51t47 23.5t57.5 -1t57.5 -23t47 -41.5t26 -57q26 60 55 123.5t65 122.5t80.5 108.5t100.5 81t125.5 39.5t155.5 -16zM1615 339q8 18 10.5 41.5t-10.5 39.5q-17 21 -41.5 24t-52.5 -8.5t-56.5 -34t-53.5 -51.5t-44.5 -62t-28.5 -65q46 6 89 12.5
t79.5 18.5t64.5 32t44 53z" />
    <glyph glyph-name="uFEBA" unicode="&#x635;" horiz-adv-x="1963" arabic-form="final" 
d="M1698 684q66 -9 106.5 -35.5t61 -63t25.5 -79t1 -84t-13.5 -78t-17.5 -60.5q-5 -13 4.5 -23t28 -16.5t43.5 -10t51 -3.5v-231q-72 0 -115 10t-72 22.5t-51.5 23t-54.5 11.5q-27 1 -54 -7t-56.5 -18.5t-62.5 -21.5t-71 -15.5t-82 -0.5t-95 23l-11 -61q-5 -26 -9.5 -52.5
t-9.5 -43.5q-18 -66 -65 -127.5t-114 -109t-149 -78t-170 -35.5t-177.5 19t-170.5 85q-37 25 -64 71t-44 103.5t-23.5 121t-3 122.5t18 108.5t40.5 80.5q13 15 43.5 17t62.5 -9t58.5 -35t30.5 -60q4 -39 1.5 -87t-1.5 -94t9 -85t34 -61q33 -29 85 -43t108.5 -12t111.5 19.5
t94 51.5t56 84t-1 117q-11 40 -32 82t-41.5 83.5t-36.5 80.5t-17.5 72.5t15.5 60t63 42.5q35 12 62 -4.5t48 -47t36.5 -67.5t25.5 -64.5t16 -39t9 8.5q6 37 22 84.5t44.5 97t70.5 97t99.5 84.5t132 59t167.5 21zM1389 231q29 2 64 8.5t68.5 17t63 25t47.5 31t22 36t-13 40.5
q-21 26 -45.5 30.5t-49 -5t-49 -31t-45.5 -48t-37.5 -54t-25.5 -50.5z" />
    <glyph glyph-name="uFEBB" unicode="&#x635;" horiz-adv-x="1143" arabic-form="initial" 
d="M1016 549q46 -20 74.5 -52.5t41 -71.5t11 -81.5t-16 -84t-40 -78.5t-60.5 -64q-34 -26 -82 -45t-105 -32t-119 -21t-124 -12t-122 -5.5t-111 -1.5q-24 0 -43.5 6.5t-37.5 15.5t-36.5 17.5t-40.5 12.5q-17 3 -29.5 0.5t-24.5 -8.5t-26 -13.5t-34 -14.5t-48.5 -11.5
t-69.5 -4.5v231q38 0 60 7.5t33 21t15 30.5t5.5 36.5t4.5 40t14 39.5q7 13 26 25t42.5 18.5t47.5 4.5t41 -17q13 -12 18 -29.5t6 -36.5t0.5 -38.5t3.5 -34.5t13.5 -23.5t30.5 -6.5q43 40 88.5 86t95.5 89t104.5 78t116 53t130.5 14t147 -39zM647 232q28 0 60 1.5t62 5.5
t55 10.5t41 17.5t19.5 26.5t-10.5 36.5q-18 28 -51 29.5t-68.5 -15.5t-65.5 -47t-42 -65z" />
    <glyph glyph-name="uFEBC" unicode="&#x635;" horiz-adv-x="1234" arabic-form="medial" 
d="M1151 297q1 -11 7 -22.5t18 -21.5t31.5 -16t47.5 -6l-1 -232q-26 0 -63 2t-75.5 11t-73.5 27.5t-56 51.5q-61 -52 -169 -71.5t-257 -15.5q-76 2 -120 8.5t-73 16t-51.5 21t-55.5 23.5q-18 6 -40 -5t-54 -26t-78.5 -29t-115.5 -14v232q35 0 68 3t65 12q24 7 31.5 25
t9.5 40.5t2.5 48t10.5 47t34 36.5t73 18q29 2 45 -14t23.5 -41.5t9.5 -56t4.5 -56.5t7.5 -43.5t18 -17.5q3 0 6.5 -0.5t7.5 5.5q79 130 169.5 223.5t182.5 142.5t180.5 48t162.5 -61q40 -30 55 -71.5t17 -84t-2 -79.5t-2 -58zM675 232q55 0 106.5 13.5t88.5 34t53 45t0 47.5
q-18 25 -42 32.5t-49.5 2.5t-51.5 -21t-47.5 -40t-37 -53.5t-20.5 -60.5z" />
    <glyph glyph-name="u0636" unicode="&#x636;" horiz-adv-x="1777" arabic-form="isolated" 
d="M1536 1040q20 -3 33.5 -21.5t19.5 -45.5t4 -58t-14 -58q-20 -50 -45.5 -67t-50.5 -10.5t-47.5 31.5t-36 57t-16 67t12 61.5t48 40t92.5 3.5zM1764 496q10 -34 7.5 -69t-11.5 -67.5t-23 -61.5t-27 -51q-22 -39 -61 -74t-89 -64.5t-108 -52t-118 -37t-119.5 -20
t-111.5 -0.5q-23 -54 -39 -102.5t-37.5 -91t-53.5 -78.5t-86 -64q-18 -9 -43 -19.5t-50.5 -19.5t-49.5 -16t-41 -10q-87 -13 -173.5 0t-159 47t-125 85.5t-72.5 116.5q-12 39 -11.5 93t11.5 111.5t30.5 111.5t44.5 93.5t54.5 58t61.5 3.5q38 -18 55 -40t21 -50t-2.5 -63
t-16.5 -79q-5 -22 -11 -40t-10 -35t-4.5 -35.5t4.5 -40.5q8 -35 38.5 -57.5t73.5 -33.5t93 -11.5t96.5 9t84.5 27.5t57 44q19 27 27.5 61t10 69.5t-0.5 69t-4 59.5q-2 27 -11 51t-14 47t-1.5 46.5t26.5 49.5q25 28 55.5 32.5t57.5 -13t46 -55.5t21 -95q30 86 67 147
t80 104.5t91.5 74t101.5 55.5q56 26 116 26t112 -19t90 -53t50 -74zM1312 235q47 -1 95.5 15t84 41.5t51 56.5t-3.5 60q-17 25 -39.5 28t-47 -8t-49 -34t-44 -50.5t-32.5 -56t-15 -52.5z" />
    <glyph glyph-name="uFEBE" unicode="&#x636;" horiz-adv-x="1963" arabic-form="final" 
d="M1600 898q0 -50 -26 -80.5t-61.5 -38t-71.5 10t-57 65.5q-11 60 0.5 96.5t35.5 54t55.5 16.5t59 -16.5t46.5 -43t19 -64.5zM1677 660q73 -5 120.5 -44t66.5 -97.5t8.5 -127.5t-53.5 -134q15 -9 34.5 -14.5t42 -8t46.5 -3t47 -0.5v-231q-56 0 -103.5 7.5t-86.5 16.5
t-69.5 17.5t-52.5 10.5q-57 3 -117 -10t-122.5 -25.5t-127 -18t-131.5 12.5q-15 -40 -27 -81t-25.5 -81t-31 -79t-44.5 -75q-18 -24 -50.5 -45.5t-72.5 -40.5t-84.5 -35t-85.5 -29q-39 -13 -88 -21t-100 -6.5t-100.5 15t-89.5 44.5q-20 15 -39.5 29t-39 31t-38 39t-35.5 52
q-28 52 -40 121t-8 139.5t24 133.5t57 103q19 15 44.5 18.5t50.5 -1.5t46 -16t32 -23q14 -20 18 -48.5t3 -61.5t-4 -68.5t-2.5 -69.5t6.5 -65t23 -54q16 -23 42 -37.5t56.5 -22t61.5 -9t56 2.5q32 5 67 27.5t65.5 53t53.5 64.5t30 61q8 29 5 62t-12 68t-20.5 71t-20 72
t-11 70.5t6.5 66.5q3 12 16.5 25.5t32.5 23t41 12.5t43 -5q20 -8 38 -38t33.5 -65t27.5 -66.5t20 -40.5q20 36 48.5 83.5t66 97t84 96.5t103 82.5t122.5 55t143 13.5zM1325 231q54 1 113.5 4.5t106 15t71.5 34t11 60.5q-13 36 -37 47.5t-53 6t-61 -24t-61 -43t-53 -51.5
t-37 -49z" />
    <glyph glyph-name="uFEBF" unicode="&#x636;" horiz-adv-x="1158" arabic-form="initial" 
d="M1013 879q-19 -43 -50 -61t-66 -17.5t-69 18t-59 46t-36.5 65.5t-0.5 78q9 33 31.5 56t51.5 35t61.5 13.5t62 -8.5t52.5 -31.5t33 -53.5q6 -20 8.5 -36.5t1 -32.5t-6.5 -33t-14 -38zM965 628q27 -5 58.5 -21.5t59.5 -40.5t49 -52.5t28 -58.5q14 -62 -5 -122t-56 -111.5
t-85 -92t-92 -63.5q-50 -26 -113.5 -41.5t-132 -21t-138.5 -1.5t-133 16t-115.5 32.5t-85.5 47.5q-3 -6 -20.5 -22t-46.5 -33t-68.5 -30t-85.5 -13v231q32 0 63 1.5t53 20.5q14 14 15 31.5t-2 36t-6 38t2.5 36.5t24 31t59.5 23q40 9 58 -3.5t24.5 -36.5t6.5 -55t2.5 -58
t13.5 -45.5t40 -18.5q22 30 51 68.5t62 78t70.5 77t76.5 64.5q34 23 77 46t91 40t99 24t101 -2zM585 232q32 -3 70.5 -3t75.5 4t68 12t49 21.5t19 33t-23 45.5q-21 23 -46 28t-50.5 -2t-50.5 -23.5t-47 -36.5t-39 -41.5t-26 -37.5z" />
    <glyph glyph-name="uFEC0" unicode="&#x636;" horiz-adv-x="1172" arabic-form="medial" 
d="M851 797q-25 -37 -68.5 -48.5t-88 -3t-80 34t-44.5 61.5q-6 24 -3.5 54t14 59t31.5 54.5t48.5 41t65.5 19t82 -11.5q24 -29 41.5 -61.5t25 -66.5t2.5 -67.5t-26 -64.5zM1099 326q-6 -32 -3.5 -50.5t14 -29t30.5 -13.5t46 -3v-230q-65 0 -105 8.5t-64.5 25t-37.5 41.5
t-23 57q-29 -26 -72 -49t-95 -41t-110.5 -31t-117.5 -17.5t-116.5 0t-107.5 19.5q-18 5 -37.5 18.5t-38.5 28t-36 26.5t-29 13q-11 0 -21.5 -15.5t-32.5 -34t-60 -34t-103 -15.5v230q35 0 57 5t35.5 12.5t20.5 17t12 18.5q7 15 7 34t-0.5 38t2 37t14 33t35.5 24.5t67 11.5
q25 0 37 -17t18.5 -43t10.5 -56t12 -55.5t24 -42t47 -15.5q26 46 59.5 99t75 104.5t90 96.5t104.5 74t118.5 37t132.5 -14q39 -12 70.5 -36t51.5 -61t26 -88.5t-7 -117.5zM532 232q73 -6 140.5 1t115 25.5t67.5 47t-2 65.5q-19 32 -46.5 40t-59 0t-64.5 -29t-62 -47
t-52.5 -53.5t-36.5 -49.5z" />
    <glyph glyph-name="u0637" unicode="&#x637;" horiz-adv-x="1093" arabic-form="isolated" 
d="M437 411q19 32 54 67t81 65.5t99.5 54t109 32t110.5 -1t103 -43.5q41 -30 63.5 -71.5t27.5 -88.5t-7.5 -96.5t-42 -94.5t-75.5 -83t-107 -62q-80 -31 -156.5 -48.5t-153 -26.5t-155.5 -11t-163 -2q-32 0 -72 7t-75 23.5t-57.5 43.5t-19.5 68q3 34 25 53.5t55.5 28.5
t75 9.5t82.5 -3.5q-13 111 -23.5 227t-15.5 230t-2 221.5t17 201.5q4 26 22 41t42.5 20t51.5 1.5t48.5 -14.5t33.5 -28t7 -39q1 -90 1.5 -172t2 -164t4.5 -166.5t9 -178.5zM600 237q29 -2 63 2.5t67.5 14.5t62.5 24t48.5 31t25 36.5t-8.5 39.5q-17 24 -41 29.5t-50.5 -2.5
t-54 -27.5t-50.5 -44t-39.5 -51.5t-22.5 -52z" />
    <glyph glyph-name="uFEC2" unicode="&#x637;" horiz-adv-x="1214" arabic-form="final" 
d="M1238 0q-79 0 -122.5 8t-68.5 17.5t-41.5 17.5t-41.5 8q-17 0 -41.5 -5t-50.5 -11t-51 -11.5t-43 -7.5q-60 -5 -136.5 -8t-157 -5t-158.5 -2.5t-140.5 -0.5h-104h-48.5q-14 0 -22.5 26.5t-7 62t16.5 71t49 54.5q10 5 33 9t49 6t50 3t35 0q6 37 11 74.5t9 78.5t6 88.5
t2 104.5q0 69 -4 142t-7.5 143.5t-4.5 134t5 113.5q3 23 18 41t37 29t47 15t48.5 0t42 -17t26.5 -36q15 -89 20.5 -187t3 -196t-10.5 -191.5t-20 -171.5q24 36 63 68.5t88.5 58.5t105.5 43t114.5 21.5t115.5 -5t108 -37.5q34 -19 58 -50.5t33 -70.5t1 -83.5t-38 -90.5
q35 -12 67 -16t57 -4v-231zM597 224q30 0 68.5 3.5t78 11.5t75.5 19.5t59.5 27t30.5 35.5t-10 44t-44 32.5t-57.5 4t-63 -20t-60 -39.5t-48.5 -54t-29 -64z" />
    <glyph glyph-name="uFEC3" unicode="&#x637;" horiz-adv-x="1019" arabic-form="initial" 
d="M1001 444q28 -77 20 -137.5t-43 -106.5t-93 -79.5t-129.5 -56t-152 -36t-161.5 -21t-157.5 -9.5t-140 -1.5t-109 2t-64.5 1.5v231q87 0 134 38.5t66 101t16 142t-15 160.5q-21 141 -18 236t21.5 153t48 83t60 25t58.5 -20.5t44 -53.5q9 -20 13.5 -70.5t5 -116.5t-2 -141
t-7 -143.5t-10.5 -123.5t-12 -82q25 33 71.5 66.5t104 59t121.5 38.5t125 4.5t115 -42t91 -101.5zM487 237q34 -2 72 -1.5t74.5 5t67 13.5t50 23t23.5 34t-13 47q-16 25 -41 32.5t-53.5 2.5t-58.5 -20.5t-55 -37t-43 -47.5t-23 -51z" />
    <glyph glyph-name="uFEC4" unicode="&#x637;" horiz-adv-x="1083" arabic-form="medial" 
d="M971 263q14 -15 53.5 -23.5t85.5 -8.5v-231q-54 0 -90.5 8t-62.5 18.5t-44.5 20t-35.5 13.5q-21 4 -38 2t-38 -8.5t-50.5 -15t-75 -16.5t-111 -14.5t-159.5 -7.5q-109 -2 -221 -1t-212 1v231q31 0 72.5 3.5t92.5 17.5q0 56 -4.5 123t-10 138.5t-12 146t-10 146t-3 137
t7.5 120.5q1 14 6.5 32t14 35t19.5 31.5t24 21.5q25 13 54 11t54 -12t43 -25t22 -28q10 -33 16 -81.5t8.5 -106.5t3 -122.5t-0.5 -129.5t-2.5 -127.5t-2.5 -116.5q38 23 67.5 42t56.5 34t55 27.5t63 22.5q107 31 183.5 32t126.5 -19.5t76 -58t31 -82t-9 -92t-43 -88.5z
M476 233q46 -3 91 -1t81 13t57.5 31.5t20.5 55.5t-16.5 50.5t-39.5 15t-52.5 -14t-56 -36t-50.5 -52.5t-35 -62z" />
    <glyph glyph-name="u0638" unicode="&#x638;" horiz-adv-x="1329" arabic-form="isolated" 
d="M998 1049q37 10 71 1t58.5 -31.5t35.5 -57t2 -74.5q-6 -27 -25 -43.5t-45 -23.5t-54.5 -4.5t-53.5 14t-43 31t-22 47.5q-3 22 1 45t14 42.5t25.5 34t35.5 19.5zM678 429q12 14 27.5 36t32.5 44.5t33.5 42t30.5 28.5q29 19 60.5 37.5t66.5 32.5t73.5 22t80.5 5t78 -10
t73 -33q41 -30 64 -75t27.5 -97t-8 -107t-42 -105t-75.5 -91.5t-107 -65.5q-29 -12 -68.5 -25.5t-82.5 -25.5t-85.5 -21.5t-76.5 -13.5q-36 -5 -76 -6t-81.5 -0.5t-81.5 2t-76 1.5q-30 0 -49 1t-36.5 4.5t-37 9t-49.5 14.5q-22 14 -38 26t-26 24.5t-14.5 28t-3.5 35.5
q3 34 30 54t66 29.5t85 10t87 -3.5q-13 111 -23.5 227t-15.5 229t-2 220.5t17 201.5q3 19 14.5 31t27.5 19t34 10t33 5q27 3 44.5 -7t28.5 -25t16 -30t7 -22q1 -90 1.5 -170t1.5 -159.5t4.5 -161.5t10.5 -176zM841 237q29 -2 63 2.5t67 14.5t62.5 24t48.5 31t24.5 36.5
t-8.5 39.5q-17 24 -41 29.5t-51 -2.5t-53.5 -27t-49.5 -43.5t-39.5 -52t-22.5 -52.5z" />
    <glyph glyph-name="uFEC6" unicode="&#x638;" horiz-adv-x="1409" arabic-form="final" 
d="M1010 1055q35 7 64.5 -7t50 -40.5t30.5 -60.5t7 -66.5t-21.5 -58.5t-54.5 -37q-46 -14 -81.5 -1.5t-58 39.5t-32 64t-2.5 71.5t31 61.5t67 35zM1257 263q29 -32 177 -32v-231q-62 0 -101.5 2.5t-64.5 7t-38.5 10t-23.5 12.5t-19 14t-25 14q-20 8 -37 7t-38 -7.5t-50 -16
t-74.5 -19t-111.5 -16.5t-160 -8q-54 -1 -114 -2t-120 -1t-118 0.5t-108 2.5q-9 13 -16 38t-10 53t-0.5 54.5t12.5 42.5q12 18 33 28t48 14t59 3.5t65 -2.5q0 56 -4.5 124.5t-10 143t-12 151.5t-10 151t-3 141t7.5 122q2 14 7.5 31.5t13.5 35t19 31.5t25 21q25 13 53.5 11.5
t54 -11.5t43.5 -25.5t22 -28.5q10 -32 15.5 -80.5t8 -106.5t3 -122.5t-0.5 -129.5t-2.5 -127.5t-2.5 -116.5q38 23 70 40t62.5 30.5t61 24.5t65.5 21q107 30 182 31t123.5 -18.5t72.5 -55.5t27 -79t-12 -89.5t-44 -87.5zM801 233q46 -3 91.5 -0.5t81 13.5t57 31.5t20.5 54.5
q-1 35 -16.5 50t-39 15t-52.5 -13.5t-56.5 -36t-50.5 -52t-35 -62.5z" />
    <glyph glyph-name="uFEC7" unicode="&#x638;" horiz-adv-x="1019" arabic-form="initial" 
d="M742 1028q45 1 69.5 -18t30.5 -47.5t-3 -61.5t-30 -59t-52.5 -40.5t-68.5 -6.5q-34 7 -53.5 26.5t-26 45.5t-0.5 53.5t23.5 51.5t45.5 39.5t65 16.5zM956 540q41 -45 53 -94.5t2 -98.5t-39 -95t-69 -85t-88 -68t-96 -44q-82 -26 -173.5 -38t-187.5 -16t-195 -3t-196 1
v233q34 0 56.5 0.5t38 3.5t26.5 9.5t23 18.5q7 87 1.5 178.5t-13 191t-10 209t10.5 231.5q6 58 33.5 94t85.5 47q29 5 56 2.5t48.5 -13.5t36 -30.5t18.5 -48.5q2 -22 -4.5 -60.5t-14.5 -77.5q-14 -67 -19 -143t-7 -150.5t-3.5 -142t-8.5 -116.5q27 35 76.5 65t110.5 52.5
t128 35t128.5 12.5t112 -14t79.5 -46zM449 243q32 -3 70 2.5t75 16.5t68.5 26.5t51.5 33t24 36t-15 35.5q-25 23 -55 28t-60.5 -3.5t-58.5 -27.5t-50 -43t-35.5 -51.5t-14.5 -52.5z" />
    <glyph glyph-name="uFEC8" unicode="&#x638;" horiz-adv-x="1024" arabic-form="medial" 
d="M710 1003q19 -8 35.5 -27.5t25.5 -44.5t8 -53.5t-18 -53.5q-12 -18 -38.5 -28t-56 -10.5t-55.5 9t-37 29.5q-20 36 -16.5 75t24.5 67.5t54.5 41t73.5 -4.5zM914 263q26 -20 60 -26t86 -6v-231q-50 0 -84.5 5.5t-61 14.5t-48.5 19.5t-47 20.5q-20 8 -37 7t-38 -7.5
t-50 -16t-75 -19t-112 -16.5t-160 -8q-54 -1 -99.5 -1h-88.5t-87 0.5t-95 0.5v231q20 0 41 3q18 2 40 7.5t44 16.5q0 56 -3 122.5t-8 137.5t-9.5 144.5t-8.5 144.5t-5 136t2 120q3 57 28 92.5t57 45.5t63 -7t46 -65q10 -32 17 -85t11.5 -117.5t6.5 -136.5t1.5 -143.5
t-4 -138t-9.5 -119.5q30 67 82.5 115t116 77.5t132.5 40t131 3t112.5 -34.5t77 -72t23 -109t-47.5 -146zM418 233q46 -3 91.5 -1t81 13t57 31.5t20.5 55.5t-16.5 50.5t-39 15t-52.5 -14t-56.5 -36t-50.5 -52.5t-35 -62z" />
    <glyph glyph-name="u0639" unicode="&#x639;" horiz-adv-x="951" arabic-form="isolated" 
d="M711 739q20 -75 5 -126.5t-70 -68.5q-21 -6 -48.5 -3.5t-56 7t-56.5 7t-49.5 -4t-35 -25.5t-13.5 -58q28 -31 63.5 -40t73.5 -6.5t76 11.5t70.5 13.5t57 0t35.5 -28.5q26 -55 27 -92t-14 -61.5t-43 -39t-60.5 -23t-66.5 -14t-60 -12.5q-29 -8 -64.5 -19t-69.5 -27.5
t-64.5 -39.5t-50.5 -55t-26 -75t8 -98q9 -39 41 -70t78 -51t102 -28.5t114 -2.5q23 2 48 11t49.5 19t47 17.5t42 6.5t35 -13t24.5 -42q22 -57 12 -98.5t-43.5 -69.5t-85 -44t-112.5 -22t-127 -3.5t-128 11.5q-44 6 -93.5 28t-95.5 53.5t-82 69.5t-53 77q-30 68 -41.5 136
t0.5 136.5t48.5 138t101.5 140.5q-56 99 -59.5 186.5t30.5 156t98 116t144 67.5t167.5 9.5t169.5 -57.5z" />
    <glyph glyph-name="uFECA" unicode="&#x639;" horiz-adv-x="810" arabic-form="final" 
d="M731 551q8 -38 -4 -65t-34 -48.5t-49 -40t-49 -40.5q18 -36 46 -60.5t60.5 -39t67.5 -20.5t67 -6v-231q-58 0 -106.5 12.5t-87.5 33t-69.5 45t-52.5 48.5t-36 44.5t-21 32.5q-43 -14 -78.5 -49t-59 -80t-33.5 -94.5t-1.5 -94t38 -78.5t83.5 -47q32 -8 57 -10.5t49 -1
t51.5 6t64.5 10.5q55 9 87 13.5t51 -1.5t30.5 -24t25.5 -54q11 -48 12 -80t-6.5 -52.5t-21.5 -32t-32.5 -18t-40 -10.5t-43.5 -9q-27 -6 -49 -9t-43 -5t-42 -3t-46 -3q-164 -13 -285 36.5t-181 160.5q-37 67 -44 134.5t7.5 133t45.5 126t71 112.5t84.5 94t84.5 70
q-11 14 -37 41t-50 62t-36 76t5 82q14 33 58 50t103 21t124.5 -4t122 -26.5t96 -46t46.5 -61.5z" />
    <glyph glyph-name="uFECB" unicode="&#x639;" horiz-adv-x="728" arabic-form="initial" 
d="M-17 231q24 0 46 5q17 5 31.5 14t13.5 28q-1 27 -6 53.5t-9.5 50.5t-7 46.5t1.5 42.5q11 59 46.5 111t89 88t121.5 52.5t144 4.5q25 -4 56.5 -16.5t59 -31t46 -43.5t17.5 -54q-1 -45 -24 -62t-57.5 -20.5t-75.5 0.5t-78 2t-64.5 -18t-35.5 -58q-12 -63 5 -92.5
t52.5 -39.5t83 -6t97.5 8.5t96.5 4t78.5 -19.5q7 -5 11 -13t5 -18t0 -20t-4 -19q-5 -14 -15.5 -25t-41.5 -27q-41 -23 -96.5 -43.5t-118 -38.5t-128.5 -32t-128.5 -24t-117 -15.5t-94.5 -5.5v231v0z" />
    <glyph glyph-name="uFECC" unicode="&#x639;" horiz-adv-x="624" arabic-form="medial" 
d="M-16 231q65 0 94.5 14t36.5 37t-2.5 52.5t-22 61t-21.5 62.5t-1 57q7 24 33.5 43.5t64 34t83 24t90 13t84.5 2t68 -8.5q47 -13 71.5 -34t32 -48t1.5 -59t-19 -67.5t-30 -73t-31 -74.5q8 -21 45 -28.5t83 -7.5v-231q-73 0 -124.5 8.5t-87.5 21t-58 27t-34.5 26.5t-19 19
t-10.5 5q-18 -10 -50 -28t-75 -35.5t-94 -30.5t-107 -13v231v0z" />
    <glyph glyph-name="u063A" unicode="&#x63a;" horiz-adv-x="920" arabic-form="isolated" 
d="M646 1239q24 -29 41.5 -61.5t25 -66t3 -67.5t-25.5 -65q-17 -25 -43 -38t-55 -16.5t-59 2.5t-55.5 19t-44 32.5t-24.5 43.5q-7 25 -4.5 55t14 59t31.5 54.5t48.5 41t65.5 19t82 -11.5zM841 731q2 -29 2 -50.5t-4.5 -37.5t-14 -28.5t-26.5 -22.5q-21 -9 -49.5 -8t-59.5 4
t-61.5 3.5t-54.5 -8.5t-39.5 -32t-16.5 -68q0 -39 14.5 -55.5t38.5 -19.5t54.5 4t61.5 15.5t60.5 14.5t51.5 2q27 -6 48 -11.5t36 -15t23.5 -25.5t11.5 -44q4 -38 -13 -63t-47.5 -41.5t-70.5 -26.5t-82.5 -18.5t-83 -17.5t-71.5 -23q-37 -16 -68.5 -46.5t-53.5 -68.5
t-33 -80.5t-7 -83t24.5 -75.5t61.5 -57q42 -21 99.5 -28.5t117.5 -3.5q33 2 68.5 11.5t71 20.5t68 19.5t60 7.5t48 -14t30.5 -45q18 -61 -0.5 -102.5t-60 -67.5t-100 -39.5t-121.5 -17.5q-71 -5 -142 3t-137 29t-123.5 54.5t-100 81t-67 108t-24.5 134.5q0 206 151 357
q-8 23 -18 40t-19.5 32t-17 31.5t-10.5 37.5q-11 77 11 146t66.5 122.5t107 89t132.5 47t142 -4.5t136 -65z" />
    <glyph glyph-name="uFECE" unicode="&#x63a;" horiz-adv-x="1061" arabic-form="final" 
d="M679 1068q35 -39 41 -94.5t-9 -121.5q-17 -26 -51.5 -39.5t-72.5 -13.5t-72.5 13.5t-51.5 39.5q-5 18 -11 39.5t-9 44t-1.5 45.5t10.5 44q10 22 38 41.5t62.5 28.5t69 4t57.5 -31zM1085 0q-99 0 -169.5 19.5t-122 47.5t-88.5 58t-70 51q-42 -18 -79 -50.5t-63 -73
t-38 -87t-4 -92.5q8 -45 38 -74.5t74 -46.5t98.5 -24t111.5 -7.5t112.5 3t102.5 7.5q19 -17 33 -33t21 -33.5t7.5 -37.5t-6.5 -46q-14 -44 -57.5 -69.5t-101.5 -38.5t-121.5 -14.5t-116.5 3.5q-55 6 -109 24t-102.5 43.5t-89 56t-67.5 60.5q-12 13 -29 49t-32 84t-23 101.5
t-2 101.5q6 54 29 106.5t57.5 100t76 88.5t85.5 72q-13 28 -26 52.5t-23 48t-14.5 47t-0.5 48.5q5 34 28.5 54t58.5 29.5t78.5 9.5t88.5 -7.5t88.5 -21t78.5 -31t58.5 -37.5t28.5 -40q6 -25 0.5 -51.5t-18.5 -51t-31.5 -46t-37.5 -35.5q18 -26 34.5 -42.5t46 -26t78 -13
t129.5 -3.5v-232z" />
    <glyph glyph-name="uFECF" unicode="&#x63a;" horiz-adv-x="681" arabic-form="initial" 
d="M461 897q-26 -17 -59.5 -21t-65 1.5t-56.5 18.5t-35 31q-21 39 -18.5 69.5t19.5 50.5t45.5 30t59 9.5t59 -12.5t46.5 -35.5t21.5 -58.5t-16.5 -83zM-29 231q49 0 77.5 8t50.5 28q-21 43 -24.5 90t7 94t34 91t57 80t75 61.5t88.5 35.5q49 10 100.5 3t94 -24t71.5 -39
t33 -42q8 -32 4.5 -60t-13 -50t-24 -36t-28.5 -18q-21 -6 -39 2t-36 19t-36.5 20.5t-40.5 6.5q-21 -3 -38 -17.5t-27.5 -37.5t-13.5 -52t3 -60t28.5 -40.5t54 -8.5t68 8t69.5 10t59.5 -2t38.5 -29q19 -37 11.5 -64t-31.5 -48t-60 -38t-74 -35q-49 -23 -105 -39.5t-122 -27
t-143.5 -15.5t-168.5 -5v231z" />
    <glyph glyph-name="uFED0" unicode="&#x63a;" horiz-adv-x="719" arabic-form="medial" 
d="M530 231q10 -2 37.5 -2t60.5 0.5t65 1t52 0.5v-231q-41 -1 -90.5 2t-98 10.5t-90 19t-66.5 26.5q-38 -25 -86.5 -37t-103.5 -17t-115 -5h-120v232h46.5t61.5 1.5t63.5 4t53 8t29.5 14t-6 20.5q-74 66 -105.5 117.5t-29.5 91t33.5 68t83.5 47.5q18 7 53.5 12.5t77.5 7.5
t85 0t76 -9q70 -15 110 -51t46 -87t-23.5 -113.5t-99.5 -131.5zM364 1011q46 1 70 -18t30.5 -48t-2.5 -61.5t-30.5 -59t-53 -41t-68.5 -6.5q-34 7 -53.5 27t-26 45.5t-0.5 53.5t23.5 51.5t45.5 39.5t65 17z" />
    <glyph glyph-name="u0641" unicode="&#x641;" horiz-adv-x="1379" arabic-form="isolated" 
d="M1125 788q56 -11 108.5 -51.5t88.5 -101.5t49.5 -138t-9.5 -162q-6 -24 -16 -45.5t-21.5 -40t-21.5 -32.5t-16 -22q-28 -36 -73 -66t-101.5 -54t-121.5 -42t-134 -30t-138.5 -18t-134.5 -6q-22 0 -48 1t-52.5 3t-51 6.5t-43.5 10.5q-12 4 -38 16.5t-55.5 31t-57 42.5
t-43.5 51q-29 45 -39.5 84t-7.5 71.5t15.5 59.5t29.5 48q18 22 47.5 33.5t59.5 13t55 -6.5t34 -25q8 -55 17.5 -91.5t27.5 -60t47.5 -35.5t76.5 -18q28 -4 76 -4t103.5 4t114 12t108.5 20.5t85.5 29t46.5 38.5q-57 4 -105.5 9.5t-85 19t-60 39.5t-30.5 72q-7 40 -0.5 83.5
t24.5 84t46.5 75.5t65.5 58.5t82 33t96 -0.5zM1138 480q24 15 30.5 42t-2 49.5t-30 33.5t-52.5 -5q-27 -22 -33 -49t3.5 -48t32 -29.5t51.5 6.5zM997 1121q24 37 62 49t75 4t65.5 -33.5t34.5 -62.5q7 -45 -11 -76.5t-48.5 -47.5t-67 -15.5t-65.5 20t-43.5 59.5t-1.5 103z
" />
    <glyph glyph-name="uFED2" unicode="&#x641;" horiz-adv-x="1437" arabic-form="final" 
d="M1155 993q-19 -42 -50.5 -60t-66 -17t-69 18t-59 45.5t-36 65.5t-0.5 78q8 34 30 57t51 34.5t62 12t63 -9.5t53 -31t33 -52q6 -21 8.5 -37.5t1 -32.5t-6.5 -33t-14 -38zM1323 350q-2 -11 2.5 -30.5t21.5 -39.5t48.5 -34.5t84.5 -14.5v-231q-78 0 -127 9t-82 21.5
t-56.5 27t-50.5 25.5q-87 -21 -196 -45.5t-228 -40.5t-243 -17.5t-242 23.5q-45 10 -95.5 37t-89 72.5t-56 109.5t2.5 148q11 45 36 64.5t71 26.5q24 4 51 0.5t49.5 -13.5t37.5 -25t15 -34q-5 -76 28 -117.5t87.5 -59t121.5 -16t130.5 12t114 25t72.5 22.5q-17 16 -34 34
t-29.5 42.5t-18 57.5t0.5 79q3 26 15.5 61t29 69.5t33.5 63.5t30 44q49 61 107 81.5t115 8.5t108 -52t86.5 -100t50 -136t-1.5 -159zM1093 397q30 2 43 22t14 45.5t-8.5 50.5t-24.5 37t-31.5 14.5t-31.5 -1t-27 -12.5t-17 -21q-11 -24 -7.5 -48.5t16.5 -44t33 -31.5t41 -11z
" />
    <glyph glyph-name="uFED3" unicode="&#x641;" horiz-adv-x="550" arabic-form="initial" 
d="M263 789q84 -2 139.5 -40.5t93.5 -101.5q32 -54 42 -114t8 -117q-4 -100 -50 -177.5t-122 -130.5t-176.5 -80.5t-213.5 -27.5v231h55.5t70 2.5t72.5 9t63 19.5q-71 1 -121 24.5t-80.5 61.5t-43 86t-8 97.5t25 97t55 83.5t82.5 57.5t108 19.5zM301 469q19 4 29.5 24.5
t10 43.5t-14.5 42t-45 21q-28 1 -45.5 -10t-25.5 -27.5t-6.5 -35.5t13 -34t32.5 -22.5t52 -1.5zM291 901q-42 -13 -75 -1.5t-54 37t-30 59.5t-3 66.5t28 58t63 33.5q33 7 60.5 -6t46.5 -38t28.5 -57t6.5 -62.5t-20 -55t-51 -34.5z" />
    <glyph glyph-name="uFED4" unicode="&#x641;" horiz-adv-x="692" arabic-form="medial" 
d="M409 832q-45 -13 -80.5 -0.5t-58.5 39.5t-32 63.5t-2 71t30.5 61.5t67.5 36q35 7 64.5 -7.5t50 -40.5t30.5 -60.5t6.5 -66.5t-22 -58.5t-54.5 -37.5zM625 291q1 -11 5 -21.5t14 -19t28 -14t48 -5.5v-231q-70 0 -119.5 5.5t-83.5 13.5t-57 17t-41.5 17t-35.5 13.5t-40 5.5
q-34 0 -72 -11.5t-83 -25t-98.5 -24.5t-117.5 -11v231q68 0 103 9.5t52 27.5q-14 41 -21.5 79.5t-6.5 76t11.5 74t33.5 74.5q31 51 75 80t92.5 38.5t98 1t92.5 -33t75 -63.5t46 -91q9 -35 11 -60.5t0.5 -49t-4.5 -48t-5 -55.5zM380 247q21 0 39.5 16t30 39.5t14 51.5t-7 51
t-33.5 37.5t-66 12.5q-29 -2 -46 -18t-24 -39.5t-4 -49.5t15 -48.5t32.5 -37.5t49.5 -15z" />
    <glyph glyph-name="u0642" unicode="&#x642;" horiz-adv-x="1047" arabic-form="isolated" 
d="M1043 1009q-1 -30 -27 -56t-69 -48.5t-99.5 -41t-118 -33.5t-124.5 -27t-119 -21q-23 16 -35 50.5t-12 70.5t12 66.5t35 39.5q47 17 107 33t122 27t121.5 15.5t105.5 -1t74 -23.5t27 -51zM957 593q36 -35 54.5 -86.5t23.5 -112t-0.5 -125.5t-17.5 -128t-27.5 -119.5
t-29.5 -99.5q-36 -107 -96 -182t-134.5 -118.5t-158 -58t-166.5 0t-161 55.5t-141 108q-42 45 -65 112.5t-28 139t7.5 136.5t41.5 105.5t74.5 46.5t107.5 -41q14 -11 18.5 -33t4.5 -50t-3 -60.5t-4 -65t2 -62.5t15 -54q30 -61 72.5 -91.5t89 -36.5t93 9t84.5 46.5t64 75.5
t31 95q-42 4 -70.5 15t-59.5 28q-41 23 -70.5 63.5t-46.5 91t-20.5 106.5t7.5 108.5t36 98t65 74.5q36 25 91.5 42t114.5 20.5t113.5 -9t88.5 -44.5zM718 210q29 -9 45.5 3.5t24 36.5t6.5 53.5t-6 55.5q-3 17 -14 30t-25.5 18.5t-30 2t-28.5 -19.5q-14 -17 -17.5 -45.5
t1.5 -56.5t17 -50t27 -28z" />
    <glyph glyph-name="uFED6" unicode="&#x642;" horiz-adv-x="1263" arabic-form="final" 
d="M1077 508q22 -31 32 -61t12 -63t-1.5 -70.5t-9.5 -82.5h180v-231h-41h-26h-19t-20 1t-29.5 2t-45.5 3q-21 -45 -44.5 -93t-51 -92.5t-60 -82.5t-71.5 -63q-37 -24 -88 -43.5t-109.5 -33t-120 -19.5t-119 -3t-107.5 16.5t-85 39.5q-29 21 -59 68.5t-53.5 106.5t-35.5 122
t-5 114q5 32 13 73.5t19.5 78.5t28 62.5t37.5 25.5q55 0 85 -9.5t44 -30t16.5 -53t2.5 -78.5q0 -26 -7.5 -63.5t-9.5 -79t7 -81.5t42 -70q69 -41 125 -51.5t101 0t79 37t60 59t43.5 66.5t29.5 60q-35 11 -69.5 22.5t-65 27.5t-54.5 38t-37 53q-21 51 -24 107t9.5 109.5
t39.5 101.5t66.5 82.5t90 52.5t110.5 12q31 -3 58.5 -7.5t52 -13.5t45.5 -24.5t39 -41.5zM889 230q10 15 13.5 25t1 18t-10 15t-19.5 15q-11 7 -21.5 7t-19.5 -4.5t-14 -13t-4 -18.5q1 -11 4 -20.5t11 -23.5q3 -6 11 -9t17.5 -3t18 3t12.5 9zM703 631q-49 39 -66 72.5
t-8.5 62.5t38 52.5t72.5 42t96 32.5t108 23t108.5 13t97.5 3q26 -60 12.5 -100t-51 -67t-93 -44t-113.5 -30.5t-112 -27t-89 -32.5z" />
    <glyph glyph-name="uFED7" unicode="&#x642;" horiz-adv-x="611" arabic-form="initial" 
d="M115 934q-16 11 -28.5 17t-22.5 13t-18 18.5t-14 34.5q-8 30 15.5 53.5t65.5 41.5t96.5 30t108.5 18t100.5 6.5t73.5 -4.5q29 -6 44.5 -26.5t23.5 -49.5t5.5 -47t-16.5 -29.5t-40 -19t-64 -14.5q-21 -4 -52 -10t-66 -12t-70.5 -11.5t-65 -9t-50 -4t-26.5 4.5zM443 769
q66 -35 105 -90.5t53 -120t6 -134t-37 -132t-76 -114t-110 -80.5q-14 -9 -46.5 -25.5t-82 -32.5t-117 -28t-152.5 -12v231q25 0 57 1t65.5 5t66 11t58.5 19q-90 7 -144.5 47t-71.5 109q-14 58 -5.5 115t34.5 106.5t67.5 88t93.5 57.5t112 15.5t124 -36.5zM276 482
q34 -15 58 -7t36.5 27t13 44t-11.5 44.5t-37 28t-64 -5.5q-15 -10 -24 -28.5t-9.5 -38t8.5 -37.5t30 -27z" />
    <glyph glyph-name="uFED8" unicode="&#x642;" horiz-adv-x="660" arabic-form="medial" 
d="M562 274q3 -4 7 -11.5t15.5 -14.5t34 -12t63.5 -5v-231q-61 0 -103 5t-71 12.5t-50 15.5t-39 14.5t-38 9.5t-48 0q-39 -5 -67 -14t-62.5 -19t-85 -17t-134.5 -7v231q23 0 49.5 2.5t57.5 8.5q-40 74 -45.5 143.5t13.5 129t57.5 107t88 77t105 38t107.5 -8.5t95.5 -62.5
t69.5 -125.5l10 -44q1 -29 -0.5 -59.5t-5 -60.5t-10 -56.5t-14.5 -45.5zM419 396q6 21 7 35t-1.5 24t-9 18t-15.5 16q-6 5 -18.5 7.5t-18.5 4.5q-11 2 -23.5 -1.5t-24.5 -12.5t-21 -22t-13 -31q-8 -35 1.5 -62.5t43.5 -41.5q19 -8 34.5 -5.5t26.5 12.5t19 25.5t13 33.5z
M544 1039q15 -51 5 -86t-37.5 -57t-70 -33.5t-93 -14.5t-104.5 0.5t-106 10.5q-52 27 -72 51.5t-15.5 45.5t31 38t66.5 29.5t90.5 20.5t103.5 10t105.5 -1.5t96.5 -13.5z" />
    <glyph glyph-name="u0643" unicode="&#x643;" horiz-adv-x="1619" arabic-form="isolated" 
d="M1608 1137q30 -55 31.5 -99.5t-18.5 -79.5t-57 -62.5t-84 -49.5t-99.5 -39t-104 -31t-98 -27t-79.5 -26q5 -60 28 -115t46 -108.5t36 -107.5t-2 -113q-10 -40 -32.5 -72.5t-58.5 -59.5t-86 -50.5t-115 -44.5q-81 -27 -189 -45t-237 -15q-58 1 -116.5 8t-112 21.5
t-99.5 37.5t-79 56q-18 17 -39.5 54t-33.5 83t-7.5 94.5t39.5 88.5q15 17 41 28.5t55.5 16.5t60 3.5t55.5 -10t40.5 -23.5t15.5 -37q0 -19 1 -40t7 -41.5t19.5 -40t37.5 -34.5q32 -19 84.5 -26.5t113 -6t123 12t114.5 27.5t87 40.5t41 50.5q6 26 -0.5 54t-20.5 57t-33 57.5
t-36.5 56.5t-31.5 54t-19 49q-14 59 -5.5 98t40.5 71q20 20 57 41t81 41.5t89.5 38.5t83.5 32q37 14 82.5 35.5t93.5 44t94.5 42t85.5 29t68 6.5t42 -25z" />
    <glyph glyph-name="uFEDA" unicode="&#x6a9;" horiz-adv-x="1479" arabic-form="final" 
d="M1518 0q-61 0 -119.5 13t-107.5 36.5t-84.5 56.5t-50.5 74q-23 -20 -51 -41t-65.5 -41.5t-87 -38.5t-115 -32t-149 -22t-190.5 -8q-53 0 -111 11t-112.5 33t-101.5 55.5t-78 79t-41 103t9 127.5q7 27 27 46.5t47 31t58.5 13.5t61.5 -5q29 -7 49 -19.5t33.5 -30t22 -40
t14.5 -49.5q28 -40 84.5 -65t124.5 -34.5t140 -4t131 26.5t97.5 56.5t39.5 85.5q1 32 -15 67.5t-39.5 70.5t-48 69t-40.5 63q-35 63 -30.5 116.5t33 94.5t72.5 70t89 44q51 16 123 40.5t149.5 48.5t151 44t127.5 27q47 6 83.5 -1.5t61.5 -23.5t37 -39.5t9.5 -49.5
t-20.5 -52.5t-52 -49.5q-37 -26 -82.5 -42t-96 -27.5t-102.5 -21.5t-102.5 -25.5t-96 -38.5t-82.5 -60q22 -106 53.5 -185t67.5 -136t74 -93.5t72.5 -58t63.5 -30t47 -8.5h18v-231v0z" />
    <glyph glyph-name="uFEDB" unicode="&#x6a9;" horiz-adv-x="703" arabic-form="initial" 
d="M-30 231q19 0 58.5 3t80.5 13t74 29.5t39 53.5q3 16 -6.5 44t-25 60t-33.5 64.5t-32 58.5q-21 37 -46 69t-43 64.5t-23 68t14 79.5q10 24 52 54.5t101.5 62.5t129 64t134.5 59.5t118 48.5t79 31q37 14 65 7t46 -26.5t25.5 -48.5t3.5 -59t-19.5 -58t-43.5 -45
q-15 -9 -34.5 -16t-41 -14t-43.5 -13.5t-42 -14.5q-38 -14 -79 -30t-78.5 -32t-68 -30.5t-46.5 -25.5q20 -46 47 -92.5t53 -93.5t47.5 -94t30.5 -94.5t2 -94.5t-38 -94q-35 -55 -82 -93t-102 -58q-48 -17 -95.5 -25t-87.5 -11q-23 -2 -45.5 -2.5t-44.5 0.5v231v0z" />
    <glyph glyph-name="uFEDC" unicode="&#x6a9;" horiz-adv-x="771" arabic-form="medial" 
d="M-22 233q36 -1 75 -0.5t75 10.5t64.5 32t43.5 64q9 25 7 48.5t-10.5 45.5t-21.5 42t-26 37q-34 42 -64.5 78.5t-54.5 83.5q-26 51 -25.5 92.5t20.5 75t55.5 61t80 50.5t93.5 42t97 36q49 15 103.5 40.5t106.5 47t98 33.5t79 0q18 -7 35.5 -22t30.5 -35t19.5 -44.5
t1.5 -49.5q-6 -28 -15.5 -42.5t-27.5 -22.5q-61 -29 -125.5 -54.5t-131 -48.5t-134.5 -46t-137 -48q23 -40 50.5 -93t61 -109.5t74 -111.5t89 -98t106.5 -69.5t126 -26.5v-231q-71 0 -127 13.5t-102 38t-85 59.5t-76 77q-20 -28 -37 -52.5t-38 -45.5t-48.5 -37.5
t-68.5 -28.5t-99 -18t-138 -6v233v0z" />
    <glyph glyph-name="u06AF" unicode="&#x6af;" horiz-adv-x="1625" arabic-form="isolated" 
d="M1042 954q-15 -4 -32.5 0t-32.5 14t-27 23.5t-17 27.5q-11 37 10.5 62t63 43t97 31t111.5 26q31 7 60 16.5t55 17t48.5 11t41.5 -1.5q21 -5 28.5 -13t15.5 -19q24 -36 11.5 -65.5t-48 -53t-87.5 -42.5t-107 -33.5t-106 -25t-85 -18.5zM1195 745q11 -37 34 -64.5t50 -53.5
t54 -54t46 -66q14 -26 20 -51t9 -48q5 -35 1.5 -61t-8.5 -56q-8 -47 -45.5 -92.5t-92 -83.5t-119 -66t-126.5 -40q-16 -3 -46.5 -5t-68.5 -3.5t-79.5 -2.5t-79.5 -1.5t-68.5 -0.5h-46.5q-52 0 -109.5 0.5t-116 14.5t-116 48t-109.5 102q-22 41 -29 86t-0.5 85t25 69.5
t47.5 40.5q52 19 102.5 15t82.5 -36q25 -25 32 -57.5t12 -61.5q22 -29 79.5 -45.5t132 -22t156.5 0t152.5 21t120.5 41t61 59.5q15 47 0.5 81.5t-44 64t-66 56.5t-67 59.5t-46.5 73t-4 97.5q10 49 47 79t89 51t113.5 36.5t121.5 35.5q32 11 71 27.5t79.5 31.5t79 26t69.5 10
t52 -16.5t26 -52.5q5 -42 -22 -73t-72 -54.5t-102 -41.5t-111.5 -34t-100.5 -32t-70 -36z" />
    <glyph glyph-name="uFB93" unicode="&#x6af;" horiz-adv-x="1735" arabic-form="final" 
d="M1027 1001q-15 -5 -32.5 -3t-34 9.5t-30 19t-19.5 25.5q-16 35 2 62.5t56.5 51t92 43.5t107.5 40q30 11 57.5 24t52.5 24t47 17.5t41 3.5q21 -2 29.5 -9t17.5 -17q27 -33 18.5 -63.5t-40 -59t-80 -53.5t-100.5 -46.5t-101.5 -39t-83.5 -29.5zM1658 1140q12 -13 22 -34.5
t14 -44t-1.5 -43t-23.5 -30.5q-65 -38 -130 -66.5t-130 -52.5t-130 -47t-129 -50q35 -119 80.5 -218t115 -171t170 -112t244.5 -40v-231q-84 0 -151 12.5t-122.5 34t-103 49.5t-92.5 59q-29 -26 -69 -51t-88.5 -46.5t-104.5 -37.5t-117 -23q-21 -3 -67.5 -3.5t-105 0.5
t-122.5 4t-119.5 8t-96.5 11t-53 13q-43 27 -84.5 63t-68 84t-32 108.5t24.5 135.5q10 24 33.5 39t53.5 21t62.5 3t60.5 -14.5t47.5 -32t23.5 -49.5q7 -54 34 -85t70 -46.5t100.5 -19.5t126.5 -4q46 0 94.5 7t87.5 21.5t62 36.5t19 51q-6 46 -33 90.5t-58.5 88.5t-60.5 88.5
t-41 91.5q-14 57 2.5 103.5t50.5 82.5t78.5 62.5t86 44.5t74 28t42.5 13q38 10 79.5 29t83 39.5t82.5 38t78.5 25t71 1t59.5 -34.5z" />
    <glyph glyph-name="uFB94" unicode="&#x6af;" horiz-adv-x="799" arabic-form="initial" 
d="M742 1171q15 -5 29 -18.5t24.5 -32t16.5 -39.5t5 -40q-2 -39 -31 -68t-73.5 -52t-98.5 -41l-105 -35t-93 -34.5t-63 -38.5q19 -63 50.5 -120t59 -115t44.5 -120t8 -134q-12 -92 -51 -147.5t-107.5 -85.5t-167.5 -40t-232 -10v231h59.5t65.5 2.5t64 9.5t54 21.5t36 38
t10 58.5q-5 48 -18 83.5t-31 65t-39.5 56.5t-42.5 57.5t-40 68.5t-33 90q-11 37 2 65.5t39.5 50t61.5 37.5t69 30q23 10 66 31t95 46t108.5 50.5t107.5 45t91 29.5t60 4zM206 1002q-15 -5 -32.5 -3t-34 9.5t-29.5 19t-19 25.5q-16 35 2 63t56.5 51t91.5 43t107 40
q30 11 58 24.5t52.5 24.5t46.5 17t42 3q21 -2 29.5 -9t17.5 -17q27 -33 18.5 -63.5t-40.5 -59t-80.5 -53.5t-101 -46.5t-102 -39t-82.5 -29.5z" />
    <glyph glyph-name="uFB95" unicode="&#x6af;" horiz-adv-x="860" arabic-form="medial" 
d="M236 1005q-14 -5 -31 -3t-33 9t-28.5 17t-18.5 22q-11 21 5 42t51 41t85 39t107 36q14 4 44 16.5t61.5 25.5t57 23t28.5 10q20 -2 28.5 -8t17.5 -15q27 -29 18.5 -56t-39.5 -51.5t-77.5 -46.5t-97 -41t-98.5 -34t-80 -26zM896 0q-89 0 -151.5 9t-108.5 24t-80.5 35.5
t-67.5 43.5q-37 -18 -90 -40t-116.5 -39.5t-135.5 -27.5t-146 -5h-24v231q10 0 42 -1t71 2.5t77 15.5t60.5 37t22 66.5t-39.5 105.5q-18 31 -42.5 70.5t-46.5 83.5t-36.5 90t-12 90.5t26 84t77.5 70.5q13 7 39 19t59.5 27t72 31t77.5 31q39 14 88.5 34t99 41t91.5 39.5
t66 29.5q33 15 64.5 4.5t57 -31t41 -44.5t17.5 -36q2 -22 -16 -40.5t-43 -33.5t-51 -26t-39 -18q-34 -18 -73 -34t-80.5 -32t-84.5 -33t-83 -36q-16 -8 -37.5 -18.5t-41.5 -21.5t-34.5 -20.5t-16.5 -15.5q-5 -9 9 -45t36 -81.5t48 -91.5t47 -76q10 -12 29.5 -34.5t46.5 -49
t62 -53.5t77 -49.5t90.5 -36.5t102.5 -14v-231z" />
    <glyph glyph-name="u0644" unicode="&#x644;" horiz-adv-x="1102" arabic-form="isolated" 
d="M523 -230q100 -14 162.5 11t96.5 78.5t44 130.5t6 167t-17.5 188.5t-27 194.5t-22.5 185t-4 160q2 30 5 62t10.5 61.5t21.5 53.5t39 39q38 16 65 14.5t46.5 -14.5t33.5 -33.5t26 -42.5q23 -44 27.5 -95.5t1.5 -107t-7.5 -114t0.5 -116.5q6 -93 19 -190t21.5 -189
t6.5 -175t-26 -148q-30 -81 -74.5 -152t-113 -120t-165 -70.5t-229.5 -4.5q-35 5 -68 12.5t-65.5 22t-63.5 40t-61 66.5q-21 29 -36 70.5t-23 87.5t-8 92.5t9 85t28 65t50 32.5q37 7 62.5 -1.5t45.5 -20.5q22 -14 33.5 -37t18.5 -51t14 -59.5t20 -63t36 -61t62 -53.5z" />
    <glyph glyph-name="uFEDE" unicode="&#x644;" horiz-adv-x="1228" arabic-form="final" 
d="M1086 44q-2 -23 -6 -53t-11.5 -61.5t-18.5 -60t-27 -47.5q-37 -45 -81.5 -87t-101 -73t-128.5 -47t-165 -9q-33 2 -82.5 13t-101.5 31t-99 49.5t-74 68.5q-17 24 -30 65t-21.5 87.5t-12 92.5t-1.5 81q1 15 7 46.5t21 64t39.5 59t63.5 31.5q23 1 42 -4.5t34 -15.5
t26.5 -22.5t20.5 -25.5q-4 -42 -8 -96.5t11 -123.5q4 -18 7.5 -30.5t9 -25t15 -26.5t24.5 -34q19 -17 36.5 -26.5t34.5 -15.5t33 -9.5t31 -8.5q112 -15 174.5 12t90.5 98.5t29 189t-9 282.5q0 46 -1.5 86.5t-4 80.5l-5 80t-4.5 85q-1 25 -6 65t-11 85l-12 90t-9 81
q-2 16 2.5 33t15 32t26 25.5t36.5 13.5q14 2 30 0.5t32 -8.5t30.5 -20t25.5 -34q4 -8 11 -32.5t14.5 -56t14.5 -64t11 -56.5q4 -21 8 -48t7.5 -56.5t6 -60t3.5 -59.5q2 -39 3 -87.5t5 -98t13 -96t28 -82.5t49 -58t76 -22l0.5 -10t0.5 -26.5v-37v-42.5v-54.5t-1 -60.5
q-39 0 -64.5 4t-43.5 10t-31.5 14t-27.5 16z" />
    <glyph glyph-name="uFEDF" unicode="&#x644;" horiz-adv-x="422" arabic-form="initial" 
d="M41 231q50 0 77.5 14.5t41.5 40t18.5 58.5t9.5 71q9 75 4.5 160.5t-15.5 166.5q-4 25 -9.5 64.5t-10.5 84.5t-10 90.5t-8 81.5q-2 16 2.5 33t15 32t26 25.5t36.5 13.5q14 2 30 0.5t32 -8.5t30.5 -20t25.5 -34q4 -8 11 -32.5t14.5 -56t14.5 -64t11 -56.5q4 -21 8 -48
t7.5 -56.5t6 -60t3.5 -59.5q4 -92 -2 -180t-24 -166t-50.5 -143.5t-80.5 -110.5q-26 -25 -58 -39t-67.5 -21.5t-72.5 -9.5t-71 -2l-3 231h57z" />
    <glyph glyph-name="uFEE0" unicode="&#x644;" horiz-adv-x="484" arabic-form="medial" 
d="M502 0q-51 0 -86.5 2.5t-63.5 11.5t-51 25t-49 43q-40 -35 -88.5 -52t-91.5 -24q-50 -8 -102 -6v231h43q59 0 85 37t32 100.5t-1 148t-14 179.5t-6.5 194.5t21.5 193.5q6 29 23.5 47t40 26.5t46.5 9t42 -5.5q38 -13 55 -60t22 -114.5t1.5 -150t-6.5 -166.5t-2 -163
t15.5 -140.5t46 -98.5t88.5 -37v-231v0z" />
    <glyph glyph-name="u0645" unicode="&#x645;" horiz-adv-x="842" arabic-form="isolated" 
d="M229 281q-11 102 15 178t75 126t115 75t134 24.5t131.5 -27t108 -78t63.5 -128.5t-2 -180q-9 -54 -40 -104t-79 -80q-38 -24 -89 -31t-108 -7.5t-116 0.5t-111 -6q-23 -16 -34.5 -51.5t-17 -82.5t-6.5 -101l-2 -108t-4.5 -103.5t-14 -86t-30 -57t-53.5 -16.5
q-35 4 -56.5 27.5t-34.5 60t-19.5 83t-10.5 97.5q-2 28 -2 70.5t1 88.5t4 88.5t7 69.5q8 55 25.5 93t41 66.5t52 51.5t57.5 48zM589 278q11 44 3 75t-26 47.5t-41.5 18t-44 -13t-33 -46t-8.5 -81.5q32 -8 71 -8t79 8z" />
    <glyph glyph-name="uFEE2" unicode="&#x645;" horiz-adv-x="1031" arabic-form="final" 
d="M299 374q67 50 124.5 71t107.5 21t94 -16.5t85.5 -42t82 -55.5t82 -56t86 -44.5t95.5 -20.5v-231q-46 0 -82 3.5t-78 11.5q-14 -23 -33 -54t-43 -60t-53.5 -52t-64.5 -30q-29 -6 -64 -3.5t-70.5 15t-68 37.5t-55.5 64q-19 32 -31 67.5t-26 59.5t-34.5 29.5t-54.5 -21.5
q-15 -12 -19 -38.5t-0.5 -62t11.5 -76t18.5 -80t20.5 -75t16 -59.5q14 -57 20.5 -100t1.5 -72q-8 -51 -31 -78t-77 -18q-27 4 -47.5 33.5t-36.5 74t-27 98t-19.5 106t-14.5 98.5t-11 74q-11 68 -5.5 134t28.5 127.5t66 117t107 103.5zM729 28q12 25 9 58t-19 58.5t-43.5 37
t-64.5 -5.5q-27 -13 -33 -39t2 -52.5t25 -48.5t37 -27q12 -4 25.5 -4.5t26 2t22 8t13.5 13.5z" />
    <glyph glyph-name="uFEE3" unicode="&#x645;" horiz-adv-x="756" arabic-form="initial" 
d="M724 364q17 -57 18 -115t-20 -125q-16 -49 -51.5 -82.5t-83 -50.5t-102.5 -19t-109 11.5t-103 41t-85 69.5q-31 -34 -61 -53t-57 -28t-50 -11t-40 -2v231q23 0 54 8.5t64 33.5q33 26 59 56.5t49 61t45.5 60t49 55t59.5 44.5t77 29q55 11 102 -5t84 -48.5t63 -75.5t38 -86
zM516 210q10 9 10 22.5t-5.5 27.5t-14 25.5t-15.5 17.5q-7 5 -15 10t-17.5 5.5t-21 -4.5t-24.5 -20q-22 -23 -19.5 -48.5t20 -42t45.5 -18t57 24.5z" />
    <glyph glyph-name="uFEE4" unicode="&#x645;" horiz-adv-x="835" arabic-form="medial" 
d="M484 548q47 -5 78.5 -21t52 -39t33.5 -51t24.5 -56.5t24.5 -55.5t33.5 -48t51.5 -33.5t78 -12.5v-231q-52 0 -82.5 7t-50 17t-34 20t-33.5 16q-32 -16 -55 -36t-48 -36.5t-58.5 -27t-85.5 -7.5q-28 1 -54 12t-49.5 27t-44 33.5t-37 30.5t-29.5 19.5t-21 0.5
q-10 -7 -26 -19.5t-39 -25t-55 -22t-73 -9.5v231q47 0 78 10t52 27t34 39t23 45.5t20.5 47.5t26.5 45q45 57 113 84.5t152 18.5zM329 235q11 -18 42.5 -27.5t65 -9.5t58.5 8.5t24 26.5q-3 32 -18 52.5t-36.5 29.5t-45 7.5t-44 -12t-33.5 -30t-13 -45.5z" />
    <glyph glyph-name="u0646" unicode="&#x646;" horiz-adv-x="973" arabic-form="isolated" 
d="M406 692q36 32 77.5 43t92.5 6q30 -17 49.5 -50t26 -69.5t-1.5 -71.5t-34 -57q-28 -24 -64 -27t-70.5 9t-63 36t-42.5 54t-8.5 63t38.5 64zM884 403q30 -39 47 -81.5t25.5 -85.5t9.5 -84.5t-2 -77.5q-6 -119 -43 -209t-96 -152.5t-134.5 -98t-158 -45.5t-167 5t-161.5 53
q-39 19 -77.5 60.5t-67 98t-42 125t-2.5 142.5q4 29 17 59t32.5 54.5t45 40t55.5 15.5q43 0 64.5 -19.5t30.5 -50.5t11 -70.5t6.5 -80t16 -77.5t40.5 -64t79.5 -39.5t133.5 -3.5q28 2 59 19t57.5 44t46 61.5t25.5 71.5q7 40 -1 80.5t-18 80.5t-16 79.5t5 78.5q7 27 25 45.5
t42.5 27.5t53.5 8.5t58 -10.5z" />
    <glyph glyph-name="uFEE6" unicode="&#x646;" horiz-adv-x="1000" arabic-form="final" 
d="M599 605q14 -32 8.5 -60t-23.5 -49t-44.5 -34.5t-56 -16.5t-57.5 6t-48 32q-17 20 -23.5 32t-8.5 33q-5 38 8.5 64.5t37.5 41.5t55 19.5t61 -2t54.5 -23t36.5 -43.5zM1021 0q-32 0 -64.5 1.5t-55.5 20.5q0 -123 -35 -212t-97.5 -146t-149.5 -83t-192 -22q-20 1 -44 3.5
t-49.5 7t-49 10t-41.5 12.5q-39 15 -77 50t-69.5 78.5t-53 90.5t-27.5 86q-8 48 -8.5 96t9 88.5t30 71.5t55.5 46q35 16 59.5 18t56.5 -18q25 -16 32 -49t6.5 -74.5t-2.5 -87t5 -86.5t29.5 -72.5t70.5 -44.5q60 -17 108.5 -10.5t86 29t64 57t42 74t19.5 80.5t-3 76t-19 65
t-21 56t-10.5 48.5t12.5 43.5q18 28 42 43.5t49.5 20t50.5 -0.5t46 -18q34 -21 56 -42t42 -37.5t42 -27t55 -10.5v-232z" />
    <glyph glyph-name="uFEE7" unicode="&#x646;" horiz-adv-x="394" arabic-form="initial" 
d="M-25 232q17 0 39.5 2t43.5 11.5t38 31t23 60.5q6 38 3 72t-7 64.5t-6 57.5t7 50t31.5 42t67.5 34q51 12 84 -2.5t52 -45t26.5 -72t8.5 -83t-3 -77.5t-8 -57q-13 -74 -35 -131q-17 -43 -45.5 -74t-63 -52t-72.5 -33.5t-73 -19t-64.5 -8.5t-47.5 -2zM296 1036
q24 -11 45 -35.5t32.5 -56.5t10 -67.5t-22.5 -68.5q-16 -23 -49.5 -35.5t-71 -13.5t-70.5 11t-47 38q-25 46 -20 95.5t30.5 86.5t68.5 52.5t94 -6.5z" />
    <glyph glyph-name="uFEE8" unicode="&#x646;" horiz-adv-x="501" arabic-form="medial" 
d="M423 277q27 -46 95 -46v-231q-51 0 -84.5 11t-57.5 22.5t-43.5 18.5t-42.5 -1q-15 -5 -32.5 -14t-49.5 -17t-85 -14t-140 -6v232q15 0 35.5 1.5t41.5 6.5t40.5 14t33.5 23q19 20 31 51t22.5 60t23.5 50.5t36 23.5q42 3 69 -5t43 -23t24.5 -35.5t14 -42t10.5 -42.5t15 -37
zM375 716q-16 -23 -49.5 -35.5t-71 -13.5t-70.5 11t-47 38q-25 46 -20 95.5t30.5 86.5t68.5 52.5t94 -6.5q24 -11 45 -35.5t32.5 -56.5t10 -67.5t-22.5 -68.5z" />
    <glyph glyph-name="u0648" unicode="&#x648;" horiz-adv-x="741" arabic-form="isolated" 
d="M73 -278q-9 29 0.5 56.5t29.5 42.5q30 23 74.5 39t88 34t79 42.5t46.5 65.5q-40 0 -81.5 11t-94.5 48q-24 16 -38.5 42.5t-23 54.5t-11.5 53t-3 39q0 45 10 89.5t30.5 81.5t52 64t73.5 37q70 16 132 9t110 -34t79 -72.5t40 -105.5q16 -114 7.5 -204t-41.5 -162t-91 -128
t-140 -101q-11 -6 -31.5 -15.5t-45.5 -20.5t-52 -21t-52 -16.5t-45 -8t-31 5.5q-24 14 -43 29.5t-28 44.5zM327 284q0 -19 10 -31t26.5 -19t39 -10t48.5 -4q6 26 -1 47t-20.5 35.5t-31.5 21.5t-33.5 5.5t-26.5 -12.5t-11 -33z" />
    <glyph glyph-name="uFEEE" unicode="&#x648;" horiz-adv-x="711" arabic-form="final" 
d="M731 0h-89q-17 -35 -43 -77.5t-59.5 -84t-74.5 -77.5t-88 -57q-17 -8 -49.5 -17.5t-67 -17.5t-64.5 -12.5t-43 -2.5q-17 3 -35 13t-32.5 24t-24 29.5t-10.5 29.5q-3 43 17 69t52.5 42t72 26.5t75.5 24t63.5 33.5t35.5 55q-61 12 -112.5 45t-84.5 82.5t-42 114.5t15 141
q12 37 33.5 70t52 58.5t69.5 41.5t86 18q74 4 132 -14.5t97 -60.5t58 -108t15 -157h45v-231zM472 236q10 2 14 15t4 29.5t-4 32t-11 23.5q-24 24 -42.5 24t-30 -14t-14.5 -36.5t4.5 -42t26.5 -30t53 -1.5z" />
    <glyph glyph-name="u0647" unicode="&#x647;" horiz-adv-x="674" arabic-form="isolated" 
d="M362 657q33 -20 71.5 -48t75 -63.5t66 -78t45 -92.5t12 -106.5t-33.5 -119.5q-24 -49 -73.5 -83t-110.5 -51t-127 -17.5t-123.5 18.5t-99.5 57.5t-55 98.5q-4 18 -6.5 47.5t0 62.5t12 65t29.5 55q17 20 29 33t23 24t23 23.5t30 32.5q-16 38 -18 62t4.5 39.5t20 25.5
t27.5 20q17 10 36.5 16.5t42 7t48 -6t52.5 -22.5zM259 204q12 -15 33 -15.5t42 10t38 29t22 41t-7 46.5t-49 45q-14 -16 -35 -33t-37.5 -36.5t-21 -41t14.5 -45.5z" />
    <glyph glyph-name="uFEEA" unicode="&#x647;" horiz-adv-x="702" arabic-form="final" 
d="M729 0q-91 0 -156 25.5t-104.5 81t-55 142.5t-7.5 210q-18 12 -35 10t-31.5 -11.5t-25 -24.5t-16.5 -28q-12 -26 -7 -44.5t19 -33.5t32.5 -28.5t33.5 -28t22 -32.5t-2 -43q-8 -23 -30.5 -37t-53.5 -19t-68 0.5t-74 22.5q-20 9 -41.5 29t-40.5 43.5t-32 45.5t-16 34
q-16 68 -0.5 124t45.5 99.5t66 74.5t60 49q30 23 61 44t63.5 36t66 23t69.5 5q11 -1 26 -4.5t31.5 -9.5t32.5 -16t29 -24q20 -23 26.5 -58t5.5 -76t-5 -85.5t-6 -86t2 -77.5t20 -60q17 -26 43 -33.5t53 -7.5v-231v0z" />
    <glyph glyph-name="uFEEB" unicode="&#x647;" horiz-adv-x="836" arabic-form="initial" 
d="M730 631q22 -27 43.5 -60t36.5 -76t21 -98t-3 -125q-6 -48 -38 -92t-80.5 -80t-108.5 -61t-121.5 -35t-120 -2t-103.5 38q-29 -9 -57 -16.5t-59.5 -12.5t-69 -8t-85.5 -3v231q6 0 22 1t35 3t37 5t28 8q-26 32 -39.5 54.5t-17 44t1.5 46.5t16 62q8 28 20.5 47t27.5 34
t32 28t34 28q-27 69 -24.5 114.5t27 72t66.5 35t93 3.5t107 -22t108.5 -42t97 -56.5t73.5 -65.5zM268 291q21 15 36.5 29.5t24.5 31.5t11 39t-3 52q-2 7 -7 14t-12.5 9t-16.5 -2.5t-19 -20.5q-7 -14 -18 -36.5t-17 -45.5t-3 -42.5t24 -27.5zM588 297q7 12 9 31.5t-2 37.5
t-15 31t-30 13q-49 -114 -113 -214q57 7 92 35.5t59 65.5z" />
    <glyph glyph-name="uFEEC" unicode="&#x647;" horiz-adv-x="795" arabic-form="medial" 
d="M676 214q18 7 34.5 10.5t33 5t34 1.5h37.5l-1 -231q-20 0 -38.5 -2.5t-35 -12.5t-28.5 -30.5t-18 -56.5q-3 -21 4 -47.5t13.5 -57t7.5 -63.5t-15 -67q-56 -48 -112.5 -52.5t-109 18.5t-98.5 65t-82 87q-22 27 -40 55t-34 56t-32.5 55t-35.5 52h-51h-30.5t-18.5 0.5
t-15.5 0.5h-21.5h-35v231q32 0 62.5 2.5t46.5 20.5q-18 97 5.5 178t73.5 133.5t119.5 70t143.5 -12.5q22 -8 44.5 -30.5t42 -55t34.5 -71.5t22 -79.5t4 -81t-19 -74.5q-17 -33 -46 -67t-52.5 -69t-33 -72t13.5 -76q21 37 42.5 76.5t47.5 75.5t59 66t78 49zM373 216
q25 3 37.5 22t14.5 44.5t-4 52.5t-17 46.5t-25 26t-28 -9.5q-20 -24 -25 -56t0 -60.5t18 -48t29 -17.5z" />
    <glyph glyph-name="u0629" unicode="&#x629;" horiz-adv-x="681" arabic-form="isolated" 
d="M410 657q33 -20 71.5 -48t75 -63.5t66 -78t45 -92.5t12 -106.5t-33.5 -119.5q-24 -49 -73.5 -83t-110.5 -51t-127 -17.5t-123.5 18.5t-99.5 57.5t-55 98.5q-4 18 -6.5 47.5t0 62.5t12 65t29.5 55q17 20 29 33t23 24t23 23.5t30 32.5q-16 38 -18 62t4.5 39.5t20 25.5
t27.5 20q17 10 36.5 16.5t42 7t48 -6t52.5 -22.5zM307 204q12 -15 33 -15.5t42 10t38 29t22 41t-7 46.5t-49 45q-14 -16 -35 -33t-37.5 -36.5t-21 -41t14.5 -45.5zM486 1014q6 -9 6.5 -21t-2.5 -22.5t-9.5 -18t-14.5 -7.5q-20 0 -44.5 -1t-43 -6t-26 -17t6.5 -34
q8 -13 28 -10t43 11t45 15t35 1q9 -4 14 -12t7 -17t1.5 -17t-2.5 -13q-7 -20 -18 -30t-16 -11q-47 -8 -93.5 -22t-86.5 -27.5t-69.5 -24t-40.5 -11.5q-8 -1 -14.5 5t-10 15.5t-3 22t6.5 24.5q3 7 14 14.5t23.5 14.5t25 13t18.5 10q-30 33 -37 60t4 62q9 27 39 49t68.5 32.5
t78 5.5t67.5 -33z" />
    <glyph glyph-name="uFE94" unicode="&#x6c0;" horiz-adv-x="704" arabic-form="final" 
d="M730 0q-103 0 -174 25.5t-113.5 81t-58 142.5t-7.5 210q-18 12 -35 10t-31.5 -11.5t-25 -24.5t-16.5 -28q-12 -26 -7 -44.5t19 -33.5t32.5 -28.5t33.5 -28t22 -32.5t-2 -43q-8 -23 -30.5 -37t-53.5 -19t-68 0.5t-74 22.5q-20 9 -41.5 29t-40.5 43.5t-32 45.5t-16 34
q-16 68 -0.5 124t45.5 99.5t66 74.5t60 49q30 23 61 44t63.5 36t66 23t69.5 5q11 -1 26 -4.5t31.5 -9.5t32.5 -16t29 -24q22 -25 28.5 -64.5t5 -85t-6 -94t-3.5 -92t11.5 -78t39.5 -52.5q20 -12 42.5 -15t51.5 -3v-231zM556 1112q6 -9 6.5 -21t-2.5 -22.5t-9.5 -18
t-14.5 -7.5q-20 0 -44.5 -1t-43 -6t-26 -17t6.5 -34q8 -13 28 -10t43 11t45 15t35 1q9 -4 14 -12t7 -17t1.5 -17t-2.5 -13q-7 -20 -18 -30t-16 -11q-47 -8 -93.5 -22t-86.5 -27.5t-69.5 -24t-40.5 -11.5q-8 -1 -14.5 5t-10 15.5t-3 22t6.5 24.5q3 7 14 14.5t23.5 14.5t25 13
t18.5 10q-30 33 -37 60t4 62q9 27 39 49t68.5 32.5t78 5.5t67.5 -33z" />
    <glyph glyph-name="u064A" unicode="&#x64a;" horiz-adv-x="1235" arabic-form="isolated" 
d="M992 392q-58 1 -98 -29.5t-47 -81.5q-1 -23 15 -38.5t40.5 -29t53.5 -28.5t55 -36.5t44.5 -52.5t21.5 -78q2 -26 0.5 -51t-10 -52t-26.5 -56.5t-49 -64.5q-45 -42 -106 -84t-139 -77q-57 -26 -129.5 -38t-148.5 -7.5t-148.5 26t-128.5 62.5q-51 37 -88.5 90t-61 117.5
t-32 139.5t-0.5 155q15 61 47 105.5t71.5 64.5t81 11.5t76.5 -53.5q0 -39 -1.5 -83.5t-1 -89.5t5.5 -88t18 -79.5t37 -64.5t62 -43q36 -14 78.5 -17.5t85.5 2t83.5 18.5t71.5 32t49 42.5t17 50.5q-6 19 -22 28t-35.5 13.5t-39.5 8t-35 11.5q-20 10 -38.5 32t-32 55t-19.5 78
t0 101q5 51 35 97.5t76 85t103.5 65.5t117.5 39q53 11 104 13.5t92.5 -7.5t70.5 -33.5t38 -63.5q12 -59 2 -87.5t-38.5 -37.5t-74 -4.5t-103.5 12.5z" />
    <glyph glyph-name="uFEF2" unicode="&#x6cc;" horiz-adv-x="1008" arabic-form="final" 
d="M1028 0q-26 0 -51.5 2t-50 3.5t-49.5 0.5t-50 -7q27 -11 53.5 -21.5t49 -23.5t40.5 -31t27 -43q17 -46 12.5 -85t-23.5 -77q-27 -56 -77.5 -106.5t-124 -87t-168.5 -55t-211 -9.5q-48 3 -87.5 12t-74.5 23.5t-67 34.5t-65 46q-12 10 -27 25.5t-29.5 33t-25.5 33.5t-15 27
q-16 38 -22 100t-1 128t21.5 125t46.5 92q19 21 50.5 32t63.5 10.5t58 -13.5t34 -40q13 -43 14 -92t-1 -98.5t-3 -95.5t8 -83.5t32 -62.5t69 -32q35 -5 83.5 0.5t96.5 19t90 33t65 43.5q-45 22 -91 44t-80 51t-48.5 68.5t3.5 96.5q10 33 37.5 64t66.5 56.5t87.5 44.5
t100.5 29q90 16 151 16h84l-2 -231v0z" />
    <glyph glyph-name="uFEF3" unicode="&#x6cc;" horiz-adv-x="515" arabic-form="initial" 
d="M-14 231q76 0 114.5 16t53 42.5t11 60.5t-10 69t-10 69t10.5 61q11 22 38.5 42.5t59.5 31t64.5 7.5t54.5 -27q30 -35 47 -84.5t21.5 -105.5t-2.5 -113.5t-25.5 -108.5t-48 -91.5t-68.5 -61.5q-34 -18 -79 -26t-90 -11t-83.5 -2t-57.5 1v231zM394 -185q14 -24 18.5 -45.5
t-16.5 -45.5q-14 -16 -29 -26t-31.5 -17t-34 -12.5t-35.5 -11.5q-27 -9 -68.5 -10t-83.5 6t-77 22t-50 38q6 24 34 43t68 33t86 23t87 14q21 3 36.5 5.5t30 2.5t29.5 -4t36 -15z" />
    <glyph glyph-name="uFEF4" unicode="&#x6cc;" horiz-adv-x="521" arabic-form="medial" 
d="M-27 231q75 0 129 27.5t72 69.5q6 15 12.5 31.5t14 32t17 28.5t21.5 22q16 11 36 16.5t40.5 3t39.5 -12.5t34 -29q9 -12 10.5 -30.5t3 -39.5t6 -42t18 -38.5t39.5 -28t72 -10.5v-231q-36 0 -60.5 5t-42.5 13t-31 17t-26 16.5t-29 12t-39 3.5q-21 -1 -49.5 -11.5t-68 -23
t-93.5 -22.5t-126 -10v231zM481 -205q6 -22 3.5 -46.5t-13.5 -46t-30 -37t-46 -18.5q-38 -5 -91 -11.5t-105 -9.5t-94 0.5t-57 20.5q-22 38 -13 78t33 70q48 13 103 25.5t110.5 16t107 -5t92.5 -36.5z" />
    <glyph glyph-name="u0649" unicode="&#x649;" horiz-adv-x="1235" arabic-form="isolated" 
d="M992 392q-58 1 -98 -29.5t-47 -81.5q-1 -23 15 -38.5t40.5 -29t53.5 -28.5t55 -36.5t44.5 -52.5t21.5 -78q2 -26 0.5 -51t-10 -52t-26.5 -56.5t-49 -64.5q-45 -42 -106 -84t-139 -77q-57 -26 -129.5 -38t-148.5 -7.5t-148.5 26t-128.5 62.5q-51 37 -88.5 90t-61 117.5
t-32 139.5t-0.5 155q15 61 47 105.5t71.5 64.5t81 11.5t76.5 -53.5q0 -39 -1.5 -83.5t-1 -89.5t5.5 -88t18 -79.5t37 -64.5t62 -43q36 -14 78.5 -17.5t85.5 2t83.5 18.5t71.5 32t49 42.5t17 50.5q-6 19 -22 28t-35.5 13.5t-39.5 8t-35 11.5q-20 10 -38.5 32t-32 55t-19.5 78
t0 101q5 51 35 97.5t76 85t103.5 65.5t117.5 39q53 11 104 13.5t92.5 -7.5t70.5 -33.5t38 -63.5q12 -59 2 -87.5t-38.5 -37.5t-74 -4.5t-103.5 12.5z" />
    <glyph glyph-name="uFEF0" unicode="&#x649;" horiz-adv-x="1012" arabic-form="final" 
d="M1028 0q-26 0 -51.5 2t-50 3.5t-49.5 0.5t-50 -7q27 -11 53.5 -21.5t49 -23.5t40.5 -31t27 -43q17 -46 12.5 -85t-23.5 -77q-27 -56 -77.5 -106.5t-124 -87t-168.5 -55t-211 -9.5q-48 3 -87.5 12t-74.5 23.5t-67 34.5t-65 46q-12 10 -27 25.5t-29.5 33t-25.5 33.5t-15 27
q-16 38 -22 100t-1 128t21.5 125t46.5 92q19 21 50.5 32t63.5 10.5t58 -13.5t34 -40q13 -43 14 -92t-1 -98.5t-3 -95.5t8 -83.5t32 -62.5t69 -32q35 -5 83.5 0.5t96.5 19t90 33t65 43.5q-45 22 -91 44t-80 51t-48.5 68.5t3.5 96.5q10 33 37.5 64t66.5 56.5t87.5 44.5
t100.5 29q90 16 151 16h84l-2 -231v0z" />
    <glyph glyph-name=".notdef" horiz-adv-x="1024" 
d="M128 1343h768v-1343h-768v1343zM768 128v1087h-512v-1087h512z" />
    <glyph glyph-name="NULL" 
 />
    <glyph glyph-name="nonmarkingreturn" horiz-adv-x="500" 
 />
    <glyph glyph-name="space" unicode=" " horiz-adv-x="380" 
 />
    <glyph glyph-name="exclam" unicode="!" horiz-adv-x="333" 
d="M98 1034q0 42 17.5 71t43 43.5t56 15.5t56 -13t43 -42.5t17.5 -72.5q0 -50 -3 -105v9q0 215 -87 215t-87 -212q0 -61 24 -218q15 -99 23.5 -162.5t10.5 -93.5l2 -28q4 -58 6.5 -106.5t4.5 -87.5q-7 -13 -12 -13q-12 0 -23.5 29t-22 77t-20 111.5t-17 132t-13.5 138
t-10.5 130.5t-6.5 109t-2 73zM197 175q25 5 45.5 -4t34.5 -25.5t20 -38.5t2.5 -42.5t-18 -37.5t-40.5 -24q-32 -10 -57 -3t-40 24.5t-20.5 40.5t0.5 45.5t24 40.5t49 24zM261 234h-35q0 3 -0.5 6.5t-0.5 6.5q11 20 22.5 67t22.5 111q-4 -56 -6 -104t-3 -87zM304 721
q17 107 21 169q-4 -57 -9.5 -118.5t-13 -121.5t-15.5 -117.5t-17 -107.5l3 45q2 41 10 103.5t21 147.5zM325 890l3 41q-1 -9 -1 -19.5t-2 -21.5z" />
    <glyph glyph-name="percent" unicode="%" horiz-adv-x="1053" 
d="M899 906q-43 -67 -101.5 -166t-134.5 -233l-87 -145l-102 -177q-20 -37 -38.5 -75t-35.5 -76q-18 -39 -60 -54q-41 -15 -81 4q-39 18 -54 59t4 80q17 38 36.5 76t40.5 77l107 188q33 55 54.5 91.5t32.5 56.5q81 141 141 243t102 166q12 18 29.5 29.5t37 15.5t40 0.5
t38.5 -15.5q36 -23 45 -66q10 -41 -14 -79zM279 862q16 -15 24 -34t8 -39t-8 -39.5t-23 -34.5t-34.5 -23t-39.5 -8t-39.5 8t-34.5 23t-23 34.5t-8 39.5t8 39.5t23 34.5t34.5 23t39.5 8t39 -8t34 -24zM949 374q31 -30 31 -74q0 -43 -31 -74q-30 -31 -74 -31q-43 0 -74 31
q-15 15 -22.5 34.5t-7.5 40t7.5 39.5t22.5 34q31 31 74 31q44 0 74 -31z" />
    <glyph glyph-name="parenleft" unicode="(" horiz-adv-x="576" 
d="M536 1015q-156 -291 -160 -564q-4 -274 153 -559q26 -47 12 -98q-13 -52 -62 -79q-47 -27 -99 -12q-51 15 -80 62q-374 666 4 1374q25 48 78 63q52 15 99 -11q48 -25 64 -77q16 -53 -9 -99z" />
    <glyph glyph-name="parenright" unicode=")" horiz-adv-x="576" 
d="M135 -111q154 289 159 564q5 276 -152 559q-26 47 -12 98q13 51 61 79q48 27 100 12q51 -15 80 -62q374 -666 -4 -1374q-26 -48 -78 -63t-100 11q-47 26 -63 77q-17 52 9 99z" />
    <glyph glyph-name="asterisk" unicode="*" horiz-adv-x="1045" 
d="M745 812q37 40 90 42q55 2 94 -35t41 -91q2 -55 -34 -92l-186 -200l147 -104q44 -30 55 -84q11 -53 -18 -97q-28 -43 -80 -55q-50 -11 -93 15l1 -7q11 -53 -20 -97q-30 -44 -84 -54q-54 -11 -97 19q-44 30 -56 84q-5 30 -11.5 62.5t-14.5 67.5q-29 -23 -58.5 -45.5
t-59.5 -42.5q-44 -31 -97 -20q-53 10 -84 54q-32 43 -21 96q10 52 56 84q32 22 65 46.5t65 51.5l-145 104q-46 31 -56 83q-9 53 21 98q31 44 84 55q53 10 97 -22l11 -8l-6 36q-11 54 21 98t85 53q54 10 97 -21q43 -30 54 -84l21 -114z" />
    <glyph glyph-name="plus" unicode="+" horiz-adv-x="767" 
d="M159 324q-18 0 -33.5 6t-27 17t-18.5 26t-7 32q0 18 6 33.5t17 27.5t26 19t33 7l170 5q2 30 4 60.5t4 61.5q3 34 30 56t61 19q18 -1 32.5 -8.5t25 -20t15.5 -28t4 -33.5q-2 -26 -3.5 -51t-3.5 -50q23 1 45.5 1h42.5q35 0 60 -24t25 -59q0 -17 -6.5 -32t-17.5 -26.5
t-26 -18.5t-33 -7q-46 0 -98 -3q-1 -79 0 -158q0 -18 -6 -33t-17 -26.5t-26 -18.5t-33 -7t-33 6t-26.5 17t-18.5 26.5t-7 33.5q-2 77 0 155z" />
    <glyph glyph-name="comma" unicode="," horiz-adv-x="418" 
d="M286 214q66 -8 96 -43t33 -83t-16 -101.5t-49 -97.5t-67 -71.5t-71 -24.5q-11 1 -7.5 11t15 26t27.5 38t29.5 46t21 50t2.5 51q-9 -6 -23.5 -9.5t-29.5 -5t-28.5 -0.5t-20.5 5q-27 13 -40 34.5t-14 46t8.5 49t28 43.5t45.5 29.5t60 6.5z" />
    <glyph glyph-name="hyphen" unicode="-" horiz-adv-x="767" 
d="M553 546q57 0 98 -41t41 -98t-41 -98q-40 -40 -98 -40h-307q-58 0 -98 40t-40 98t40 98q41 41 98 41h307z" />
    <glyph glyph-name="period" unicode="." horiz-adv-x="334" 
d="M229 180q25 5 45.5 -4t34.5 -25.5t20 -38.5t2.5 -42.5t-18 -37.5t-40.5 -24q-33 -10 -57.5 -3t-39.5 24.5t-20.5 40.5t0.5 45.5t24 40.5t49 24z" />
    <glyph glyph-name="slash" unicode="/" horiz-adv-x="521" 
d="M508 1053q-9 -45 -18.5 -85.5t-19.5 -78.5q-23 -83 -57 -201q-17 -59 -28.5 -99.5t-17.5 -63.5q-14 -48 -30 -115t-34 -155t-30 -145.5t-19 -86.5q-13 -52 -61 -81q-46 -30 -100 -16q-54 13 -84 60q-28 46 -15 100q7 28 19.5 86t31.5 149q20 91 36 160t29 118l45 157
q33 109 54 189q22 80 39 161q10 54 57 84q46 31 101 19q54 -11 84 -57q30 -47 18 -99z" />
    <glyph glyph-name="zero" unicode="0" horiz-adv-x="276" 
d="M111 642q38 7 69.5 -9t54 -44.5t33 -65t7 -71t-23.5 -62.5t-59 -39q-49 -15 -87 -2t-62.5 42.5t-34.5 69t-2.5 77t33 66.5t72.5 38z" />
    <glyph glyph-name="zero" unicode="&#x6f0;" horiz-adv-x="276" 
d="M111 642q38 7 69.5 -9t54 -44.5t33 -65t7 -71t-23.5 -62.5t-59 -39q-49 -15 -87 -2t-62.5 42.5t-34.5 69t-2.5 77t33 66.5t72.5 38z" />
    <glyph glyph-name="zero" unicode="&#x660;" horiz-adv-x="276" 
d="M111 642q38 7 69.5 -9t54 -44.5t33 -65t7 -71t-23.5 -62.5t-59 -39q-49 -15 -87 -2t-62.5 42.5t-34.5 69t-2.5 77t33 66.5t72.5 38z" />
    <glyph glyph-name="one" unicode="1" horiz-adv-x="406" 
d="M195 1112q31 -36 56 -99t43.5 -133.5t31 -138t20.5 -112.5q1 -10 8 -54t15 -107t14.5 -135.5t6.5 -139t-10 -118.5t-34 -73q-35 -30 -64 -30.5t-52 17t-39 46t-23 55.5q-20 74 -30.5 151.5t-18 153.5t-14.5 146.5t-19 130.5q-7 33 -22.5 77t-29.5 95.5t-22 108.5t-1 116
q3 25 24 44t49 27.5t58.5 2.5t52.5 -31z" />
    <glyph glyph-name="one" unicode="&#x6f1;" horiz-adv-x="406" 
d="M195 1112q31 -36 56 -99t43.5 -133.5t31 -138t20.5 -112.5q1 -10 8 -54t15 -107t14.5 -135.5t6.5 -139t-10 -118.5t-34 -73q-35 -30 -64 -30.5t-52 17t-39 46t-23 55.5q-20 74 -30.5 151.5t-18 153.5t-14.5 146.5t-19 130.5q-7 33 -22.5 77t-29.5 95.5t-22 108.5t-1 116
q3 25 24 44t49 27.5t58.5 2.5t52.5 -31z" />
    <glyph glyph-name="one" unicode="&#x661;" horiz-adv-x="406" 
d="M195 1112q31 -36 56 -99t43.5 -133.5t31 -138t20.5 -112.5q1 -10 8 -54t15 -107t14.5 -135.5t6.5 -139t-10 -118.5t-34 -73q-35 -30 -64 -30.5t-52 17t-39 46t-23 55.5q-20 74 -30.5 151.5t-18 153.5t-14.5 146.5t-19 130.5q-7 33 -22.5 77t-29.5 95.5t-22 108.5t-1 116
q3 25 24 44t49 27.5t58.5 2.5t52.5 -31z" />
    <glyph glyph-name="two" unicode="2" horiz-adv-x="685" 
d="M621 1095q43 -31 53.5 -78.5t-2.5 -100.5t-45 -105t-74 -92t-89.5 -62.5t-91.5 -15.5q4 -52 16 -123t22.5 -147.5t14.5 -150.5t-8 -132.5t-45.5 -93t-97.5 -31.5q-14 2 -21.5 4t-11.5 5.5t-6 9t-4 14.5q-14 121 -37.5 237t-49.5 221t-52.5 196.5t-45.5 162.5t-28.5 119
t-2.5 67q19 51 67 69.5t106 5.5q18 -4 29 -18t18.5 -33.5t13 -41.5t12.5 -41.5t17.5 -33.5t28.5 -18q48 -12 80 -5t53 25.5t33.5 45t21.5 54t17.5 52t21.5 39t33.5 15.5t53.5 -19z" />
    <glyph glyph-name="two" unicode="&#x6f2;" horiz-adv-x="685" 
d="M621 1095q43 -31 53.5 -78.5t-2.5 -100.5t-45 -105t-74 -92t-89.5 -62.5t-91.5 -15.5q4 -52 16 -123t22.5 -147.5t14.5 -150.5t-8 -132.5t-45.5 -93t-97.5 -31.5q-14 2 -21.5 4t-11.5 5.5t-6 9t-4 14.5q-14 121 -37.5 237t-49.5 221t-52.5 196.5t-45.5 162.5t-28.5 119
t-2.5 67q19 51 67 69.5t106 5.5q18 -4 29 -18t18.5 -33.5t13 -41.5t12.5 -41.5t17.5 -33.5t28.5 -18q48 -12 80 -5t53 25.5t33.5 45t21.5 54t17.5 52t21.5 39t33.5 15.5t53.5 -19z" />
    <glyph glyph-name="two" unicode="&#x662;" horiz-adv-x="685" 
d="M621 1095q43 -31 53.5 -78.5t-2.5 -100.5t-45 -105t-74 -92t-89.5 -62.5t-91.5 -15.5q4 -52 16 -123t22.5 -147.5t14.5 -150.5t-8 -132.5t-45.5 -93t-97.5 -31.5q-14 2 -21.5 4t-11.5 5.5t-6 9t-4 14.5q-14 121 -37.5 237t-49.5 221t-52.5 196.5t-45.5 162.5t-28.5 119
t-2.5 67q19 51 67 69.5t106 5.5q18 -4 29 -18t18.5 -33.5t13 -41.5t12.5 -41.5t17.5 -33.5t28.5 -18q48 -12 80 -5t53 25.5t33.5 45t21.5 54t17.5 52t21.5 39t33.5 15.5t53.5 -19z" />
    <glyph glyph-name="three" unicode="3" horiz-adv-x="795" 
d="M321 919q18 5 23 24t7 42t5.5 44.5t18.5 30.5q18 10 37 14t37 2t32.5 -9t23.5 -18q8 -10 11 -24.5l6 -29t8.5 -26.5t17.5 -17q16 -7 22 7.5t9.5 37.5t7.5 47.5t16 37.5q18 18 43.5 27t50 7.5t46 -12.5t32.5 -33q14 -49 14 -102t-13.5 -100t-40 -85t-66 -57.5t-91.5 -16.5
t-116 37q-27 -8 -45 -14t-28.5 -12.5t-15.5 -14.5t-6 -21q-3 -22 3 -56.5t14.5 -73t17.5 -76.5t12 -68q6 -51 10 -105.5t2.5 -105.5t-10.5 -96t-30 -77t-55 -47t-85 -7q-11 2 -20 20.5t-16.5 48t-14 67t-11.5 77.5t-8.5 78.5t-5.5 71.5q-3 42 -11.5 95.5t-20 109t-26 107
t-29.5 88.5q-13 31 -30 61t-30 60t-18.5 61.5t3.5 65.5q7 28 25 56.5t44.5 46.5t60.5 22t75 -17q14 -8 23.5 -25t16.5 -38t12.5 -42.5t12.5 -38.5t17 -25.5t26 -3.5z" />
    <glyph glyph-name="three" unicode="&#x6f3;" horiz-adv-x="795" 
d="M321 919q18 5 23 24t7 42t5.5 44.5t18.5 30.5q18 10 37 14t37 2t32.5 -9t23.5 -18q8 -10 11 -24.5l6 -29t8.5 -26.5t17.5 -17q16 -7 22 7.5t9.5 37.5t7.5 47.5t16 37.5q18 18 43.5 27t50 7.5t46 -12.5t32.5 -33q14 -49 14 -102t-13.5 -100t-40 -85t-66 -57.5t-91.5 -16.5
t-116 37q-27 -8 -45 -14t-28.5 -12.5t-15.5 -14.5t-6 -21q-3 -22 3 -56.5t14.5 -73t17.5 -76.5t12 -68q6 -51 10 -105.5t2.5 -105.5t-10.5 -96t-30 -77t-55 -47t-85 -7q-11 2 -20 20.5t-16.5 48t-14 67t-11.5 77.5t-8.5 78.5t-5.5 71.5q-3 42 -11.5 95.5t-20 109t-26 107
t-29.5 88.5q-13 31 -30 61t-30 60t-18.5 61.5t3.5 65.5q7 28 25 56.5t44.5 46.5t60.5 22t75 -17q14 -8 23.5 -25t16.5 -38t12.5 -42.5t12.5 -38.5t17 -25.5t26 -3.5z" />
    <glyph glyph-name="three" unicode="&#x663;" horiz-adv-x="795" 
d="M321 919q18 5 23 24t7 42t5.5 44.5t18.5 30.5q18 10 37 14t37 2t32.5 -9t23.5 -18q8 -10 11 -24.5l6 -29t8.5 -26.5t17.5 -17q16 -7 22 7.5t9.5 37.5t7.5 47.5t16 37.5q18 18 43.5 27t50 7.5t46 -12.5t32.5 -33q14 -49 14 -102t-13.5 -100t-40 -85t-66 -57.5t-91.5 -16.5
t-116 37q-27 -8 -45 -14t-28.5 -12.5t-15.5 -14.5t-6 -21q-3 -22 3 -56.5t14.5 -73t17.5 -76.5t12 -68q6 -51 10 -105.5t2.5 -105.5t-10.5 -96t-30 -77t-55 -47t-85 -7q-11 2 -20 20.5t-16.5 48t-14 67t-11.5 77.5t-8.5 78.5t-5.5 71.5q-3 42 -11.5 95.5t-20 109t-26 107
t-29.5 88.5q-13 31 -30 61t-30 60t-18.5 61.5t3.5 65.5q7 28 25 56.5t44.5 46.5t60.5 22t75 -17q14 -8 23.5 -25t16.5 -38t12.5 -42.5t12.5 -38.5t17 -25.5t26 -3.5z" />
    <glyph glyph-name="four" unicode="4" horiz-adv-x="755" 
d="M458 950q-34 -2 -44 -21t-10 -48t21 -41.5t53 -15.5t70.5 1t73.5 7.5t62 4t37 -7.5q33 -45 33.5 -80.5t-21 -63.5t-60.5 -49t-84.5 -36t-93.5 -25t-88 -16q4 -44 14 -94.5t22 -101.5t23.5 -101t19 -95t8 -82t-9.5 -62q-7 -18 -14 -28t-15.5 -15.5t-20 -7.5t-26.5 -4
q-29 -3 -55 4t-47.5 25t-37 48.5t-22.5 74.5q-7 101 -23 193.5t-40 179.5t-54.5 170t-67.5 166q-8 16 -18.5 32t-19.5 34t-13.5 37.5t0.5 42.5q6 26 30 43t54.5 23t63 -0.5t55.5 -27.5q9 22 19.5 43t24 39t31.5 33t43 26q34 14 77.5 21.5t87.5 7t85 -11t70.5 -32.5t43.5 -57
t4 -84q-2 -10 -8 -23t-17 -25.5t-26 -23t-35 -14.5q-30 -6 -48 -0.5t-33 14.5t-31 17t-43 7z" />
    <glyph glyph-name="four" unicode="&#x6f4;" horiz-adv-x="755" 
d="M458 950q-34 -2 -44 -21t-10 -48t21 -41.5t53 -15.5t70.5 1t73.5 7.5t62 4t37 -7.5q33 -45 33.5 -80.5t-21 -63.5t-60.5 -49t-84.5 -36t-93.5 -25t-88 -16q4 -44 14 -94.5t22 -101.5t23.5 -101t19 -95t8 -82t-9.5 -62q-7 -18 -14 -28t-15.5 -15.5t-20 -7.5t-26.5 -4
q-29 -3 -55 4t-47.5 25t-37 48.5t-22.5 74.5q-7 101 -23 193.5t-40 179.5t-54.5 170t-67.5 166q-8 16 -18.5 32t-19.5 34t-13.5 37.5t0.5 42.5q6 26 30 43t54.5 23t63 -0.5t55.5 -27.5q9 22 19.5 43t24 39t31.5 33t43 26q34 14 77.5 21.5t87.5 7t85 -11t70.5 -32.5t43.5 -57
t4 -84q-2 -10 -8 -23t-17 -25.5t-26 -23t-35 -14.5q-30 -6 -48 -0.5t-33 14.5t-31 17t-43 7z" />
    <glyph glyph-name="four" unicode="&#x664;" horiz-adv-x="755" 
d="M458 950q-34 -2 -44 -21t-10 -48t21 -41.5t53 -15.5t70.5 1t73.5 7.5t62 4t37 -7.5q33 -45 33.5 -80.5t-21 -63.5t-60.5 -49t-84.5 -36t-93.5 -25t-88 -16q4 -44 14 -94.5t22 -101.5t23.5 -101t19 -95t8 -82t-9.5 -62q-7 -18 -14 -28t-15.5 -15.5t-20 -7.5t-26.5 -4
q-29 -3 -55 4t-47.5 25t-37 48.5t-22.5 74.5q-7 101 -23 193.5t-40 179.5t-54.5 170t-67.5 166q-8 16 -18.5 32t-19.5 34t-13.5 37.5t0.5 42.5q6 26 30 43t54.5 23t63 -0.5t55.5 -27.5q9 22 19.5 43t24 39t31.5 33t43 26q34 14 77.5 21.5t87.5 7t85 -11t70.5 -32.5t43.5 -57
t4 -84q-2 -10 -8 -23t-17 -25.5t-26 -23t-35 -14.5q-30 -6 -48 -0.5t-33 14.5t-31 17t-43 7z" />
    <glyph glyph-name="five" unicode="5" horiz-adv-x="938" 
d="M920 489q18 -119 5 -216t-54 -165t-110.5 -103t-163.5 -31q-51 2 -87 25t-62 60q-12 -20 -35.5 -35t-53.5 -25t-63 -15.5t-63.5 -6.5t-55.5 2t-39 10q-26 12 -44.5 36t-32 53.5t-22.5 61.5t-15 60q-14 71 -7.5 142t26 140t49.5 134.5t62.5 125.5t64.5 114.5t57 101.5
q-16 33 -24 59.5t-7 49.5t11.5 44.5t33.5 42.5q36 36 73.5 38t73.5 -17t70.5 -53t64.5 -71t54.5 -70t41.5 -50q7 -9 26.5 -35t45.5 -63t55.5 -81t55 -90t44.5 -91t25 -82zM568 284q50 -13 73 8t25.5 61.5t-12 94t-38 106.5t-53.5 98t-58 68q-29 -18 -56 -44.5t-50.5 -53.5
t-41 -50t-26.5 -33q-35 -44 -45 -89.5t-2.5 -83.5t29 -62t51.5 -24q20 0 30 11t15.5 26.5t9 34t10.5 33t20.5 23.5t39.5 6q22 -2 31.5 -11.5t13 -22.5t3 -28t1 -28.5t7.5 -24.5t23 -15z" />
    <glyph glyph-name="five" unicode="&#x6f5;" horiz-adv-x="938" 
d="M920 489q18 -119 5 -216t-54 -165t-110.5 -103t-163.5 -31q-51 2 -87 25t-62 60q-12 -20 -35.5 -35t-53.5 -25t-63 -15.5t-63.5 -6.5t-55.5 2t-39 10q-26 12 -44.5 36t-32 53.5t-22.5 61.5t-15 60q-14 71 -7.5 142t26 140t49.5 134.5t62.5 125.5t64.5 114.5t57 101.5
q-16 33 -24 59.5t-7 49.5t11.5 44.5t33.5 42.5q36 36 73.5 38t73.5 -17t70.5 -53t64.5 -71t54.5 -70t41.5 -50q7 -9 26.5 -35t45.5 -63t55.5 -81t55 -90t44.5 -91t25 -82zM568 284q50 -13 73 8t25.5 61.5t-12 94t-38 106.5t-53.5 98t-58 68q-29 -18 -56 -44.5t-50.5 -53.5
t-41 -50t-26.5 -33q-35 -44 -45 -89.5t-2.5 -83.5t29 -62t51.5 -24q20 0 30 11t15.5 26.5t9 34t10.5 33t20.5 23.5t39.5 6q22 -2 31.5 -11.5t13 -22.5t3 -28t1 -28.5t7.5 -24.5t23 -15z" />
    <glyph glyph-name="five" unicode="&#x665;" horiz-adv-x="938" 
d="M920 489q18 -119 5 -216t-54 -165t-110.5 -103t-163.5 -31q-51 2 -87 25t-62 60q-12 -20 -35.5 -35t-53.5 -25t-63 -15.5t-63.5 -6.5t-55.5 2t-39 10q-26 12 -44.5 36t-32 53.5t-22.5 61.5t-15 60q-14 71 -7.5 142t26 140t49.5 134.5t62.5 125.5t64.5 114.5t57 101.5
q-16 33 -24 59.5t-7 49.5t11.5 44.5t33.5 42.5q36 36 73.5 38t73.5 -17t70.5 -53t64.5 -71t54.5 -70t41.5 -50q7 -9 26.5 -35t45.5 -63t55.5 -81t55 -90t44.5 -91t25 -82zM568 284q50 -13 73 8t25.5 61.5t-12 94t-38 106.5t-53.5 98t-58 68q-29 -18 -56 -44.5t-50.5 -53.5
t-41 -50t-26.5 -33q-35 -44 -45 -89.5t-2.5 -83.5t29 -62t51.5 -24q20 0 30 11t15.5 26.5t9 34t10.5 33t20.5 23.5t39.5 6q22 -2 31.5 -11.5t13 -22.5t3 -28t1 -28.5t7.5 -24.5t23 -15z" />
    <glyph glyph-name="six" unicode="6" horiz-adv-x="835" 
d="M677 1100q25 -14 34 -40t7 -56.5t-13.5 -61.5t-27.5 -55q-41 8 -83.5 7.5t-80.5 -9t-67.5 -25t-44.5 -40.5t-12.5 -55.5t29.5 -69.5q25 -14 53 -6.5t58.5 25.5t62.5 41.5t64 43t63 30t60 1.5q15 -5 26.5 -20.5t17.5 -38.5t6.5 -51.5t-6.5 -58.5q-5 -24 -20 -43.5t-35 -36
t-44 -30t-47 -25.5q-62 -32 -127.5 -87t-128 -118t-120 -128t-103 -116.5t-76.5 -83.5t-41 -29q-26 7 -46.5 23t-24.5 42q-6 33 4 78t30.5 94t47 97.5t54 88.5t52 68.5t40.5 37.5q-14 19 -28.5 35t-27.5 32.5t-24.5 35.5t-20.5 43q-20 55 -19.5 113.5t16.5 111.5t43.5 97.5
t60.5 71.5q40 32 92.5 58t111 38.5t119 7t116.5 -36.5z" />
    <glyph glyph-name="six" unicode="&#x6f6;" horiz-adv-x="835" 
d="M677 1100q25 -14 34 -40t7 -56.5t-13.5 -61.5t-27.5 -55q-41 8 -83.5 7.5t-80.5 -9t-67.5 -25t-44.5 -40.5t-12.5 -55.5t29.5 -69.5q25 -14 53 -6.5t58.5 25.5t62.5 41.5t64 43t63 30t60 1.5q15 -5 26.5 -20.5t17.5 -38.5t6.5 -51.5t-6.5 -58.5q-5 -24 -20 -43.5t-35 -36
t-44 -30t-47 -25.5q-62 -32 -127.5 -87t-128 -118t-120 -128t-103 -116.5t-76.5 -83.5t-41 -29q-26 7 -46.5 23t-24.5 42q-6 33 4 78t30.5 94t47 97.5t54 88.5t52 68.5t40.5 37.5q-14 19 -28.5 35t-27.5 32.5t-24.5 35.5t-20.5 43q-20 55 -19.5 113.5t16.5 111.5t43.5 97.5
t60.5 71.5q40 32 92.5 58t111 38.5t119 7t116.5 -36.5z" />
    <glyph glyph-name="six" unicode="&#x666;" horiz-adv-x="835" 
d="M677 1100q25 -14 34 -40t7 -56.5t-13.5 -61.5t-27.5 -55q-41 8 -83.5 7.5t-80.5 -9t-67.5 -25t-44.5 -40.5t-12.5 -55.5t29.5 -69.5q25 -14 53 -6.5t58.5 25.5t62.5 41.5t64 43t63 30t60 1.5q15 -5 26.5 -20.5t17.5 -38.5t6.5 -51.5t-6.5 -58.5q-5 -24 -20 -43.5t-35 -36
t-44 -30t-47 -25.5q-62 -32 -127.5 -87t-128 -118t-120 -128t-103 -116.5t-76.5 -83.5t-41 -29q-26 7 -46.5 23t-24.5 42q-6 33 4 78t30.5 94t47 97.5t54 88.5t52 68.5t40.5 37.5q-14 19 -28.5 35t-27.5 32.5t-24.5 35.5t-20.5 43q-20 55 -19.5 113.5t16.5 111.5t43.5 97.5
t60.5 71.5q40 32 92.5 58t111 38.5t119 7t116.5 -36.5z" />
    <glyph glyph-name="seven" unicode="7" horiz-adv-x="896" 
d="M226 1122q19 -15 38.5 -61t37.5 -109t34.5 -136.5t30.5 -144.5t24.5 -133t16.5 -102q19 44 39 103t42 124.5t46.5 132.5t51 126.5t56.5 107.5t63.5 75t71 28.5t79.5 -31.5q18 -15 27 -46.5t6 -73.5t-18 -91t-44 -97q-53 -89 -96 -178t-78 -172.5t-63.5 -158.5t-52.5 -136
t-44 -105t-39 -66q-13 -14 -43 -16.5t-61 4.5t-55 22t-24 36q-2 97 -18.5 199.5t-43.5 204t-61.5 199t-71.5 186.5q-9 21 -20.5 44.5t-22 45t-18 40t-8.5 30.5q-2 45 13 84.5t44 64.5q16 13 37 19t43.5 6t43.5 -6.5t37 -18.5z" />
    <glyph glyph-name="seven" unicode="&#x6f7;" horiz-adv-x="896" 
d="M226 1122q19 -15 38.5 -61t37.5 -109t34.5 -136.5t30.5 -144.5t24.5 -133t16.5 -102q19 44 39 103t42 124.5t46.5 132.5t51 126.5t56.5 107.5t63.5 75t71 28.5t79.5 -31.5q18 -15 27 -46.5t6 -73.5t-18 -91t-44 -97q-53 -89 -96 -178t-78 -172.5t-63.5 -158.5t-52.5 -136
t-44 -105t-39 -66q-13 -14 -43 -16.5t-61 4.5t-55 22t-24 36q-2 97 -18.5 199.5t-43.5 204t-61.5 199t-71.5 186.5q-9 21 -20.5 44.5t-22 45t-18 40t-8.5 30.5q-2 45 13 84.5t44 64.5q16 13 37 19t43.5 6t43.5 -6.5t37 -18.5z" />
    <glyph glyph-name="seven" unicode="&#x667;" horiz-adv-x="896" 
d="M226 1122q19 -15 38.5 -61t37.5 -109t34.5 -136.5t30.5 -144.5t24.5 -133t16.5 -102q19 44 39 103t42 124.5t46.5 132.5t51 126.5t56.5 107.5t63.5 75t71 28.5t79.5 -31.5q18 -15 27 -46.5t6 -73.5t-18 -91t-44 -97q-53 -89 -96 -178t-78 -172.5t-63.5 -158.5t-52.5 -136
t-44 -105t-39 -66q-13 -14 -43 -16.5t-61 4.5t-55 22t-24 36q-2 97 -18.5 199.5t-43.5 204t-61.5 199t-71.5 186.5q-9 21 -20.5 44.5t-22 45t-18 40t-8.5 30.5q-2 45 13 84.5t44 64.5q16 13 37 19t43.5 6t43.5 -6.5t37 -18.5z" />
    <glyph glyph-name="eight" unicode="8" horiz-adv-x="861" 
d="M789 -22q-62 -8 -103 7.5t-69.5 45t-48.5 67.5t-40 74q-18 33 -35 86t-33.5 109t-32 107t-30.5 80q-6 -18 -15 -47t-19 -64t-21 -73t-21 -74.5t-19 -68.5t-15 -54q-8 -32 -16.5 -64.5t-21.5 -60t-33.5 -47.5t-52.5 -26q-47 -9 -82.5 8t-55 50t-21.5 76.5t18 87.5
q10 22 20.5 40t21.5 39.5t23 50t26 71.5q11 33 26 95t31.5 136.5t34 153.5t34 147.5t31 118t24.5 64.5q13 19 31 27t38 9.5t39.5 -1t35.5 -5.5q35 -8 52.5 -39t26.5 -74t14 -93.5t15 -96.5q2 -13 11 -43t21.5 -69t28 -83t30 -85t27.5 -75.5t21 -53.5q16 -37 42 -79.5t52 -86
t47 -86t27.5 -80t-7.5 -69t-57 -52.5z" />
    <glyph glyph-name="eight" unicode="&#x6f8;" horiz-adv-x="861" 
d="M789 -22q-62 -8 -103 7.5t-69.5 45t-48.5 67.5t-40 74q-18 33 -35 86t-33.5 109t-32 107t-30.5 80q-6 -18 -15 -47t-19 -64t-21 -73t-21 -74.5t-19 -68.5t-15 -54q-8 -32 -16.5 -64.5t-21.5 -60t-33.5 -47.5t-52.5 -26q-47 -9 -82.5 8t-55 50t-21.5 76.5t18 87.5
q10 22 20.5 40t21.5 39.5t23 50t26 71.5q11 33 26 95t31.5 136.5t34 153.5t34 147.5t31 118t24.5 64.5q13 19 31 27t38 9.5t39.5 -1t35.5 -5.5q35 -8 52.5 -39t26.5 -74t14 -93.5t15 -96.5q2 -13 11 -43t21.5 -69t28 -83t30 -85t27.5 -75.5t21 -53.5q16 -37 42 -79.5t52 -86
t47 -86t27.5 -80t-7.5 -69t-57 -52.5z" />
    <glyph glyph-name="eight" unicode="&#x668;" horiz-adv-x="861" 
d="M789 -22q-62 -8 -103 7.5t-69.5 45t-48.5 67.5t-40 74q-18 33 -35 86t-33.5 109t-32 107t-30.5 80q-6 -18 -15 -47t-19 -64t-21 -73t-21 -74.5t-19 -68.5t-15 -54q-8 -32 -16.5 -64.5t-21.5 -60t-33.5 -47.5t-52.5 -26q-47 -9 -82.5 8t-55 50t-21.5 76.5t18 87.5
q10 22 20.5 40t21.5 39.5t23 50t26 71.5q11 33 26 95t31.5 136.5t34 153.5t34 147.5t31 118t24.5 64.5q13 19 31 27t38 9.5t39.5 -1t35.5 -5.5q35 -8 52.5 -39t26.5 -74t14 -93.5t15 -96.5q2 -13 11 -43t21.5 -69t28 -83t30 -85t27.5 -75.5t21 -53.5q16 -37 42 -79.5t52 -86
t47 -86t27.5 -80t-7.5 -69t-57 -52.5z" />
    <glyph glyph-name="nine" unicode="9" horiz-adv-x="698" 
d="M606 473q5 -20 14 -50.5t19.5 -66t21.5 -74.5t18.5 -75.5t11.5 -68.5t1 -54q-7 -50 -32 -78t-56.5 -34t-64.5 8.5t-57 49.5q-12 18 -22.5 51t-20 74t-18 86.5t-17 88.5t-17.5 80.5t-19 62.5q-51 0 -102 4t-94.5 13.5t-75.5 26.5t-45 43q-15 28 -27 75t-15.5 102.5
t5.5 115.5t37 114t78.5 98t129.5 68q27 8 63 8t72.5 -8t68.5 -24.5t50 -40.5q20 -26 31 -66.5t17 -90t9 -105t6.5 -113t10 -114t19.5 -106.5zM346 722q17 12 28 31.5t15 41t1.5 42t-11.5 35t-25 20.5t-39 -2q-33 -13 -48.5 -34t-17.5 -43.5t7 -44t23.5 -35.5t32 -18.5
t34.5 7.5z" />
    <glyph glyph-name="nine" unicode="&#x6f9;" horiz-adv-x="698" 
d="M606 473q5 -20 14 -50.5t19.5 -66t21.5 -74.5t18.5 -75.5t11.5 -68.5t1 -54q-7 -50 -32 -78t-56.5 -34t-64.5 8.5t-57 49.5q-12 18 -22.5 51t-20 74t-18 86.5t-17 88.5t-17.5 80.5t-19 62.5q-51 0 -102 4t-94.5 13.5t-75.5 26.5t-45 43q-15 28 -27 75t-15.5 102.5
t5.5 115.5t37 114t78.5 98t129.5 68q27 8 63 8t72.5 -8t68.5 -24.5t50 -40.5q20 -26 31 -66.5t17 -90t9 -105t6.5 -113t10 -114t19.5 -106.5zM346 722q17 12 28 31.5t15 41t1.5 42t-11.5 35t-25 20.5t-39 -2q-33 -13 -48.5 -34t-17.5 -43.5t7 -44t23.5 -35.5t32 -18.5
t34.5 7.5z" />
    <glyph glyph-name="nine" unicode="&#x669;" horiz-adv-x="698" 
d="M606 473q5 -20 14 -50.5t19.5 -66t21.5 -74.5t18.5 -75.5t11.5 -68.5t1 -54q-7 -50 -32 -78t-56.5 -34t-64.5 8.5t-57 49.5q-12 18 -22.5 51t-20 74t-18 86.5t-17 88.5t-17.5 80.5t-19 62.5q-51 0 -102 4t-94.5 13.5t-75.5 26.5t-45 43q-15 28 -27 75t-15.5 102.5
t5.5 115.5t37 114t78.5 98t129.5 68q27 8 63 8t72.5 -8t68.5 -24.5t50 -40.5q20 -26 31 -66.5t17 -90t9 -105t6.5 -113t10 -114t19.5 -106.5zM346 722q17 12 28 31.5t15 41t1.5 42t-11.5 35t-25 20.5t-39 -2q-33 -13 -48.5 -34t-17.5 -43.5t7 -44t23.5 -35.5t32 -18.5
t34.5 7.5z" />
    <glyph glyph-name="colon" unicode=":" horiz-adv-x="334" 
d="M167 610q25 5 45.5 -4t34.5 -25.5t20 -38.5t2.5 -42.5t-18 -37.5t-40.5 -24q-32 -10 -57 -3t-40 24.5t-20.5 40.5t0.5 45.5t24 40.5t49 24zM167 180q25 5 45.5 -4t34.5 -25.5t20 -38.5t2.5 -42.5t-18 -37.5t-40.5 -24q-32 -10 -57 -3t-40 24.5t-20.5 40.5t0.5 45.5
t24 40.5t49 24z" />
    <glyph glyph-name="equal" unicode="=" horiz-adv-x="767" 
d="M81 210q-15 0 -22 16.5t-5.5 36.5t12.5 36.5t32 16.5h59h99.5t121 0.5t125 0.5h110.5h78q17 0 23.5 -16.5t5 -37t-10 -37t-21.5 -16.5h-607zM81 456q-15 0 -22 16.5t-5.5 36.5t12.5 36.5t32 16.5h59h99.5t121 0.5t125 0.5h110.5h78q17 0 23.5 -16.5t5 -37t-10 -37
t-21.5 -16.5h-607z" />
    <glyph glyph-name="bracketleft" unicode="[" horiz-adv-x="461" 
d="M277 -158q-20 1 -38.5 3t-35.5 4q-135 20 -174 116q-23 54 0 123l8 16q3 12 4 14t1 5q2 13 2.5 40.5t1.5 71.5q2 118 1 243.5t-5 261.5q-2 94 -3 99v1q-2 2 -11 29q-25 79 16 135q21 29 58 42q8 2 17.5 5t20.5 5q16 4 35 7t42 6l37 2l33 4l26 2q6 1 9.5 1.5t5.5 0.5
q20 1 38.5 -5t33 -18t23.5 -29t11 -38q4 -40 -23 -72q-25 -31 -66 -34l-19 -2q-18 0 -41.5 -2.5t-43.5 -4.5l-9 -1l2 -18q1 -4 2 -31t2 -79q4 -138 5 -266t-1 -249q-1 -48 -2 -79.5t-3 -46.5q-4 -24 -15 -61q3 -1 9 -1q19 -3 51 -3q7 0 18.5 -1t19.5 -1h13q41 -2 68 -33
t24 -71q-1 -20 -10 -37t-23 -29.5t-32 -19.5t-38 -5h-45z" />
    <glyph glyph-name="bracketright" unicode="]" horiz-adv-x="461" 
d="M145 1089q21 -1 39.5 -3t35.5 -4q135 -20 174 -116q23 -54 0 -122l-8 -17q-3 -12 -4 -14t-1 -5q-2 -12 -3 -39.5t-2 -71.5q-2 -118 -0.5 -244t5.5 -262q2 -94 3 -98v-2q2 -2 11 -29q25 -79 -16 -135q-21 -28 -59 -42q-8 -2 -17.5 -5t-20.5 -5q-15 -3 -34 -6t-42 -7
l-38 -2l-32 -4l-26 -2q-6 -1 -9.5 -1.5t-5.5 -0.5q-20 -2 -38.5 4.5t-33 18.5t-24 29t-10.5 38q-4 39 22 72q26 30 67 35l18 1q18 1 41.5 3t44.5 4l9 1l-3 17q-2 7 -3 111q-4 138 -5 266.5t1 249.5q1 48 2 79.5t3 46.5q3 24 15 60q-3 1 -9 1q-10 2 -23 3t-29 1
q-6 0 -17.5 0.5t-19.5 0.5h-14q-40 1 -67 33q-27 31 -24 71q1 20 10 37t23 29.5t32 19t38 5.5h44z" />
    <glyph glyph-name="braceleft" unicode="{" horiz-adv-x="981" 
d="M302 550q-8 40 0 60t22 37q15 18 32.5 36.5t34 39t30.5 44.5t22 53q6 25 7.5 62.5t1.5 81v90.5t1.5 91.5t6.5 84.5t16 69q15 39 39 82.5t57 78t74 52t89 3.5q44 -17 43 -54q-2 -33 -16.5 -54t-33.5 -37.5t-38.5 -32.5t-30.5 -38q-20 -40 -23.5 -100t-3 -130t-0.5 -143.5
t-15 -139.5t-46.5 -119t-94.5 -81q52 -25 82.5 -68.5t47 -99t22.5 -119.5t9 -131t6.5 -133.5t14.5 -125.5q4 -23 14.5 -35t24 -20.5t28.5 -17t29 -24.5q33 -37 36.5 -65.5t-12.5 -47.5t-46 -27t-63.5 -4t-65.5 20.5t-52 47.5q-25 37 -42 65.5t-28 53.5t-17.5 49.5
t-10.5 54.5q-5 45 -3.5 108.5t1 128t-6 122t-24.5 92.5q-17 29 -34.5 40t-33.5 20.5t-29 25t-21 54.5z" />
    <glyph glyph-name="braceright" unicode="}" horiz-adv-x="981" 
d="M679 644q8 -40 0 -60t-22 -37q-15 -18 -32.5 -36t-34.5 -39t-31 -45t-21 -53q-10 -38 -10 -101t0.5 -132.5t-3.5 -135.5t-20 -110q-15 -39 -39 -82.5t-57 -78t-74 -52t-89 -3.5q-44 17 -43 54q2 33 16.5 54t34 37.5t38.5 32t30 38.5q14 30 19.5 72t6.5 91t0 102.5
t1 107.5t9 105.5t24.5 96.5t46.5 80.5t76 57.5q-52 25 -82.5 68.5t-47 99t-23 119.5t-9 131t-6 133.5t-14.5 125.5q-4 22 -14.5 34.5t-24 21t-28.5 17t-29 24.5q-33 37 -36.5 65.5t12.5 47.5t46 27t63.5 4t65.5 -20.5t52 -47.5q25 -38 41.5 -66t28 -53t18 -49.5t10.5 -54.5
q4 -45 3 -108.5t-1 -128t6 -122.5t25 -92q16 -29 34 -40t34 -20.5t29 -25t21 -54.5z" />
    <glyph glyph-name="guillemotleft" unicode="&#xab;" horiz-adv-x="854" 
d="M67 523q23 33 54 83.5t67 105.5t74.5 107t76 88t72 49.5t62.5 -9.5q23 -18 22 -47.5t-17 -65.5t-42 -76.5t-54.5 -81.5t-55.5 -80.5t-43 -72.5q14 -33 40 -69t55 -71.5t56 -70.5t43.5 -67t16.5 -60t-25 -50q-21 -20 -52 -8.5t-68 42.5t-76.5 77t-77.5 95.5t-71 97.5
t-57 84zM363 523q23 33 54 83.5t67 105.5t74.5 107t76 88.5t72.5 49.5t63 -10q22 -18 21 -47t-17 -65.5t-42 -77t-54.5 -82t-55.5 -80.5t-44 -72q14 -34 40.5 -70t56 -71.5t57 -70t43.5 -66.5t16 -60t-25 -50q-22 -20 -53.5 -8.5t-68 42.5t-75.5 77t-76.5 95.5t-71 97.5
t-58.5 84z" />
    <glyph glyph-name="guillemotright" unicode="&#xbb;" horiz-adv-x="816" 
d="M776 526q-24 -35 -57 -82.5t-69.5 -96t-75.5 -94t-75 -76t-67 -41.5t-52 8q-25 22 -24.5 49.5t16 59t42.5 65.5t55.5 69.5t54.5 70.5t40 68q-16 33 -42 71.5t-54.5 79t-54 80.5t-41 75.5t-16.5 64t21 46.5q27 22 61 9t71 -48.5t75 -87t73 -105t66 -103.5t53 -82zM484 526
q-24 -35 -56.5 -82.5t-69.5 -96t-75.5 -94t-74.5 -76t-67 -41.5t-52 8q-25 22 -25 49.5t16 59t43 65.5t56 69.5t55 70.5t40 68q-17 33 -43.5 71.5t-54.5 79t-54 80.5t-41.5 75.5t-16.5 64t21 46.5q28 22 62.5 8.5t71 -49t74.5 -86.5t73 -104.5t65.5 -103.5t52.5 -82z" />
    <glyph glyph-name="multiply" unicode="&#xd7;" horiz-adv-x="767" 
d="M451 366q24 -24 59.5 -60.5t70.5 -72.5t63.5 -65t39.5 -39q8 -8 3 -23.5t-16.5 -29t-26.5 -20t-25 4.5q-11 10 -40.5 39.5t-64.5 66t-70.5 73t-59.5 60.5q-24 -24 -61 -59.5t-74.5 -71t-68.5 -64.5t-43 -41q-9 -9 -24 -3t-26.5 19t-15.5 30t9 30q7 7 35.5 33.5t65 61
t74 70.5t62.5 61q-25 25 -59.5 61.5t-66.5 72t-57 62.5t-32 34q-13 13 -9 30t15.5 30t26.5 19t24 -3q12 -12 39.5 -42t61 -66t67 -71.5t57.5 -59.5q16 16 37.5 38.5t45 47t47.5 49t44.5 46t36 38t22.5 23.5q10 10 25 4t26.5 -19t16.5 -28.5t-3 -23.5q-11 -11 -39 -41
t-63 -66.5t-70 -73.5t-59 -61z" />
    <glyph glyph-name="divide" unicode="&#xf7;" horiz-adv-x="946" 
d="M109 442q-15 1 -20.5 18t-2.5 36.5t15.5 35t33.5 13.5q16 -1 67 -0.5t120 2.5t147.5 4t151.5 3t131 1t85 -3q18 -2 23 -19.5t1.5 -37t-13.5 -35t-23 -13.5q-27 2 -82 1.5t-124.5 -2t-146.5 -3.5t-147.5 -3t-128 -1t-87.5 3zM452 306q25 5 45.5 -4t34.5 -25.5t20 -38.5
t2.5 -42.5t-18 -37.5t-40.5 -24q-33 -10 -57.5 -3t-39.5 24.5t-20.5 40.5t0.5 45.5t24 40.5t49 24zM451 859q25 5 45.5 -4t34.5 -25.5t20 -38.5t2.5 -42.5t-18 -37.5t-40.5 -24q-32 -10 -57 -3t-40 24.5t-20.5 40.5t0.5 45.5t24 40.5t49 24z" />
    <glyph glyph-name="zeronojoin" unicode="&#x200c;" horiz-adv-x="37" 
 />
    <glyph glyph-name="zerojoin" unicode="&#x200d;" horiz-adv-x="37" 
 />
    <glyph glyph-name="lefttoright" unicode="&#x200e;" horiz-adv-x="37" 
d="M137 1194l-28 23l72 72h-144v-1289h-37v1324h176l-67 67l28 25l108 -111z" />
    <glyph glyph-name="righttoleft" unicode="&#x200f;" horiz-adv-x="37" 
d="M0 0v1289h-143l69 -72l-23 -23l-114 111l114 111l23 -25l-67 -67h178v-1324h-37z" />
    <glyph glyph-name="quoteleft" unicode="&#x2018;" horiz-adv-x="491" 
d="M273 865q-68 13 -106 46.5t-51 79.5t-4.5 100.5t33 109.5t61.5 107t81 93t92 67t94 29q5 0 -7 -12l-33.5 -33.5t-49.5 -50t-55.5 -61t-51.5 -68t-38 -70t-13.5 -66.5t20.5 -59q22 31 58 40.5t71.5 -0.5t61.5 -38.5t27 -74.5q0 -22 -12.5 -50t-37 -50.5t-60 -35
t-80.5 -3.5z" />
    <glyph glyph-name="quoteright" unicode="&#x2019;" horiz-adv-x="491" 
d="M286 1539q68 -13 106 -46.5t51 -79.5t4.5 -100.5t-33 -109.5t-61.5 -107t-81 -93t-92 -67t-94 -29q-6 0 16 21t56.5 56t73 79.5t66 91t35.5 91.5t-19 81q-22 -31 -58 -40.5t-71.5 0.5t-61.5 38.5t-27 74.5q0 22 12.5 50t37 50.5t60 35t80.5 3.5z" />
    <glyph glyph-name="quotedblleft" unicode="&#x201c;" horiz-adv-x="650" 
d="M141 806q-50 10 -74.5 36t-30.5 61.5t4.5 77.5t31 84t48 80t56.5 65.5t56 42t47 8.5t24.5 -18.5t-0.5 -29t-16.5 -35t-24 -37t-23 -35.5t-12.5 -30q38 -16 58 -44.5t24.5 -61t-5.5 -65.5t-32.5 -57.5t-55.5 -37t-75 -4.5zM439 806q-50 10 -74.5 36t-30.5 61.5t4.5 77.5
t31 84t48 80t56.5 65.5t56 42t47 8.5t24.5 -18.5t-0.5 -29t-16.5 -35t-24 -37t-23 -35.5t-12.5 -30q38 -16 58 -44.5t24.5 -61t-5.5 -65.5t-32.5 -57.5t-55.5 -37t-75 -4.5z" />
    <glyph glyph-name="quotedblright" unicode="&#x201d;" horiz-adv-x="650" 
d="M500 1282q50 -10 74.5 -36t30.5 -61.5t-4.5 -77.5t-31 -83.5t-48 -79.5t-56.5 -66t-56.5 -42.5t-46.5 -8.5q-20 6 -24.5 18.5t0.5 28.5t16.5 35t24 38t23 35.5t12.5 29.5q-38 16 -58 44.5t-24.5 61t5.5 65.5t32.5 57.5t55.5 37t75 4.5zM202 1282q50 -10 74.5 -36
t30.5 -61.5t-4.5 -77.5t-31 -83.5t-48 -79.5t-56.5 -66t-56.5 -42.5t-46.5 -8.5q-20 6 -24.5 18.5t0.5 28.5t16.5 35t24 38t23 35.5t12.5 29.5q-38 16 -58 44.5t-24.5 61t5.5 65.5t32.5 57.5t55.5 37t75 4.5z" />
    <glyph glyph-name="guilsinglleft" unicode="&#x2039;" horiz-adv-x="512" 
d="M70 583q23 33 57 82t73.5 101.5t81 102.5t79 86t68 52t47.5 0q5 -5 -6.5 -29.5t-33.5 -60.5t-51.5 -80t-58.5 -89.5t-55.5 -88.5t-42.5 -76q14 -34 38 -75.5t51 -84.5t55.5 -83.5t50.5 -72.5t36 -51.5t13 -20.5q-23 -18 -54.5 -6t-68 43t-75.5 76t-76.5 94t-70.5 97
t-57 84z" />
    <glyph glyph-name="guilsinglright" unicode="&#x203a;" horiz-adv-x="512" 
d="M454 584q-23 -33 -57 -82t-73.5 -101.5t-81 -102.5t-79 -86t-68 -52t-47.5 0q-5 5 6.5 29.5t33.5 60t51 80t58.5 90t55.5 88t43 76.5q-14 34 -38 75.5t-51 84.5t-55.5 83.5t-50.5 72.5t-36 51.5t-13 20.5q23 18 55 6t68 -43t75 -76.5t76 -94.5t70 -96.5t58 -83.5z" />
    <glyph glyph-name="u060C" unicode="&#x60c;" horiz-adv-x="517" 
d="M276 -3q-66 8 -95.5 43t-32.5 83t15.5 101.5t49 97.5t67 71.5t70.5 24.5q11 -1 7.5 -11t-15 -26t-27.5 -38t-29.5 -46t-21 -50t-2.5 -51q9 6 23 9.5t29 5t28.5 0.5t21.5 -5q26 -13 39.5 -35t14.5 -46.5t-8 -49t-28 -43.5t-46 -29t-60 -6z" />
    <glyph glyph-name="u061B" unicode="&#x61b;" horiz-adv-x="418" 
d="M278 307q-66 8 -95.5 43t-32.5 83t15.5 101.5t49 97.5t67 71.5t70.5 24.5q11 -1 7.5 -11t-15 -26t-27.5 -38t-29.5 -46t-21 -50t-2.5 -51q9 6 23 9.5t29 5t28.5 0.5t21.5 -5q26 -13 39.5 -35t14.5 -46.5t-8 -49t-28 -43.5t-46 -29t-60 -6zM273 180q25 5 45.5 -4
t34.5 -25.5t20 -38.5t2.5 -42.5t-18 -37.5t-40.5 -24q-32 -10 -57 -3t-40 24.5t-20.5 40.5t0.5 45.5t24 40.5t49 24z" />
    <glyph glyph-name="u061F" unicode="&#x61f;" horiz-adv-x="601" 
d="M400 915q-24 23 -48.5 28t-47 -2t-42 -24t-33.5 -38t-22 -43t-7 -40q1 -25 21.5 -52t47.5 -57.5t53 -66.5t38 -79q1 -4 7 -33t9.5 -69t1.5 -84t-18 -79t-49 -53t-90 -6q21 48 15.5 96.5t-26.5 95t-52 90.5t-61.5 84.5t-54 76.5t-29.5 67q-19 83 0 153t62 122.5
t103.5 84.5t123.5 40q33 7 70 5.5t70.5 -11t60.5 -25.5t41 -37q35 -54 45 -100.5t3.5 -86.5t-24 -74t-36.5 -61q-18 -25 -50.5 -41t-64 -15.5t-54.5 21.5t-22 70q0 30 17 48.5t33.5 32.5t23 27.5t-14.5 34.5zM348 153q27 -31 26 -59.5t-18.5 -49t-46.5 -32t-57.5 -10
t-51.5 18t-28 51.5q-4 26 13.5 52.5t45.5 42.5t60 15.5t57 -29.5z" />
    <glyph glyph-name="u0640" unicode="&#x640;" horiz-adv-x="618" 
d="M4 0q-15 0 -22 23.5t-5.5 51.5t12.5 51.5t32 23.5h59h99.5t121 0.5t125 0.5h110.5h78q17 0 23.5 -23.5t5 -52t-10 -52t-21.5 -23.5h-607v0z" />
    <glyph glyph-name="u064B" unicode="&#x64b;" 
d="M99 1456q-8 0 -14 10t-8 22.5t0 25.5t10 19q9 6 36 19t63 28.5t76 30t75 23.5t61 10.5t33 -9.5q3 -4 4.5 -11.5t1.5 -15.5t-1.5 -16t-5.5 -12q-9 -11 -32 -24.5t-54 -27t-66 -26t-69 -22.5t-63 -16.5t-47 -7.5zM96 1292q-8 0 -14 10t-8 22.5t0 25.5t10 19q9 6 36 19
t63 28.5t76 30t75 23.5t61 10.5t33 -9.5q3 -4 4.5 -11.5t1.5 -15.5t-1.5 -16t-5.5 -12q-9 -11 -32 -24.5t-54 -27t-66 -26t-69 -22.5t-63 -16.5t-47 -7.5z" />
    <glyph glyph-name="u064C" unicode="&#x64c;" 
d="M418 1376q6 -2 5 -9.5t-5.5 -16t-12 -15.5t-14.5 -7q-16 3 -30.5 9t-20.5 10q-36 -25 -79 -37.5t-82.5 -14t-70 7t-40.5 25.5q-5 8 11 13t37 8q19 13 23 30.5t-3.5 29.5t-23 12.5t-35.5 -20.5q-9 10 -16.5 19t-16.5 21q3 6 12.5 14.5t29.5 16.5q23 9 46.5 4t38.5 -20
t17 -40t-17 -57q30 2 51 15t24 33q-21 19 -26.5 42.5t0.5 46.5t22.5 43.5t39.5 32.5t50.5 13.5t56.5 -12.5q27 -13 38 -34.5t9.5 -47t-14.5 -52.5t-34 -50q9 -6 14 -7t16 -6zM358 1455q4 14 -0.5 29t-23.5 20q-38 12 -50 -25q-16 -37 27 -48q20 -6 32 2t15 22z" />
    <glyph glyph-name="u064D" unicode="&#x64d;" 
d="M151 -870q-8 0 -14 10t-8 22.5t0 25.5t10 19q9 6 36 19t63 28.5t76 30t75 23.5t61 10.5t33 -9.5q3 -4 4.5 -11.5t1.5 -15.5t-1.5 -16t-5.5 -12q-9 -11 -32 -24.5t-54 -27t-66 -26t-69 -22.5t-63 -16.5t-47 -7.5zM148 -1034q-8 0 -14 10t-8 22.5t0 25.5t10 19q9 6 36 19
t63 28.5t76 30t75 23.5t61 10.5t33 -9.5q3 -4 4.5 -11.5t1.5 -15.5t-1.5 -16t-5.5 -12q-9 -11 -32 -24.5t-54 -27t-66 -26t-69 -22.5t-63 -16.5t-47 -7.5z" />
    <glyph glyph-name="u064E" unicode="&#x64e;" 
d="M100 1287q-8 0 -14 10t-8 22.5t0 25.5t10 19q9 6 36 19t63 28.5t76 30t75 23.5t61 10.5t33 -9.5q3 -4 4.5 -11.5t1.5 -15.5t-1.5 -16t-5.5 -12q-9 -11 -32 -24.5t-54 -27t-66 -26t-69 -22.5t-63 -16.5t-47 -7.5z" />
    <glyph glyph-name="u064F" unicode="&#x64f;" 
d="M421 1362q6 -2 5.5 -11t-5.5 -18.5t-13 -16.5t-16 -6q-17 2 -32.5 8.5t-22.5 10.5q-39 -27 -85.5 -40t-89 -14.5t-75.5 8t-44 27.5q-5 8 6.5 12.5t32 8.5t45.5 8t48 11t40 18t20 28q-22 20 -28 45.5t1 50.5t24.5 47t42 35t54.5 14.5t61 -13.5q29 -14 41 -37.5t10 -51.5
t-16 -57t-36 -54q10 -7 15.5 -8t16.5 -5zM306 1420q22 -6 34.5 3t16.5 23q4 15 -1 32t-26 22q-41 12 -54 -27q-8 -21 0.5 -34t29.5 -19z" />
    <glyph glyph-name="u0650" unicode="&#x650;" 
d="M142 -859q-8 0 -14 10t-8 22.5t0 25.5t10 19q9 6 36 19t63 28.5t76 30t75 23.5t61 10.5t33 -9.5q3 -4 4.5 -11.5t1.5 -15.5t-1.5 -16t-5.5 -12q-9 -11 -32 -24.5t-54 -27t-66 -26t-69 -22.5t-63 -16.5t-47 -7.5z" />
    <glyph glyph-name="u0651" unicode="&#x651;" 
d="M473 1534q0 -57 -17 -112t-47.5 -92.5t-74.5 -49.5t-98 16q-23 -9 -48.5 -15t-49.5 -5.5t-45.5 9.5t-34.5 31q-5 7 -9 21t-7 30t-4 31t0 24q4 25 19 46t34 33q10 6 20.5 6.5t19.5 -3.5t15.5 -10t10.5 -13q4 -8 3 -19.5t-2.5 -22t-1 -19.5t6.5 -12q14 -6 21.5 0.5t11 19.5
t5 31t4 34.5t8 29.5t16.5 17q31 12 53 1.5t33 -27.5q6 -10 4.5 -24t-4 -28t-2.5 -25t8 -15q14 -7 20 2.5t8.5 25.5t4 34t7.5 30q9 19 22.5 31.5t28.5 16t30.5 -2.5t30.5 -25z" />
    <glyph glyph-name="u0652" unicode="&#x652;" 
d="M268 1559q19 -11 41.5 -31.5t39 -48t21.5 -60.5t-12 -69q-14 -32 -47.5 -50.5t-70.5 -19t-67.5 18t-38.5 60.5q-6 23 -1.5 52t15 57.5t24.5 53t28 39.5q10 11 28.5 11t39.5 -13zM199 1354q27 -13 52 -11.5t43.5 12t27.5 27.5t4.5 34t-24.5 31.5t-60 20.5q-15 4 -29 -10.5
t-22.5 -35t-7.5 -41t16 -27.5z" />
    <glyph glyph-name="uE820" unicode="&#xe820;" 
d="M102 818q-8 0 -14 10t-8 22.5t0 25.5t10 19q9 6 36 19t63 28.5t76 30t75 23.5t61 10.5t33 -9.5q3 -4 4.5 -11.5t1.5 -15.5t-1.5 -16t-5.5 -12q-9 -11 -32 -24.5t-54 -27t-66 -26t-69 -22.5t-63 -16.5t-47 -7.5z" />
    <glyph glyph-name="uE821" unicode="&#xe821;" 
d="M445 945q6 -2 5.5 -11t-5.5 -18.5t-13 -16.5t-16 -6q-17 2 -32.5 8.5t-22.5 10.5q-39 -27 -85.5 -40t-89 -14.5t-75.5 8t-44 27.5q-5 8 6.5 12.5t32 8.5t45.5 8t48 11t40 18t20 28q-22 20 -28 45.5t1 50.5t24.5 47t42 35t54.5 14.5t61 -13.5q29 -14 41 -37.5t10 -51.5
t-16 -57t-36 -54q10 -7 15.5 -8t16.5 -5zM330 1003q22 -6 34.5 3t16.5 23q4 15 -1 32t-26 22q-41 12 -54 -27q-8 -21 0.5 -34t29.5 -19z" />
    <glyph glyph-name="uE822" unicode="&#xe822;" 
d="M260 1123q19 -11 41.5 -31.5t39 -48t21.5 -60.5t-12 -69q-14 -32 -47.5 -50.5t-70.5 -19t-67.5 18t-38.5 60.5q-6 23 -1.5 52t15 57.5t24.5 53t28 39.5q10 11 28.5 11t39.5 -13zM191 918q27 -13 52 -11.5t43.5 12t27.5 27.5t4.5 34t-24.5 31.5t-60 20.5q-15 4 -29 -10.5
t-22.5 -35t-7.5 -41t16 -27.5z" />
    <glyph glyph-name="uE823" unicode="&#xe823;" 
d="M102 1022q-8 0 -14 10t-8 22.5t0 25.5t10 19q9 6 36 19t63 28.5t76 30t75 23.5t61 10.5t33 -9.5q3 -4 4.5 -11.5t1.5 -15.5t-1.5 -16t-5.5 -12q-9 -11 -32 -24.5t-54 -27t-66 -26t-69 -22.5t-63 -16.5t-47 -7.5zM99 858q-8 0 -14 10t-8 22.5t0 25.5t10 19q9 6 36 19
t63 28.5t76 30t75 23.5t61 10.5t33 -9.5q3 -4 4.5 -11.5t1.5 -15.5t-1.5 -16t-5.5 -12q-9 -11 -32 -24.5t-54 -27t-66 -26t-69 -22.5t-63 -16.5t-47 -7.5z" />
    <glyph glyph-name="uE824" unicode="&#xe824;" 
d="M479 954q6 -2 5 -9.5t-5.5 -16t-12 -15.5t-14.5 -7q-16 3 -30.5 9t-20.5 10q-36 -25 -79 -37.5t-82.5 -14t-70 7t-40.5 25.5q-5 8 11 13t37 8q19 13 23 30.5t-3.5 29.5t-23 12.5t-35.5 -20.5q-9 10 -16.5 19t-16.5 21q3 6 12.5 14.5t29.5 16.5q23 9 46.5 4t38.5 -20
t17 -40t-17 -57q30 2 51 15t24 33q-21 19 -26.5 42.5t0.5 46.5t22.5 43.5t39.5 32.5t50.5 13.5t56.5 -12.5q27 -13 38 -34.5t9.5 -47t-14.5 -52.5t-34 -50q9 -6 14 -7t16 -6zM419 1033q4 14 -0.5 29t-23.5 20q-38 12 -50 -25q-16 -37 27 -48q20 -6 32 2t15 22z" />
    <glyph glyph-name="uE825" unicode="&#xe825;" 
d="M481 1077q0 -57 -17 -112t-47.5 -92.5t-74.5 -49.5t-98 16q-23 -9 -48.5 -15t-49.5 -5.5t-45.5 9.5t-34.5 31q-5 7 -9 21t-7 30t-4 31t0 24q4 25 19 46t34 33q10 6 20.5 6.5t19.5 -3.5t15.5 -10t10.5 -13q4 -8 3 -19.5t-2.5 -22t-1 -19.5t6.5 -12q14 -6 21.5 0.5t11 19.5
t5 31t4 34.5t8 29.5t16.5 17q31 12 53 1.5t33 -27.5q6 -10 4.5 -24t-4 -28t-2.5 -25t8 -15q14 -7 20 2.5t8.5 25.5t4 34t7.5 30q9 19 22.5 31.5t28.5 16t30.5 -2.5t30.5 -25z" />
    <glyph glyph-name="uE826" unicode="&#xe826;" 
d="M63 -570q-8 0 -14 10t-8 22.5t0 25.5t10 19q9 6 36 19t63 28.5t76 30t75 23.5t61 10.5t33 -9.5q3 -4 4.5 -11.5t1.5 -15.5t-1.5 -16t-5.5 -12q-9 -11 -32 -24.5t-54 -27t-66 -26t-69 -22.5t-63 -16.5t-47 -7.5z" />
    <glyph glyph-name="uE827" unicode="&#xe827;" 
d="M63 -548q-8 0 -14 10t-8 22.5t0 25.5t10 19q9 6 36 19t63 28.5t76 30t75 23.5t61 10.5t33 -9.5q3 -4 4.5 -11.5t1.5 -15.5t-1.5 -16t-5.5 -12q-9 -11 -32 -24.5t-54 -27t-66 -26t-69 -22.5t-63 -16.5t-47 -7.5zM60 -712q-8 0 -14 10t-8 22.5t0 25.5t10 19q9 6 36 19
t63 28.5t76 30t75 23.5t61 10.5t33 -9.5q3 -4 4.5 -11.5t1.5 -15.5t-1.5 -16t-5.5 -12q-9 -11 -32 -24.5t-54 -27t-66 -26t-69 -22.5t-63 -16.5t-47 -7.5z" />
    <glyph glyph-name="uE828" unicode="&#xe828;" 
d="M499 1100q0 -57 -17 -112t-47.5 -92.5t-74.5 -49.5t-98 16q-23 -9 -48.5 -15t-49.5 -5.5t-45.5 9.5t-34.5 31q-5 7 -9 21t-7 30t-4 31t0 24q4 25 19 46t34 33q10 6 20.5 6.5t19.5 -3.5t15.5 -10t10.5 -13q4 -8 3 -19.5t-2.5 -22t-1 -19.5t6.5 -12q14 -6 21.5 0.5t11 19.5
t5 31t4 34.5t8 29.5t16.5 17q31 12 53 1.5t33 -27.5q6 -10 4.5 -24t-4 -28t-2.5 -25t8 -15q14 -7 20 2.5t8.5 25.5t4 34t7.5 30q9 19 22.5 31.5t28.5 16t30.5 -2.5t30.5 -25zM124 1180q-8 0 -14 10t-8 22.5t0 25.5t10 19q9 6 36 19t63 28.5t76 30t75 23.5t61 10.5t33 -9.5
q3 -4 4.5 -11.5t1.5 -15.5t-1.5 -16t-5.5 -12q-9 -11 -32 -24.5t-54 -27t-66 -26t-69 -22.5t-63 -16.5t-47 -7.5z" />
    <glyph glyph-name="uE829" unicode="&#xe829;" 
d="M529 1090q0 -57 -17 -112t-47.5 -92.5t-74.5 -49.5t-98 16q-23 -9 -48.5 -15t-49.5 -5.5t-45.5 9.5t-34.5 31q-5 7 -9 21t-7 30t-4 31t0 24q4 25 19 46t34 33q10 6 20.5 6.5t19.5 -3.5t15.5 -10t10.5 -13q4 -8 3 -19.5t-2.5 -22t-1 -19.5t6.5 -12q14 -6 21.5 0.5t11 19.5
t5 31t4 34.5t8 29.5t16.5 17q31 12 53 1.5t33 -27.5q6 -10 4.5 -24t-4 -28t-2.5 -25t8 -15q14 -7 20 2.5t8.5 25.5t4 34t7.5 30q9 19 22.5 31.5t28.5 16t30.5 -2.5t30.5 -25zM463 1224q6 -2 5.5 -11t-5.5 -18.5t-13 -16.5t-16 -6q-17 2 -32.5 8.5t-22.5 10.5
q-39 -27 -85.5 -40t-89 -14.5t-75.5 8t-44 27.5q-5 8 6.5 12.5t32 8.5t45.5 8t48 11t40 18t20 28q-22 20 -28 45.5t1 50.5t24.5 47t42 35t54.5 14.5t61 -13.5q29 -14 41 -37.5t10 -51.5t-16 -57t-36 -54q10 -7 15.5 -8t16.5 -5zM348 1282q22 -6 34.5 3t16.5 23q4 15 -1 32
t-26 22q-41 12 -54 -27q-8 -21 0.5 -34t29.5 -19z" />
    <glyph glyph-name="uE82A" unicode="&#xe82a;" 
d="M463 1092q0 -57 -17 -112t-47.5 -92.5t-74.5 -49.5t-98 16q-23 -9 -48.5 -15t-49.5 -5.5t-45.5 9.5t-34.5 31q-5 7 -9 21t-7 30t-4 31t0 24q4 25 19 46t34 33q10 6 20.5 6.5t19.5 -3.5t15.5 -10t10.5 -13q4 -8 3 -19.5t-2.5 -22t-1 -19.5t6.5 -12q14 -6 21.5 0.5t11 19.5
t5 31t4 34.5t8 29.5t16.5 17q31 12 53 1.5t33 -27.5q6 -10 4.5 -24t-4 -28t-2.5 -25t8 -15q14 -7 20 2.5t8.5 25.5t4 34t7.5 30q9 19 22.5 31.5t28.5 16t30.5 -2.5t30.5 -25zM92 1315q-8 0 -14 10t-8 22.5t0 25.5t10 19q9 6 36 19t63 28.5t76 30t75 23.5t61 10.5t33 -9.5
q3 -4 4.5 -11.5t1.5 -15.5t-1.5 -16t-5.5 -12q-9 -11 -32 -24.5t-54 -27t-66 -26t-69 -22.5t-63 -16.5t-47 -7.5zM82 1139q-8 0 -14 10t-8 22.5t0 25.5t10 19q9 6 36 19t63 28.5t76 30t75 23.5t61 10.5t33 -9.5q3 -4 4.5 -11.5t1.5 -15.5t-1.5 -16t-5.5 -12
q-9 -11 -32 -24.5t-54 -27t-66 -26t-69 -22.5t-63 -16.5t-47 -7.5z" />
    <glyph glyph-name="uE82B" unicode="&#xe82b;" 
d="M499 1158q0 -57 -17 -112t-47.5 -92.5t-74.5 -49.5t-98 16q-23 -9 -48.5 -15t-49.5 -5.5t-45.5 9.5t-34.5 31q-5 7 -9 21t-7 30t-4 31t0 24q4 25 19 46t34 33q10 6 20.5 6.5t19.5 -3.5t15.5 -10t10.5 -13q4 -8 3 -19.5t-2.5 -22t-1 -19.5t6.5 -12q14 -6 21.5 0.5t11 19.5
t5 31t4 34.5t8 29.5t16.5 17q31 12 53 1.5t33 -27.5q6 -10 4.5 -24t-4 -28t-2.5 -25t8 -15q14 -7 20 2.5t8.5 25.5t4 34t7.5 30q9 19 22.5 31.5t28.5 16t30.5 -2.5t30.5 -25zM436 1329q6 -2 5 -9.5t-5.5 -16t-12 -15.5t-14.5 -7q-16 3 -30.5 9t-20.5 10q-36 -25 -79 -37.5
t-82.5 -14t-70 7t-40.5 25.5q-5 8 11 13t37 8q19 13 23 30.5t-3.5 29.5t-23 12.5t-35.5 -20.5q-9 10 -16.5 19t-16.5 21q3 6 12.5 14.5t29.5 16.5q23 9 46.5 4t38.5 -20t17 -40t-17 -57q30 2 51 15t24 33q-21 19 -26.5 42.5t0.5 46.5t22.5 43.5t39.5 32.5t50.5 13.5
t56.5 -12.5q27 -13 38 -34.5t9.5 -47t-14.5 -52.5t-34 -50q9 -6 14 -7t16 -6zM376 1408q4 14 -0.5 29t-23.5 20q-38 12 -50 -25q-16 -37 27 -48q20 -6 32 2t15 22z" />
    <glyph glyph-name="uE82C" unicode="&#xe82c;" 
d="M528 1347q0 -57 -17 -112t-47.5 -92.5t-74.5 -49.5t-98 16q-23 -9 -48.5 -15t-49.5 -5.5t-45.5 9.5t-34.5 31q-5 7 -9 21t-7 30t-4 31t0 24q4 25 19 46t34 33q10 6 20.5 6.5t19.5 -3.5t15.5 -10t10.5 -13q4 -8 3 -19.5t-2.5 -22t-1 -19.5t6.5 -12q14 -6 21.5 0.5t11 19.5
t5 31t4 34.5t8 29.5t16.5 17q31 12 53 1.5t33 -27.5q6 -10 4.5 -24t-4 -28t-2.5 -25t8 -15q14 -7 20 2.5t8.5 25.5t4 34t7.5 30q9 19 22.5 31.5t28.5 16t30.5 -2.5t30.5 -25zM131 859q-8 0 -14 10t-8 22.5t0 25.5t10 19q9 6 36 19t63 28.5t76 30t75 23.5t61 10.5t33 -9.5
q3 -4 4.5 -11.5t1.5 -15.5t-1.5 -16t-5.5 -12q-9 -11 -32 -24.5t-54 -27t-66 -26t-69 -22.5t-63 -16.5t-47 -7.5z" />
    <glyph glyph-name="uE82D" unicode="&#xe82d;" 
d="M438 1511q0 -57 -17 -112t-47.5 -92.5t-74.5 -49.5t-98 16q-23 -9 -48.5 -15t-49.5 -5.5t-45.5 9.5t-34.5 31q-5 7 -9 21t-7 30t-4 31t0 24q4 25 19 46t34 33q10 6 20.5 6.5t19.5 -3.5t15.5 -10t10.5 -13q4 -8 3 -19.5t-2.5 -22t-1 -19.5t6.5 -12q14 -6 21.5 0.5t11 19.5
t5 31t4 34.5t8 29.5t16.5 17q31 12 53 1.5t33 -27.5q6 -10 4.5 -24t-4 -28t-2.5 -25t8 -15q14 -7 20 2.5t8.5 25.5t4 34t7.5 30q9 19 22.5 31.5t28.5 16t30.5 -2.5t30.5 -25zM41 1008q-8 0 -14 10t-8 22.5t0 25.5t10 19q9 6 36 19t63 28.5t76 30t75 23.5t61 10.5t33 -9.5
q3 -4 4.5 -11.5t1.5 -15.5t-1.5 -16t-5.5 -12q-9 -11 -32 -24.5t-54 -27t-66 -26t-69 -22.5t-63 -16.5t-47 -7.5zM38 844q-8 0 -14 10t-8 22.5t0 25.5t10 19q9 6 36 19t63 28.5t76 30t75 23.5t61 10.5t33 -9.5q3 -4 4.5 -11.5t1.5 -15.5t-1.5 -16t-5.5 -12q-9 -11 -32 -24.5
t-54 -27t-66 -26t-69 -22.5t-63 -16.5t-47 -7.5z" />
    <glyph glyph-name="u0621" unicode="&#x621;" horiz-adv-x="608" 
d="M547 387q7 -12 8 -28t-3 -30t-12.5 -23.5t-18.5 -9.5q-26 1 -58 0t-56.5 -8t-34.5 -23t8 -44q7 -12 21 -13.5t32.5 2.5t39 11.5t40.5 13.5t37 9t28 -2q12 -5 18.5 -15t9 -21.5t2 -22.5t-3.5 -18q-9 -26 -23.5 -39t-20.5 -14q-61 -11 -122 -29.5t-113.5 -36.5t-91 -31.5
t-53.5 -14.5q-10 -1 -18.5 7t-13 21t-4 29t8.5 31q4 9 18 19t30.5 19t32.5 17t25 13q-39 43 -49 78.5t6 81.5q11 35 50.5 64t90 42.5t102.5 7t88 -42.5z" />
    <glyph glyph-name="periodcentered" unicode="&#xb7;" horiz-adv-x="323" 
d="M44 832q24 37 62 49t75 4t65.5 -33.5t34.5 -62.5q8 -45 -10.5 -76.5t-49 -47.5t-67 -15.5t-65.5 20t-43.5 59.5t-1.5 103z" />
    <glyph glyph-name="periodcentered" unicode="&#x2219;" horiz-adv-x="323" 
d="M44 832q24 37 62 49t75 4t65.5 -33.5t34.5 -62.5q8 -45 -10.5 -76.5t-49 -47.5t-67 -15.5t-65.5 20t-43.5 59.5t-1.5 103z" />
    <glyph glyph-name="periodcentered" unicode="&#x2d9;" horiz-adv-x="323" 
d="M44 832q24 37 62 49t75 4t65.5 -33.5t34.5 -62.5q8 -45 -10.5 -76.5t-49 -47.5t-67 -15.5t-65.5 20t-43.5 59.5t-1.5 103z" />
    <glyph glyph-name="u0652_u064E.mset" horiz-adv-x="1" 
d="M519 760q34 4 52 -14.5t25.5 -43t7.5 -46t-1 -24.5q-1 -19 -6 -45t-13.5 -53.5t-18.5 -55t-20.5 -49t-21.5 -34.5t-20 -13q-22 2 -35.5 22t-21 50t-9 66.5t1 72t8 66.5t13.5 50q3 6 9.5 14.5t14.5 17t17 14t18 5.5z" />
    <glyph glyph-name="semicolon" unicode=";" horiz-adv-x="1707" 
 />
    <glyph glyph-name="onehalf" unicode="&#xbd;" horiz-adv-x="1607" 
d="M195 1112q31 -36 56 -99t43.5 -133.5t31 -138t20.5 -112.5q1 -10 8 -54t15 -107t14.5 -135.5t6.5 -139t-10 -118.5t-34 -73q-35 -30 -64 -30.5t-52 17t-39 46t-23 55.5q-20 74 -30.5 151.5t-18 153.5t-14.5 146.5t-19 130.5q-7 33 -22.5 77t-29.5 95.5t-22 108.5t-1 116
q3 25 24 44t49 27.5t58.5 2.5t52.5 -31zM922 1053q-9 -45 -18.5 -85.5t-19.5 -78.5q-23 -83 -57 -201q-17 -59 -28.5 -99.5t-17.5 -63.5q-14 -48 -30 -115t-34 -155t-30 -145.5t-19 -86.5q-13 -52 -61 -81q-46 -30 -100 -16q-54 13 -84 60q-28 46 -15 100q7 28 19.5 86
t31.5 149q20 91 36 160t29 118l45 157q33 109 54 189q22 80 39 161q10 54 57 84q46 31 101 19q54 -11 84 -57q30 -47 18 -99zM1539 1095q43 -31 53.5 -78.5t-2.5 -100.5t-45 -105t-74 -92t-89.5 -62.5t-91.5 -15.5q4 -52 16 -123t22.5 -147.5t14.5 -150.5t-8 -132.5
t-45.5 -93t-97.5 -31.5q-14 2 -21.5 4t-11.5 5.5t-6 9t-4 14.5q-14 121 -37.5 237t-49.5 221t-52.5 196.5t-45.5 162.5t-28.5 119t-2.5 67q19 51 67 69.5t106 5.5q18 -4 29 -18t18.5 -33.5t13 -41.5t12.5 -41.5t17.5 -33.5t28.5 -18q48 -12 80 -5t53 25.5t33.5 45t21.5 54
t17.5 52t21.5 39t33.5 15.5t53.5 -19z" />
    <glyph glyph-name="A" unicode="A" horiz-adv-x="1119" 
d="M551 753q-22 -57 -46.5 -117.5t-52.5 -126.5q48 0 98 1t103 3zM754 861q82 -197 132 -300q17 -38 43 -90.5t61 -120.5l100 -192q10 -23 11.5 -46t-5.5 -43.5t-22 -38t-37 -27.5q-45 -20 -88 -4q-46 17 -68 57l-117 229q-228 -8 -414 -6l-98 -209q-19 -46 -64 -62
q-44 -17 -89 3q-44 21 -61 65q-17 45 3 89l54 114l55 121l49 109q19 42 32 72t21 49l46 111q15 37 26.5 67t19.5 53l40 112q19 55 36 119q11 37 40 60t64 25q40 5 75 -12.5t51 -54.5z" />
    <glyph glyph-name="C" unicode="C" horiz-adv-x="1086" 
d="M825 808q-17 13 -30 23.5t-23 18.5q-12 10 -20.5 17t-15 11.5t-11.5 8t-11 7.5q-26 16 -92 17q-121 7 -214 -66q-93 -72 -131 -192q-23 -78 -18.5 -148t47.5 -133t120 -102q46 -24 121 -33q74 -9 120 2q18 6 30.5 10.5t23 9.5t20.5 11.5t22 16.5l25 23l32 34
q12 13 21.5 23t17.5 17q32 33 81 35q48 1 82 -33q35 -35 36 -82q2 -49 -34 -83l-35 -38q-13 -14 -22.5 -24t-16.5 -16q-6 -6 -16 -15t-24 -21t-26 -21t-24.5 -16.5t-26.5 -14.5l-32 -16q-17 -6 -36 -12t-40 -11q-93 -24 -206 -11q-118 15 -199 58q-51 25 -93.5 58t-76.5 71
t-58 80.5t-39 86.5q-28 90 -28 183t28 181q29 88 82 165t126 137t168.5 91.5t203.5 28.5q127 -8 199 -50q18 -10 41 -28l51 -39l40 -34q40 -28 46 -78q7 -47 -22 -86q-28 -37 -77 -45q-48 -7 -86 23z" />
    <glyph glyph-name="at" unicode="@" horiz-adv-x="1712" 
d="M898 684q0 13 -1 16q-6 59 1 95q7 26 23 55q-42 14 -61 5t-34 -39q-18 -41 -12 -83t31 -65q8 -10 19 -8q18 7 34 24zM1121 478q-74 -79 -166 -107q-74 -26 -161 -9q-87 18 -154 82q-72 66 -105 158q-32 94 -26 181q8 89 43 164q42 88 114 144t172 70q101 14 215 -37
q52 -22 105 -77l22 -20l30 -26q21 -18 34 -41.5t18 -48.5t1 -51t-16 -50q4 -10 7 -21t7 -25q0 -5 4 -18h2q38 50 42 139q9 213 -133 331q-141 118 -342 66q-95 -27 -192 -124t-181 -232q-69 -117 -76 -280t53 -255q83 -124 243 -176q162 -52 307 -9q9 2 16 5t14.5 7.5t16 11
t22.5 15.5q28 18 66 39q55 30 115 13q60 -16 92 -72q31 -55 13 -116q-16 -60 -73 -91q-2 -1 -8.5 -6t-17 -11.5t-23 -14.5t-24.5 -15t-28 -15t-32.5 -16t-32.5 -15t-29 -11q-237 -71 -492 14q-255 84 -396 292q-81 121 -100 284q-10 84 -6.5 162t19.5 153q35 151 103 263
q249 412 555 492q145 36 274.5 22.5t238.5 -79.5q110 -65 188 -159q79 -96 119 -221q41 -129 35 -264q-3 -89 -34 -179q-32 -92 -88 -156q-85 -93 -201 -101q-85 -5 -169 41z" />
    <glyph glyph-name="B" unicode="B" horiz-adv-x="1043" 
d="M308 530q8 -145 15 -236h2q42 -11 74.5 -18t58.5 -11t53 -5t56 1t54.5 9.5t48.5 18.5q86 44 82 110q-1 31 -26 63.5t-73 57.5q-36 17 -63 25.5t-62 8.5q-17 1 -30.5 0.5t-24.5 -2.5q-10 -1 -29 -3.5t-47 -6.5zM769 723q94 -51 152.5 -131t64.5 -177q7 -102 -49 -193
t-164 -143q-70 -36 -160 -47q-87 -11 -150 -3q-63 7 -144 24q-29 -47 -85 -53q-24 -3 -46 4t-39.5 21.5t-29.5 34.5t-15 44q-9 82 -17.5 200.5t-16.5 275.5q-8 158 -16 273t-16 189q-4 49 27 86q32 38 79 42q41 5 72 -16q17 7 34 10q53 13 116.5 17.5t138.5 2.5
q48 -1 87.5 -7.5t71.5 -17.5q115 -36 145 -132q56 -189 -37 -301zM588 937q-33 11 -92 11q-58 2 -106 -1t-86 -13l-20 -5q3 -35 6 -74.5t5 -84.5l83 14q38 10 62.5 18t37.5 13q99 43 113 60q11 12 -3 62z" />
    <glyph glyph-name="D" unicode="D" horiz-adv-x="1175" 
d="M288 963q2 -137 8 -311.5t17 -389.5l14 -4t14 -3q159 -16 316 36q159 54 211 156q66 124 -39 269q-51 72 -127 130q-75 57 -153 91q-55 24 -120.5 29.5t-140.5 -3.5zM178 1196h7t12 1l107 11q19 2 44.5 3t57.5 1q67 0 123 -13q60 -12 118 -36q52 -23 103 -54.5t102 -71.5
q52 -38 95.5 -82.5t79.5 -95.5q54 -77 84 -155q28 -80 25 -180q-3 -98 -52 -189q-26 -51 -63 -94t-86 -79q-96 -72 -206 -105q-111 -32 -216.5 -43.5t-196.5 -2.5q-47 5 -122 34q-24 0 -45.5 9t-38 24.5t-26.5 36.5t-11 45q-14 294 -21 521t-7 394q0 48 35 85q36 36 87 36
h11z" />
    <glyph glyph-name="E" unicode="E" horiz-adv-x="963" 
d="M183 1217q223 1 570 21q52 4 92 -31q38 -34 43 -87q4 -51 -31 -92q-34 -40 -87 -43q-297 -18 -497 -21l2 -204l166 9q60 3 111.5 5t95.5 3q53 2 91 -35q39 -35 40 -89q2 -54 -34 -91q-36 -38 -90 -39l-209 -9l-164 -7q2 -63 3.5 -124.5t3.5 -122.5q155 -2 284.5 -5.5
t235.5 -8.5q52 -3 88 -43q36 -39 32 -91q-3 -52 -42 -88q-38 -35 -90 -32q-117 7 -272 10t-353 3q-37 0 -68.5 20t-47.5 55q-14 27 -15 57q-10 231 -16 468.5t-9 488.5q0 54 37 91q38 38 89 38q23 0 41 -6z" />
    <glyph glyph-name="F" unicode="F" horiz-adv-x="907" 
d="M472 1234q97 1 169.5 1h122.5q48 0 86 -36t38 -88t-38 -88t-86 -36h-110t-149 -1h-201v-115t1 -110q230 0 370 -12q27 -2 49 -13t37 -29t23 -41t6 -49q-3 -52 -43 -86q-38 -33 -89 -31q-69 5 -155 7.5t-191 2.5q7 -195 27 -375q6 -53 -28 -92q-34 -38 -85 -44
q-26 -3 -49.5 4t-41.5 22t-30.5 37t-15.5 49q-20 214 -28 459t-4 528q0 21 4 33q6 45 40 74t82 29h289z" />
    <glyph glyph-name="G" unicode="G" horiz-adv-x="1217" 
d="M908 864l-14 29l-16 19q-71 64 -186 70q-107 8 -202 -56q-95 -63 -150 -169q-56 -107 -54 -225q0 -67 10 -84q23 -51 76 -96t128 -74q75 -28 149 -33q73 -3 124 18q81 30 121 136q-114 8 -201 18t-149 23q-50 11 -78 53q-29 44 -19 92q10 49 54 78q43 28 92 18
q33 -6 66 -11t66 -9q66 -8 171 -15l148 -9q49 -4 81 -43q33 -37 31 -88q14 -38 4 -72q-5 -25 -11 -46.5t-12 -41.5q-6 -19 -15 -41.5t-22 -48.5q-25 -52 -55 -90q-30 -39 -77.5 -75.5t-107.5 -58.5q-56 -19 -112 -27.5t-113 -6.5q-57 4 -112.5 16t-111.5 34
q-113 45 -205 120q-91 76 -135 181q-29 65 -31 179q-1 85 20 171.5t61 166t98.5 148.5t132.5 118.5t163 75.5t190 21q199 -10 339 -137q14 -12 32 -35l29 -38q7 -8 12.5 -17t10.5 -17l10 -17q32 -42 24 -92q-7 -49 -49 -81q-41 -30 -92 -23q-50 8 -80 48z" />
    <glyph glyph-name="H" unicode="H" horiz-adv-x="1137" 
d="M1086 1087q-17 -567 -6 -969q2 -51 -34 -88q-34 -36 -86 -38q-48 -1 -87 34q-36 35 -38 86q-2 86 -3 175.5t-1 183.5q-25 0 -69.5 -0.5t-108.5 -1.5t-108 -1.5t-69 -0.5t-69.5 0.5t-108.5 1.5q0 -89 1.5 -174t3.5 -167q1 -50 -34 -89q-34 -36 -85 -38q-49 -1 -88 34
q-37 36 -38 86q-11 408 6 983q2 53 38 87q37 34 88 33t86 -39q34 -38 33 -87q-6 -212 -9 -383q65 -1 109.5 -1h69.5t69 0.5t107 1.5q64 1 108 1.5t69 0.5q2 84 4 177t6 199q1 52 38 87q36 34 87 33q52 -1 86 -38t33 -89z" />
    <glyph glyph-name="I" unicode="I" horiz-adv-x="385" 
d="M312 1111q-2 -77 -1.5 -198.5t5.5 -291.5q9 -328 3 -506q-1 -51 -40 -86q-37 -34 -89 -33q-52 2 -86 39q-34 36 -32 89q3 93 2 215t-6 276q-5 176 -5.5 301.5t1.5 204.5q2 52 38 86q37 34 90 33q51 -1 86 -40t34 -89z" />
    <glyph glyph-name="J" unicode="J" horiz-adv-x="963" 
d="M856 1122v-40.5t-1 -90.5q-2 -77 3 -116q1 -16 5 -44.5t12 -71.5q8 -52 14 -93t10 -70q30 -243 -25 -349q-75 -145 -195 -224q-31 -18 -63.5 -26.5t-64.5 -11.5q-23 -3 -36.5 -2.5t-29.5 0.5h-16q-146 -3 -265 86q-118 90 -150 236q-11 43 -3 102q0 5 3 23.5t3 32.5
q1 49 39 84t89 32t86 -41q35 -39 31 -89q0 -2 -2 -19.5t-6 -49.5q-1 -8 -1.5 -14t-0.5 -8q13 -60 63 -96q49 -36 108 -34q55 1 77 0q4 0 5 1q66 43 111 132q21 39 0 203l-22 154q-9 48 -14 81.5t-6 53.5q-5 54 -3 140v127q0 49 36 87q36 37 86 37q51 0 87 -36q36 -35 36 -86
z" />
    <glyph glyph-name="K" unicode="K" horiz-adv-x="1147" 
d="M309 1085q3 -129 3 -277q111 94 199 175.5t155 153.5q31 35 82 37t85 -31t36 -83q1 -50 -33 -84q-83 -87 -177 -174l113 -158l100 -147l110 -166l102 -151q27 -41 19 -89q-11 -47 -51 -75q-41 -27 -88 -17q-48 9 -73 49l-99 148l-105 158l-97 141l-106 150l-176 -146
q-3 -74 -6 -208l-4 -191q-1 -24 -11 -45.5t-26.5 -37t-38 -24t-45.5 -8.5q-47 1 -82 36q-33 35 -32 84q1 30 2 77t2 113l5 205q1 38 2 83.5t2 99.5q2 109 1 205.5t-3 190.5q-2 48 33 83t82 36q50 2 84 -32q34 -35 36 -81z" />
    <glyph glyph-name="L" unicode="L" horiz-adv-x="1029" 
d="M313 1077q-2 -87 -12 -255q-11 -161 -12 -245q-2 -57 1.5 -139t11.5 -192q44 -1 188 -1h392q51 0 87 -37q36 -36 36 -87q0 -50 -36 -86t-87 -36q-276 0 -447.5 1t-241.5 3q-36 2 -66 23.5t-44 55.5q-16 24 -19 58q-1 16 -2.5 42.5t-4.5 63.5l-9 118q-1 22 -2 48.5
t-2 57.5q-1 32 -1.5 60t0.5 54q2 39 5 99.5t8 144.5t7.5 147.5t3.5 108.5q2 51 38 86q37 34 88 33q52 -2 86 -38q36 -37 34 -88z" />
    <glyph glyph-name="M" unicode="M" horiz-adv-x="1241" 
d="M1159 751q7 -51 15 -124.5t19 -172.5q18 -192 24 -354q1 -49 -34 -86q-35 -35 -84 -36q-50 -2 -85 32q-36 35 -38 85q-4 131 -15.5 272t-31.5 296q-61 -170 -101.5 -288t-61.5 -188q3 -36 -13 -68t-50 -50q-23 -12 -46.5 -13.5t-45.5 5t-40.5 21.5t-30.5 36
q-58 109 -114.5 228t-113.5 250q-9 -359 -9 -470q0 -50 -35 -85t-85 -35q-49 0 -84 35t-35 85q0 58 1.5 165t5.5 265q4 159 5 280t-1 207q-2 51 32 85q35 35 85 37q20 0 33 -4q45 13 85 -7t58 -65q129 -336 249 -588l67 185l77 223l63 188q10 36 39 59t64 26q21 13 48 16
q46 7 87 -23q40 -30 49 -79z" />
    <glyph glyph-name="N" unicode="N" horiz-adv-x="1170" 
d="M298 1140q82 -89 160 -187l190 -254l146 -197l39 -52l54 639q6 51 44 83q39 31 88 27q51 -5 82 -43q32 -38 29 -87q-28 -313 -42.5 -481t-16.5 -194q0 -2 -1.5 -41t-5.5 -117l-2 -103q-1 -22 -5 -34v-17q0 -5 -1 -7q0 -8 -1 -11q-2 -10 -4 -15q-11 -29 -37 -51
q-41 -33 -91 -32q-51 2 -88 36q-27 25 -46 71q-1 2 -6 13t-13 31q-1 5 -2 8t-2 5l-70 105l-3 4l-11 14l-81 104l-293 392q2 -216 1 -374.5t-5 -264.5q-3 -24 -13.5 -45.5t-27.5 -36.5t-39.5 -23.5t-47.5 -6.5q-50 2 -83 38q-33 38 -32 87q7 142 8 303t-1 354q-2 192 0 305
q0 49 36 84q37 35 85 35q67 0 102 -57l7 -7v0z" />
    <glyph glyph-name="O" unicode="O" horiz-adv-x="1213" 
d="M416 922q-88 -62 -131 -165q-44 -104 -33 -218q10 -140 99 -225q89 -84 241 -74q148 7 242 100q94 95 113 224q20 131 -47 238q-66 107 -215 146q-32 8 -58 11.5t-46 2.5q-12 0 -26.5 -3.5t-32 -9t-38.5 -12t-46 -11.5zM681 1197q26 -4 65 -15q125 -32 219 -100.5
t145 -158.5q52 -90 72.5 -189.5t5.5 -202.5q-13 -100 -60 -191.5t-119 -166.5t-176.5 -122t-227.5 -54q-67 -4 -129 4.5t-117 28t-101.5 49t-82.5 67.5q-71 76 -113 170q-22 48 -35 97.5t-18 103.5q-8 105 13 204q22 105 71.5 197.5t136.5 167.5q86 74 199 112q52 16 122 15
q1 0 11.5 -0.5t30.5 -1.5q11 -1 18.5 -1.5t12.5 -0.5q28 1 57 -12z" />
    <glyph glyph-name="P" unicode="P" horiz-adv-x="1001" 
d="M258 1217q225 49 373 0q67 -23 124 -56t105 -78q96 -87 117 -201q23 -134 -65 -235q-88 -102 -248 -157q-38 -13 -74.5 -21.5t-76.5 -11.5l-61 -4h-69q-24 1 -38.5 1h-19.5q-15 0 -33 5q-3 -102 -6 -191.5t-7 -169.5q-5 -52 -42 -86t-89 -30q-52 3 -86 40t-31 89
q5 100 10 244.5t10 336.5l13 430q1 49 39 84q37 36 89 34q39 -2 66 -23zM298 698q7 1 13.5 1.5t13.5 0.5h121q7 0 17.5 0.5t24.5 1.5q29 3 50.5 8t45.5 14q60 20 91 40.5t44 37t13.5 27.5t-0.5 11q-2 15 -14 33.5t-35 38t-56 38t-77 33.5q-60 16 -111 13q-25 -1 -57.5 -6.5
t-74.5 -15.5z" />
    <glyph glyph-name="Q" unicode="Q" horiz-adv-x="1231" 
d="M586 324q-36 34 -37 83q-2 51 32 86q17 18 38.5 28t45 11t46 -7t42.5 -26l136 -127q49 75 63 165q18 127 -48 234q-64 105 -213 146q-65 16 -102 12q-19 -1 -35.5 -5.5t-46.5 -13.5q-14 -5 -29 -8.5t-31 -7.5l-22 -3q-87 -63 -130 -165q-42 -101 -33 -215
q12 -139 100 -221q85 -85 238 -75q47 3 89 15zM879 47q-119 -65 -267 -73q-134 -8 -244 33q-110 40 -181 114.5t-114 168.5q-43 96 -50 200q-9 103 13 202q13 75 46 147.5t84 135.5t119.5 112.5t153.5 77.5q52 17 120 13q1 0 11.5 -0.5t30.5 -1.5q10 -1 17.5 -1h12.5
q27 1 56 -13q26 -3 66 -14q124 -31 216.5 -99t143.5 -158q52 -90 71 -188q21 -100 5 -199q-24 -168 -126 -300l92 -98q34 -36 30 -87q-3 -50 -40 -83q-36 -33 -87 -30t-84 40q-22 26 -45.5 51t-49.5 50z" />
    <glyph glyph-name="R" unicode="R" horiz-adv-x="1104" 
d="M304 698q1 0 30 3t89 10q89 9 148 18q75 13 117.5 30t52.5 30q23 34 7 67q-24 45 -86 71q-55 20 -182 23q-104 1 -174 -12q-1 -57 -1.5 -117t-0.5 -123zM93 1100q2 0 16 9l33 19q17 8 40.5 18t41.5 14q102 27 260 26q172 -2 267 -42q64 -24 119.5 -72t88.5 -111
q18 -33 26 -71t5.5 -78t-16 -80.5t-39.5 -78.5q-56 -79 -180 -122q124 -151 292 -415q27 -41 16 -90q-11 -48 -52 -73q-41 -26 -89 -15t-73 51q-102 159 -191.5 281.5t-170.5 210.5q-10 -2 -20.5 -3t-21.5 -2l-123 -12q-10 -2 -15 -2q2 -63 5.5 -155.5t8.5 -217.5
q1 -47 -32 -85q-33 -36 -82 -37q-49 -2 -85 32q-37 35 -38 81q-21 538 -15 823q-19 16 -31 40q-21 44 -5 90t60 67z" />
    <glyph glyph-name="S" unicode="S" horiz-adv-x="1039" 
d="M770 927q-2 2 -17.5 16t-46.5 40q-20 16 -32 21q-16 10 -89 7q-71 -1 -131 -23q-47 -17 -60 -35q0 -6 7 -19q8 -15 74 -47q12 -6 35 -16.5t57 -24.5l107 -48q145 -72 216 -165q101 -131 78 -313q-19 -160 -133 -246q-98 -72 -236 -72q-119 0 -233 49q-116 50 -190 131
q-71 78 -97 158q-7 19 -12 44l-12 55q-4 15 -5.5 25.5l-2.5 17.5q-10 49 17 92q29 43 77 53q50 11 92 -16q43 -27 54 -77q6 -29 10.5 -55t7.5 -38l7 -25q7 -25 46 -68q37 -43 106 -72t135 -29q58 0 88.5 23t37.5 80q9 81 -30 133q-34 47 -129 94q-17 9 -41 19.5t-54 23.5
l-101 45q-139 67 -186 155q-75 142 3 265q55 88 183 133q95 35 205 39q111 4 192 -26q50 -19 98 -61l33 -33l20 -14q39 -31 47 -81q7 -49 -24 -91q-30 -40 -80 -48t-91 24z" />
    <glyph glyph-name="T" unicode="T" horiz-adv-x="1151" 
d="M134 1200q254 0 469.5 1.5t398.5 3.5q49 0 86 -35q37 -34 37 -85q0 -48 -35 -86q-35 -36 -84 -36l-315 -3q0 -75 1.5 -182.5t5.5 -249.5q7 -280 9 -406q0 -48 -35 -86q-35 -36 -84 -36q-51 0 -86 34q-36 34 -36 85q-2 124 -9 408q-4 143 -6 250t-2 182h-315q-48 0 -85 35
q-35 37 -35 85q0 50 35 85q36 36 85 36z" />
    <glyph glyph-name="U" unicode="U" horiz-adv-x="1095" 
d="M360 297q20 -40 66 -68t112 -35q66 -6 123.5 11t89.5 51q30 31 49 125q19 95 22 244q2 110 -9 292q-9 183 -9 191q-2 50 32 85q34 36 83 37q50 2 84 -32q37 -35 38 -83q0 -9 9 -196q5 -94 7 -168t1 -131q-1 -84 -7.5 -154.5t-18.5 -129.5q-31 -162 -109 -243
q-77 -80 -187 -113t-223 -21q-115 13 -215 70q-98 58 -151 162q-32 69 -54 148.5t-32 148.5q-11 69 -12 159q-1 91 0 149t6 147l7 127q1 48 36 83q36 34 85 33t83 -37q34 -35 32 -85l-6 -140l-6 -142q-2 -50 0 -127q1 -38 3 -71t5 -60q7 -54 23 -115t43 -112z" />
    <glyph glyph-name="V" unicode="V" horiz-adv-x="1048" 
d="M263 1113q109 -388 239 -694l28 -68l3 7l6 28l2 7l1 3v2q1 3 2 5.5t2 4.5l109 319q42 118 72 210t50 158q15 49 58 71q44 24 92 9q49 -13 72 -58t10 -91q-20 -66 -51 -157.5t-73 -210.5l-108 -314v-3l-3 -11l-9 -35q-16 -57 -36 -106q-30 -75 -68 -120q-17 -19 -37 -35
t-44 -25.5t-51.5 -11.5t-58.5 7q-29 9 -51 32l-15 16q-3 5 -6 9.5t-5 9.5q-4 7 -9 16t-10 21l-39 87l-52 128q-131 301 -252 724q-13 47 11 91q25 45 72 58q49 14 92 -11q43 -24 57 -72z" />
    <glyph glyph-name="W" unicode="W" horiz-adv-x="1612" 
d="M249 1073q100 -395 192 -633q4 -11 9.5 -25.5t13.5 -31.5l37 82q23 51 45 102.5t42 105.5t33.5 89.5t18.5 52.5l-4 47q0 46 14 83q14 35 44 62t75 32q71 11 124 -45q20 -18 37 -53q20 -34 40 -99q9 -27 17.5 -58.5t13.5 -53.5l6 -23q5 -17 27 -89t64 -200
q17 48 35.5 97.5t38.5 103.5l97 236l82 198q20 48 67 68q48 21 94 2q48 -20 69 -67q22 -47 1 -96q-12 -32 -32.5 -82.5t-49.5 -119.5l-101 -245q-21 -54 -39.5 -105t-34.5 -102q-2 -8 -7 -27t-12 -49q-15 -68 -28 -100q-25 -75 -72 -113q-42 -37 -92 -41.5t-98 19.5
q-27 13 -46 38l-8 12q-4 5 -4 12l-4 6l-3 8l-7 19l-20 60l-59 182l-64 201l-72 -170q-31 -71 -58.5 -126t-51.5 -96q-32 -53 -62 -84q-64 -73 -144 -61q-28 5 -48.5 15.5t-36 24t-26 29.5t-17.5 33q-5 13 -7 21.5t-3 14.5t-1.5 11t-1.5 11q-5 26 -5.5 37.5t0.5 12.5
q0 3 -1 3l-30 71l-29 70q-98 253 -201 660q-13 48 13 94q27 44 77 58t94 -14q46 -26 59 -75z" />
    <glyph glyph-name="X" unicode="X" horiz-adv-x="898" 
d="M310 586q-78 112 -137 207t-101 173q-21 41 -8 85q13 46 55 68q41 22 87 8q46 -13 67 -56q35 -64 78.5 -134.5t95.5 -148.5l206 295q25 37 72 45q47 9 85 -18t47 -74q7 -46 -20 -84l-249 -364q85 -122 149 -222.5t109 -181.5q23 -41 9 -86t-54 -67q-41 -23 -86 -9
q-44 13 -69 55q-71 129 -197 311l-245 -345q-27 -38 -74 -46q-46 -7 -84 20q-38 28 -45 75q-8 48 21 84l288 410v0z" />
    <glyph glyph-name="Y" unicode="Y" horiz-adv-x="902" 
d="M863 952q-171 -211 -298 -426l-14 -19l6 -170q4 -88 5 -155t-1 -115q-2 -46 -34 -77q-32 -32 -78 -30t-77 34q-32 33 -30 77q1 45 0 108.5t-4 147.5q-6 112 -6 165q-5 5 -9 11t-7 11q-100 153 -172.5 259.5t-118.5 168.5q-29 36 -21 81q6 43 42 72q35 28 82 22
q46 -8 72 -44q50 -67 108 -151.5t127 -189.5q112 179 258 356q15 18 34 28t39.5 12.5t41 -3.5t38.5 -21q18 -14 28.5 -33t13 -40t-3.5 -41.5t-21 -37.5z" />
    <glyph glyph-name="Z" unicode="Z" horiz-adv-x="888" 
d="M143 1115q24 4 66 9l54 7q7 1 17 2t24 2q28 3 53 5t64 4q24 1 123 3q25 1 45 1.5t36 0.5h29q7 -2 14 -2t15 -1q7 -5 18 -6q33 -10 56 -47q47 -78 -3 -173l-24 -39l-13 -20q-12 -28 -37 -64l-27 -40q-21 -35 -50.5 -88t-67.5 -125l-119 -211l-75 -119q45 -3 102 -3
q39 -1 86 -1t104 2t86.5 3t34.5 1q46 0 77 -34q33 -33 33 -79q0 -47 -34 -78t-79 -31q-4 0 -34 -1.5t-87 -3.5q-54 -2 -101 -2.5t-89 0.5q-125 2 -194 12q-54 6 -85 19q-76 28 -95 92q-10 31 -3 62l5 16l9 17q2 6 6.5 13.5t9.5 16.5l45 75l33 51l33 54l20 32q21 35 50 87.5
t67 124.5l119 212q5 7 13.5 19.5t21.5 31.5q-28 -1 -43.5 -1h-19.5q-49 -3 -80 -4.5t-45 -3.5l-59 -9l-78 -9q-44 -8 -81 21q-36 28 -44 74q-6 45 22 82t76 43z" />
    <glyph glyph-name="backslash" unicode="\" horiz-adv-x="630" 
d="M252 1073q47 -164 162 -452q66 -161 109.5 -278t66.5 -192q7 -23 5 -45.5t-12.5 -42t-27.5 -34.5t-40 -22q-47 -14 -88 7q-42 23 -55 68q-23 70 -65 182.5t-105 269.5q-121 303 -171 476q-13 45 10 88q22 42 69 54q45 13 87 -10q41 -22 55 -69z" />
    <glyph glyph-name="asciicircum" unicode="^" horiz-adv-x="766" 
d="M164 746q18 45 33 80t26 60l27 54q4 7 8 13t8 11l16 20q28 26 69 31q60 4 112 -45q19 -20 45 -54q31 -45 83 -133l72 -126q22 -40 35 -63t17 -30q13 -20 17 -42t-1 -43.5t-17.5 -40t-32.5 -30.5q-39 -24 -85 -15q-46 10 -70 49l-56 98l-74 129l-12 21l-12 -29l-87 -217
q-17 -44 -60 -63q-42 -19 -86 -1q-42 17 -62 60q-19 42 -2 86z" />
    <glyph glyph-name="underscore" unicode="_" horiz-adv-x="1707" 
 />
    <glyph glyph-name="less" unicode="&#x3c;" horiz-adv-x="1707" 
d="M190 828q22 25 51 41l672 350q58 30 120 10q63 -20 91 -77q30 -58 10 -121q-20 -62 -76 -90l-528 -276l108 -63q137 -79 223 -130t123 -74q55 -36 68 -100q13 -63 -21 -118q-35 -56 -98 -69q-64 -13 -118 20q-23 15 -105.5 64t-228.5 134q-109 64 -195.5 117.5
t-151.5 98.5q-52 37 -64 101t25 119q36 48 95 63z" />
    <glyph glyph-name="greater" unicode="&#x3e;" horiz-adv-x="1707" 
d="M1004 542q-60 -27 -118.5 -55.5t-117.5 -59.5l-279 -160l-229 -131q-54 -32 -116 -15q-60 16 -91 73q-30 56 -14 116q16 61 74 91l503 287q-413 190 -486 228q-58 27 -77 87q-19 59 10 116q28 55 88 75q58 19 116 -11q59 -29 146.5 -69.5t205.5 -93.5q236 -104 349 -161
q36 -20 59 -53q34 -22 52 -61q27 -59 4 -118q-22 -58 -79 -85z" />
    <glyph glyph-name="question" unicode="?" horiz-adv-x="1707" 
d="M143 1324q33 31 68.5 63t66.5 54q43 25 94 45t111 34q120 30 231 18q153 -14 246 -95q119 -106 115 -283q-1 -36 -7.5 -69.5t-17.5 -65.5q-23 -61 -51.5 -101.5t-74.5 -75.5q-23 -17 -42 -30.5t-35 -22.5l-78 -44q-5 -2 -11.5 -4.5t-13.5 -6.5q-51 -23 -84.5 -40.5
t-52.5 -30.5q-36 -24 -51 -61q-2 -6 -4 -16.5t-3 -26.5q-5 -48 -8 -73.5t-3 -28.5q-9 -62 -60 -100q-50 -37 -115 -28q-63 11 -102 61q-38 52 -27 114q2 17 4 40.5t2 41.5q8 80 31 136q17 40 40 75t55 61l56 49q22 21 61 44l55 30q10 5 24 11.5t32 13.5q18 8 28.5 13t14.5 7
q78 38 101 64q25 28 28 75q1 31 -11 37q-16 18 -66 23q-32 2 -66.5 -0.5t-70.5 -10.5q-73 -17 -108 -40q-9 -7 -16.5 -13.5t-15.5 -13.5t-17 -16l-21 -21q-12 -13 -26 -26.5t-30 -28.5q-44 -43 -109 -41q-63 2 -107 50t-42 111q1 62 51 109zM529 244q47 -45 47 -109
q0 -63 -46 -109q-45 -45 -109 -45t-110 45q-46 46 -46 109q0 64 46 109q46 46 110 46q65 0 108 -46z" />
    <glyph glyph-name="asciitilde" unicode="~" horiz-adv-x="1707" 
d="M94 630l33 27q67 53 128 68q45 9 90 9t80 -5t74 -18q20 -7 35.5 -13t26.5 -11t24 -11.5l29 -14.5q32 -16 52.5 -25.5t30.5 -14.5t22.5 -9.5t26.5 -9.5q28 -9 50 -9q9 0 17 1t17 3t20 5.5t27 8.5t35 9.5t42 9.5q67 14 119 -22q55 -35 68 -99q14 -65 -22 -118
q-34 -54 -97 -69q-1 0 -31 -8l-59 -16q-15 -4 -32 -7t-37 -7q-29 -5 -52.5 -5.5t-44.5 1t-42 5t-43 8.5l-46 14q-24 6 -50 18l-41 20l-38 18q-26 14 -31 15q-100 49 -140 42q-4 -2 -7.5 -4.5t-7.5 -5.5l-26 -23q-27 -21 -45 -33q-55 -37 -120 -25q-65 14 -100 68
q-35 57 -22 120q14 65 68 100z" />
    <glyph glyph-name="bar" unicode="|" horiz-adv-x="367" 
d="M277 1094q0 -89 -3 -266t-3 -266q0 -88 6 -265l10 -174q9 -155 9 -236q0 -23 -9 -43t-24 -35t-35 -24t-43 -9t-43.5 9t-35.5 24t-24 35t-9 43q0 42 -2 98.5t-6 130.5l-11 170q-6 120 -6 254t3 299q3 166 3 255q0 23 9 43t24 35t35 24t43 9t43.5 -9t35.5 -24t24 -35t9 -43
z" />
    <glyph glyph-name="z" unicode="z" horiz-adv-x="865" 
d="M687 655q-45 -53 -97.5 -123t-113.5 -160l-90 -135q46 2 124.5 8.5t190.5 16.5q24 1 46 -6t39 -21.5t27.5 -34.5t12.5 -44q4 -47 -27 -84q-31 -36 -77 -40q-174 -16 -317.5 -24t-258.5 -8q-47 0 -81 34t-34 82q0 65 57 98l197 287l89 128q-57 0 -117 1t-126 3
q-50 1 -81 36q-32 36 -31 83q1 48 37 80q35 33 82 31q250 -8 441 0q61 1 98 -47q35 -32 38 -79q4 -45 -28 -82z" />
    <glyph glyph-name="y" unicode="y" horiz-adv-x="719" 
d="M678 703q-11 -57 -23 -106.5t-24 -93.5q-14 -46 -31 -94t-38 -100q-20 -52 -43 -99t-48 -90t-55.5 -85t-67.5 -85q-35 -42 -75 -79.5t-85 -72.5q-32 -24 -73 -18q-40 4 -66 38q-12 16 -17 35.5t-2 38.5t12.5 36t26.5 29q96 73 172 174q-23 60 -108 240q-86 184 -123 294
q-6 19 -4.5 39t9.5 37t22.5 30.5t34.5 19.5q19 6 39 4.5t37 -10t30.5 -23t19.5 -33.5q35 -101 115 -274l52 -108q33 78 63 176.5t56 221.5q4 20 15.5 36t27.5 26.5t35 14t39 -0.5q42 -9 64 -42.5t13 -75.5z" />
    <glyph glyph-name="x" unicode="x" horiz-adv-x="771" 
d="M223 436q-50 65 -92 123t-77 110q-28 37 -19 85q11 49 48 74q39 27 86 18q47 -10 73 -48q53 -80 122 -170l158 206q15 18 35.5 29t42.5 13t44 -4t40 -21q38 -29 43 -76q5 -48 -25 -85l-193 -251l202 -262q29 -39 22 -85q-6 -47 -44 -76t-86 -21q-46 6 -75 44l-160 208
l-139 -192q-29 -38 -75 -45q-47 -8 -85 21q-19 14 -30.5 33t-15 40.5t1 43.5t18.5 42l180 246v0z" />
    <glyph glyph-name="w" unicode="w" horiz-adv-x="1100" 
d="M266 25q-35 16 -51 54q-117 276 -186 628q-9 45 17 83q25 39 71 48q45 10 85 -16q39 -26 48 -72q30 -162 80 -325q44 128 73 214t43 134q14 44 54 65q39 22 87 8q39 -10 61 -44.5t15 -76.5q40 -143 84 -274q34 102 59.5 183.5t43.5 144.5q11 44 52 67q42 23 86 10t67 -54
q23 -42 10 -84q-17 -60 -43.5 -145t-63.5 -197l-91 -277l-3 -14l-3 -6q-7 -22 -21.5 -38.5t-33 -26.5t-41 -12.5t-44.5 3.5q-35 11 -57 39.5t-23 64.5q-26 57 -51.5 117t-48.5 126q-59 -173 -90 -279q-7 -23 -21.5 -39.5t-33 -26.5t-40.5 -12.5t-44 3.5q-27 8 -46 27z" />
    <glyph glyph-name="v" unicode="v" horiz-adv-x="832" 
d="M792 674q-53 -117 -156 -327l-138 -283q-19 -42 -64 -58q-43 -16 -86 4q-48 22 -61 72q-149 246 -274 598q-14 45 5 86q19 42 65 57q22 7 45 6t42.5 -10.5t35 -26t23.5 -39.5q36 -105 76.5 -202.5t86.5 -188.5q71 145 119 245.5t74 159.5q20 43 63 59q42 18 86 -2
q21 -10 36.5 -26.5t24 -36.5t8 -42.5t-10.5 -44.5z" />
    <glyph glyph-name="u" unicode="u" horiz-adv-x="841" 
d="M775 698q0 -27 3 -112q2 -43 3 -76t1 -57q1 -44 -0.5 -80t-4.5 -65q-7 -87 -35 -138q-42 -75 -111.5 -129t-151.5 -76q-57 -14 -115 -13.5t-118 25.5q-61 27 -108 77q-57 60 -73 177q-5 39 -6 86t1 102q1 36 4.5 80t8.5 98t8 83t3 35q3 46 37 77t81 28t77 -38
q31 -35 27 -81l-12 -126q-9 -99 -12 -165q-2 -46 -0.5 -83t5.5 -66q6 -40 12 -50l2 -4q44 -47 119 -28q40 11 73.5 38t52.5 60q7 10 11 53q3 45 3 119q-1 26 -2 60t-3 77q-3 85 -3 112q0 47 33 79q33 33 79 33t78 -33q33 -32 33 -79z" />
    <glyph glyph-name="t" unicode="t" horiz-adv-x="634" 
d="M105 613q-44 -2 -76 29q-32 30 -33 73q-2 45 28 76q30 33 74 35q20 1 35 1h26q3 73 3 103q0 22 8 41.5t22.5 33.5t33.5 22.5t42 8.5q22 0 41.5 -8.5t33.5 -22.5t22 -33.5t8 -41.5q0 -15 -0.5 -40.5t-1.5 -60.5q26 0 49.5 -0.5t46.5 -1.5q34 0 58.5 -21.5t34.5 -51t4 -61
t-33 -52.5q-33 -29 -77 -27q-22 2 -45 3t-47 2q0 -28 -0.5 -52.5t-1.5 -46.5q-3 -140 3 -222q2 -23 5 -40.5t5 -31.5q0 -7 4 -14q8 -8 31 -11q8 -2 19 -3t25 -2q2 0 7.5 -0.5l16.5 -1.5t18 -1.5t12 -0.5q22 -3 41 -13.5t32 -26.5t19.5 -36t3.5 -42t-13 -40.5t-25.5 -31
t-35.5 -19t-42 -4.5q-5 1 -12.5 2t-15.5 1.5t-14.5 0.5h-9.5q-20 2 -37.5 4.5t-31.5 5.5q-105 21 -160 92q-26 35 -39 95q-9 43 -15 102q-3 46 -4 105.5t0 134.5q0 22 0.5 45t1.5 48z" />
    <glyph glyph-name="s" unicode="s" horiz-adv-x="818" 
d="M534 650q-11 11 -17 14q-63 26 -122 16q-38 -8 -47 -34q-1 0 -4 -14q16 -14 90 -40l30 -10l38 -11l40 -16q14 -5 25 -11t19 -11q16 -10 41.5 -24t41.5 -31q26 -24 53 -59.5t36 -79.5q36 -122 -25 -213q-52 -77 -154 -110q-79 -24 -170 -17q-93 6 -159 43q-35 16 -62.5 37
t-48.5 46l-33 41l-30 49l-22 41q-24 37 -15 81q11 44 48 68q19 12 40.5 15.5t42 -1.5t38.5 -17.5t30 -31.5l29 -47l21 -34q5 -7 15 -20t20 -19l28 -17q28 -14 74 -17.5t89 9.5q29 7 37 20q6 4 -2 34q-9 33 -47 53q-38 19 -138 54q-118 41 -166 86q-100 89 -59 234
q12 41 34 73t51 55.5t63.5 38.5t72.5 21q122 21 244 -31q38 -17 77 -54q1 -1 6 -5t10.5 -9.5t11.5 -11t10 -9.5q18 -14 28 -33t12.5 -39.5t-3.5 -41.5t-21 -39q-29 -36 -73 -40q-44 -5 -79 24z" />
    <glyph glyph-name="r" unicode="r" horiz-adv-x="752" 
d="M438 658q-7 -3 -15 -8t-18 -12q-17 -13 -45.5 -36t-67.5 -58q-6 -6 -13 -9q4 -157 5.5 -261.5t1.5 -158.5q0 -46 -34 -80q-35 -33 -81 -33t-79 33q-33 34 -33 80q0 57 -1.5 137t-3.5 184t-3 174t-2 107q0 47 32 82q33 35 80 35q48 0 83 -35l29 22q84 60 157 68
q54 3 100 -17.5t79 -63.5q33 -42 54.5 -86t40.5 -101q14 -44 -7 -86q-19 -42 -65 -57q-44 -15 -86 6q-40 21 -57 65q-29 84 -51 109z" />
    <glyph glyph-name="q" unicode="q" horiz-adv-x="832" 
d="M768 741q-17 -312 15 -854q3 -42 -25 -73q-28 -33 -68 -34q-42 -2 -72 26q-31 27 -33 68l-12 190q-53 -23 -107 -29t-105.5 2t-98.5 29.5t-87 53.5q-39 32 -70.5 74t-52.5 90t-29.5 101t-1.5 108q12 105 70 179q58 76 138 106q79 30 171 24q93 -5 169 -51q0 32 19 55
t46.5 32.5t57.5 4t50 -30.5q28 -29 26 -71zM519 528q-11 20 -16 24q-52 53 -117 56q-64 4 -113 -35q-47 -40 -56 -106q-4 -36 4 -69.5t25 -62t41.5 -51t53.5 -34.5q39 -18 83 -17.5t86 22.5q4 0 14 13l19 20q9 13 22 25q-3 70 -3 136q-7 7 -12 17z" />
    <glyph glyph-name="p" unicode="p" horiz-adv-x="822" 
d="M234 472q2 -49 4 -99t4 -104q18 6 38 4l50 -6l44 -5h13t18 -1q20 -1 35 2t34 6q55 16 88 61.5t36 105.5q2 58 -27 101t-84 56q-60 17 -110 -9q-25 -13 -57.5 -38.5t-72.5 -63.5zM224 733q151 101 314 61q45 -12 83.5 -33t69.5 -49.5t53 -62.5t36 -70q27 -72 24 -151
q-4 -121 -77 -222q-72 -101 -202 -135q-21 -8 -44.5 -11.5t-46.5 -4.5t-43.5 0t-35.5 2q-8 1 -21.5 2t-30.5 3t-28 3.5t-15 1.5q-3 1 -6 1q4 -82 12 -187q1 -21 -5.5 -40.5t-19 -34.5t-31 -24.5t-39.5 -10.5q-21 -2 -40.5 5t-34.5 19.5t-24.5 31t-11.5 39.5q-36 498 -36 833
q0 21 8 39.5t22.5 33t33 22.5t39.5 8q33 0 60 -19.5t37 -49.5z" />
    <glyph glyph-name="o" unicode="o" horiz-adv-x="931" 
d="M609 583q-26 10 -45.5 19.5t-27.5 12.5q-7 4 -16.5 7.5t-20.5 5.5q-89 10 -150 -30q-63 -41 -85 -111q-11 -35 -10 -68.5t13.5 -63.5t38 -55t64.5 -43q81 -33 142 -12t103 82q41 56 39 128q-2 73 -45 128zM545 864q49 13 92 -14q13 -8 28 -15t26 -14q52 -29 86 -62
q75 -84 104 -188q26 -106 8.5 -201t-72.5 -177q-57 -84 -139.5 -135t-188.5 -62q-105 -11 -219 42q-85 39 -143.5 100t-84.5 130q-25 70 -29.5 146.5t22.5 145.5q46 150 180 240q135 92 314 66q4 0 7.5 -0.5t8.5 -1.5z" />
    <glyph glyph-name="n" unicode="n" horiz-adv-x="855" 
d="M256 773q111 73 209 85q91 12 161 -26t115 -111q62 -110 78 -293q5 -46 7.5 -84.5t3.5 -70.5t1.5 -72t0.5 -89q0 -46 -34 -80q-35 -33 -81 -33t-80 33q-34 34 -34 80q0 190 -12 311t-47 182q-12 20 -22 24t-27 2q-80 -11 -224 -129q-1 -89 1 -180t7 -186q3 -47 -30 -81
q-15 -18 -35.5 -27.5t-42 -11t-43 5.5t-39.5 23q-35 32 -38 79q-7 143 -8 289t4 301q2 48 36 79q36 32 83 31q58 -3 90 -51z" />
    <glyph glyph-name="m" unicode="m" horiz-adv-x="1198" 
d="M905 618q-6 -2 -13.5 -5.5t-17.5 -8.5q-54 -29 -146 -120v-14q2 -55 -0.5 -119t-9.5 -139q-2 -21 -12 -39t-25.5 -30.5t-35.5 -18.5t-41 -4q-21 3 -38.5 13t-30 25t-18.5 34t-4 40q7 67 9.5 124.5t0.5 106.5q-3 65 -14 111q-3 14 -6.5 24t-5.5 11l-2 2q-19 16 -63 -7
q-59 -35 -110 -99q-4 -5 -6.5 -9.5t-4.5 -9.5l-13 -26q-4 -10 -8.5 -21t-9.5 -22q-7 -11 -17 -21l12 -302q1 -21 -6 -40t-20.5 -34t-32 -24t-39.5 -9q-41 -1 -75 29q-30 27 -31 70q-9 254 -30 589q-1 21 6 40t20 34t31.5 24t39.5 10q34 2 62.5 -16.5t39.5 -49.5
q23 20 47 36.5t47 29.5q44 24 88 35q42 12 101 1q58 -11 105 -51q13 -11 24 -25t21 -30q28 22 53 39.5t48 30.5q97 53 176 37q109 -22 157 -148q8 -22 14 -51t9 -50q1 -10 2.5 -22t3 -23.5t2 -20t0.5 -11.5q12 -91 16.5 -188t2.5 -201q-1 -21 -10 -39.5t-23 -32t-33 -21
t-40 -7.5t-39.5 9t-32 23.5t-21 33.5t-6.5 40q2 96 -2 184t-15 170q-2 12 -3.5 27t-3 29t-3 26l-2.5 20q-1 14 -9 34q-2 5 -4.5 9t-4.5 8z" />
    <glyph glyph-name="l" unicode="l" horiz-adv-x="390" 
d="M308 1048q-1 -69 -1 -141.5t1.5 -150.5t4.5 -163t7 -180q7 -188 9 -291q1 -50 -33 -87q-34 -35 -84 -37q-49 -1 -86 33q-36 34 -38 84l-11 295q-4 98 -6 185t-4 165q-3 154 0 294q2 50 38 85t86 33q49 -1 84 -38q35 -36 33 -86z" />
    <glyph glyph-name="k" unicode="k" horiz-adv-x="851" 
d="M293 335q1 -66 1.5 -123.5t0.5 -109.5q0 -24 -9 -45t-24.5 -36.5t-36.5 -24.5t-45 -9t-45 9t-36.5 24.5t-24.5 36.5t-9 45q0 157 -6 471q-2 158 -3.5 276t-1.5 197q0 47 34 81t81 34t81 -34t34 -81q0 -78 1 -184.5t3 -243.5q146 113 250 205q35 32 83 30q47 -1 79 -38
q32 -35 29 -82q-2 -47 -37 -79q-60 -54 -130 -112q49 -67 111.5 -160.5t140.5 -215.5q12 -20 15 -42.5t-1.5 -43.5t-17 -40t-33.5 -31q-41 -26 -88 -15q-46 10 -71 52q-146 231 -237 354z" />
    <glyph glyph-name="j" unicode="j" horiz-adv-x="503" 
d="M173 -29q23 14 41 70q28 86 32 233q3 113 -6 269q-2 23 -4.5 52t-4.5 63t-4 56t-3 32q-2 44 26 74q29 33 72 34q45 3 76 -25.5t34 -73.5q1 -8 3 -29.5t4 -55.5l8 -113q10 -167 6 -291q-4 -177 -42 -290q-56 -173 -189 -209q-51 -14 -111 5q-12 6 -18 8t-10 3t-6.5 1.5
t-6.5 2.5q-21 3 -38 14.5t-28 28.5t-15.5 37.5t0.5 41.5q7 41 43 66q36 24 79 14q19 -2 62 -18zM386 1098q16 -15 24 -34t8 -39t-8 -39.5t-23 -34.5t-34 -22.5t-39 -7.5t-39.5 7.5t-34.5 22.5t-22.5 34.5t-7.5 39.5t7.5 39t22.5 34q31 31 74 31q44 0 72 -31z" />
    <glyph glyph-name="i" unicode="i" horiz-adv-x="362" 
d="M310 766q0 -110 6 -317q3 -103 5 -177t3 -120q0 -53 -36 -90t-88 -37t-89 36q-38 36 -38 89q-1 45 -2.5 119t-5.5 178q-6 208 -6 319q0 51 36 89q37 37 88 37q52 0 89 -37q38 -38 38 -89zM237 1158q38 -35 38 -87t-37 -89q-36 -37 -89 -37q-52 0 -89 37q-36 37 -36 89
t36 88q37 37 89 37q53 0 88 -38z" />
    <glyph glyph-name="h" unicode="h" horiz-adv-x="775" 
d="M238 450q2 -137 3.5 -225t0.5 -131q0 -23 -9 -42.5t-24 -33.5t-35 -22.5t-42 -8.5q-45 0 -76 33q-31 32 -31 76q1 81 -3 276q-2 99 -2.5 186t1.5 165q2 75 8.5 147t17.5 143q6 46 42 71q38 27 81 20q22 -3 40.5 -14t31 -28t17.5 -38t2 -44q-18 -117 -21 -243
q83 36 173 32q159 -8 244 -117q8 -10 14 -20t11 -20q11 -24 18 -46l12 -39q2 -7 4 -16.5t4 -21.5l5 -25q13 -56 16 -119.5t0 -153.5q-1 -45 -1.5 -69t-0.5 -29q0 -23 -9 -42.5t-24 -34.5t-35 -23.5t-42 -8.5q-44 0 -76 32q-31 31 -31 77q0 17 0.5 45t1.5 66q2 38 2 69t-1 54
q-2 48 -12 91q-9 35 -12.5 54.5t-8.5 30.5l-3 9l-4 6q-26 30 -80 33q-64 2 -109 -29q-6 -4 -10.5 -9.5t-10.5 -14t-14.5 -20.5t-22.5 -28z" />
    <glyph glyph-name="g" unicode="g" horiz-adv-x="766" 
d="M511 338q-3 21 -5.5 44t-5 41.5t-4 31t-1.5 14.5q-1 15 -1.5 33t-0.5 38q-9 6 -16.5 13.5t-12.5 9.5l-11 7l-10 8q-64 26 -115 0.5t-76 -94.5q-27 -69 -9 -118.5t69 -67.5q44 -15 74 -7q10 2 20.5 6.5t33.5 14.5l44 20q13 4 27 6zM691 707q-5 -173 0 -223q0 -6 4 -36.5
t9 -78.5q2 -24 4 -46.5t3 -42.5q10 -85 12 -142q3 -86 -9 -120q-28 -82 -90.5 -132t-143.5 -69q-35 -9 -72.5 -11t-74.5 2.5t-72 15t-65 26.5q-15 7 -32 19t-29 24l-24 20q-10 10 -14 12q-16 12 -25.5 29t-11.5 35.5t2.5 37.5t16.5 35q25 32 64.5 37.5t73.5 -20.5
q30 -23 44 -36t25 -20q30 -15 70 -19.5t80 4.5q75 16 93 71l-1 -1v5q1 22 0 47v7q-62 -29 -96 -36q-82 -21 -180 11q-78 26 -129 78t-68 115q-17 64 -13.5 128.5t26.5 121.5q22 56 64 107.5t99 84t128 39.5t152 -26q28 48 84 46q21 0 39 -8.5t31 -22t20 -31t6 -37.5z" />
    <glyph glyph-name="grave" unicode="`" horiz-adv-x="423" 
d="M338 776q15 -18 21.5 -40t4.5 -43.5t-12 -41.5t-28 -35q-35 -31 -82 -26q-48 5 -76 39l-76 90q-15 18 -22 40t-5 43.5t12 41.5t28 35t39.5 22t43 5t41.5 -12.5t35 -28.5z" />
    <glyph glyph-name="a" unicode="a" horiz-adv-x="982" 
d="M596 337q-7 27 -10.5 59.5t-8.5 90.5l-6 93l-3 3l-9 22q-54 60 -114 46q-70 -19 -125 -103q-57 -88 -43 -175q14 -86 112 -135q59 -29 142 23l17 20q45 53 46 55zM804 526q5 -60 8.5 -93.5t5.5 -42.5q7 -24 27 -64q10 -20 30.5 -56.5t52.5 -91.5q23 -41 11 -87
q-10 -46 -53 -70q-42 -23 -88 -11t-68 54l-27 47q-25 -27 -51 -41q-53 -35 -107 -53.5t-124 -16.5q-35 1 -69 8.5t-66 23.5q-51 26 -91 58.5t-69 71.5q-61 81 -74 176q-27 173 75 332q48 73 114.5 127.5t147.5 74.5q94 23 182.5 -5.5t158.5 -113.5q30 -31 51 -86l3 -7
q7 -13 8 -26q2 -6 4 -10.5t4 -7.5q21 -44 4 -90z" />
    <glyph glyph-name="b" unicode="b" horiz-adv-x="916" 
d="M278 539q3 -94 5 -161t3 -109q5 0 11 -0.5t11 -1.5l57 -11l47 -9l31 -3q21 -1 36.5 3t39.5 12q100 28 126 94q21 59 -12 131q-39 79 -119 114q-80 36 -170 -1q-4 -2 -15 -13l-22 -21zM270 35q-36 -52 -98 -54q-48 0 -84 33q-36 34 -36 84q-1 66 -3.5 180.5t-7.5 280.5
q-9 331 -9 511q0 49 34 83q35 35 84 35t84 -35t35 -83q0 -57 0.5 -118.5t1.5 -130.5q131 50 244 23q113 -25 199 -94q84 -68 131 -163q80 -166 19 -320q-33 -85 -104 -145t-174 -90q-35 -11 -68 -16.5t-56 -7.5q-11 -1 -24.5 -0.5t-28.5 2.5l-46 6q-15 1 -48 9z" />
    <glyph glyph-name="c" unicode="c" horiz-adv-x="945" 
d="M607 613l-21 22l-14 13q-11 4 -35 5t-59 0q-111 -3 -164 -65q-53 -63 -46 -148q8 -92 77 -153q70 -61 196 -57q16 0 29.5 4t32.5 14l32 16l43 27q15 10 27 17t21 12q43 28 93 15q49 -12 76 -56q28 -44 15 -93q-12 -50 -55 -75l-38 -26q-17 -11 -31 -20t-25 -15l-58 -29
q-37 -17 -74.5 -26.5t-74.5 -10.5q-118 -5 -216.5 28.5t-164.5 96.5t-104.5 142t-46.5 167q-7 90 19 172.5t80 151.5t145 112.5t206 46.5q124 3 190 -25q46 -16 91 -60l26 -23l15 -16q40 -30 46 -82q6 -50 -26 -91q-32 -39 -83 -45t-91 27z" />
    <glyph glyph-name="d" unicode="d" horiz-adv-x="912" 
d="M877 1065q0 -32 -3 -186l-3 -211v-175q1 -60 2 -112t3 -98q1 -89 9 -186q1 -49 -30 -86q-32 -37 -80 -38q-36 -2 -67 17t-47 51q-177 -102 -355 -42q-52 18 -94.5 46t-74.5 63.5t-54.5 76.5t-34.5 85q-18 60 -17.5 119t10.5 116q14 75 50.5 140t91.5 117q57 54 138 78
t177 11q91 -15 143 -40q0 20 0.5 52t1.5 75q1 44 1.5 76t0.5 54q0 48 34 81q34 34 83 34q48 0 81 -35q34 -34 34 -83zM607 511q-5 7 -11.5 16t-13.5 22l-17 27l-16 20q-22 14 -87 23q-36 6 -67.5 -2.5t-57 -29t-43 -53t-25.5 -74.5q-18 -87 13 -152q31 -66 97 -88
q99 -32 196 43q8 4 14 11t13 16.5t16 23t23 30.5q-1 33 -1 67.5v70.5q-19 10 -33 29z" />
    <glyph glyph-name="e" unicode="e" horiz-adv-x="921" 
d="M646 257q4 4 9 17l28 56q21 40 65 51q44 12 84 -10q40 -21 52 -65t-10 -83q-6 -10 -12.5 -25t-8.5 -18q-11 -23 -23.5 -42.5t-26.5 -34.5q-86 -84 -196 -112q-113 -32 -224 -9q-116 25 -207 104q-90 81 -118 204q-6 28 -7 60.5t-1 54.5q0 7 1 16t2 17.5t2 15t1 8.5
q10 174 94 293q19 26 40 47.5t46 38.5q51 32 117.5 43t144.5 -17q55 -19 111 -70q54 -48 89 -109q42 -79 31 -157q-15 -99 -108 -154q-8 -5 -18 -8.5t-15 -3.5l-5 -2q-3 0 -9 -2h-18q-5 -1 -12 -1h-17h-212q-25 0 -45 10q0 -9 0.5 -16.5t1.5 -14.5q12 -57 53 -93t101 -48
q63 -12 122 4t98 55zM504 584q-7 13 -17.5 26t-21.5 23t-21.5 17t-17.5 9q-38 12 -58.5 5t-38.5 -35q-15 -21 -26 -51h204z" />
    <glyph glyph-name="f" unicode="f" horiz-adv-x="804" 
d="M602 893q-8 4 -18.5 9t-22.5 12q-1 2 -10 7.5t-14 8.5q-3 2 -9 4q-30 0 -48 -10.5t-30 -36.5q-7 -12 -13.5 -27.5t-11.5 -34.5q28 0 69 -3q48 -2 81 -36q34 -34 32 -82q-2 -47 -36 -81q-35 -33 -82 -32q-24 1 -44 1.5t-37 0.5q2 -94 18 -221l4.5 -40.5t6.5 -50.5
q4 -27 6.5 -49.5t4.5 -41.5q4 -35 6 -59q3 -47 -29 -85q-32 -36 -79 -39q-49 -2 -84 29q-36 31 -39 80q-1 23 -5 56.5t-10 85.5l-11 87q-9 76 -14 141t-6 122l-37 3q-24 3 -43.5 15t-33.5 29t-21 39t-4 46t14.5 44t28.5 34t39 21t46 4l27 -4q16 90 51 158q45 82 120 127.5
t178 41.5q55 -3 113 -38l45 -27q22 -11 37.5 -28t23 -37.5t6 -43.5t-11.5 -45q-11 -22 -27.5 -37t-37 -22.5t-43.5 -6.5t-45 12z" />
    <glyph glyph-name="quotedbl" unicode="&#x22;" horiz-adv-x="625" 
d="M253 818v-30t-0.5 -27.5t-1 -21t-0.5 -10.5q0 -4 1 -19.5t1 -21.5l5 -31q2 -14 3.5 -29t3.5 -31q5 -45 -22 -80q-28 -36 -71 -40q-45 -5 -79 21.5t-41 71.5q-15 124 -15 126v32t1 94q0 42 32 74q34 32 76 32q43 0 75 -33q32 -34 32 -77zM568 841q2 -36 3 -65.5t1 -41.5
v-21q0 -4 6 -29l15 -83q9 -44 -17 -82t-69 -45q-44 -8 -81 18q-36 25 -44 69l-15 83q-4 15 -5.5 27t-2.5 21t-2 23t-2 49v21t-1 48q-3 34 15.5 60.5t47.5 39.5t61.5 10t56.5 -27q31 -30 33 -75z" />
    <glyph glyph-name="numbersign" unicode="#" horiz-adv-x="907" 
d="M528 579l-119 9l-17 -96l-10 -54l116 -3zM344 230q-8 -41 -16 -77t-15 -68q-5 -22 -17.5 -39t-29.5 -27.5t-38 -14t-42 1.5q-43 11 -65 47q-22 37 -12 79l23 108l-26 2q-22 1 -41 10t-32.5 24t-20.5 34.5t-5 41.5q3 45 34 72.5t76 24.5l54 -2l16 83l12 68l-70 2
q-44 2 -74 35q-29 33 -28 74q1 43 34 72q32 30 75 29q30 -1 57 -1.5t51 -2.5l41 138q14 41 52 60q39 19 81 5q41 -14 60 -52q20 -39 6 -80l-26 -82l114 -9q23 100 48 188q10 41 48 64q37 22 80 10q41 -10 64 -49q23 -38 9 -79l-39 -155q29 -13 45 -40.5t15 -59.5
q-2 -43 -33 -71t-71 -28l-29 -140l53 -3q45 -2 73 -33q29 -32 26 -76q-1 -21 -10 -39.5t-24 -32t-34.5 -21t-40.5 -7.5l-82 5l-23 -141q-7 -41 -44 -67q-36 -26 -78 -18q-21 3 -38.5 14.5t-29 28t-16.5 37t-1 41.5l19 112z" />
    <glyph glyph-name="dollar" unicode="$" horiz-adv-x="945" 
d="M360 696q0 11 0.5 25.5t1.5 31.5l-28 -20q-8 -8 -17.5 -18.5t-20.5 -24.5q7 0 14.5 0.5t15.5 1.5zM583 475q7 -86 10.5 -130.5t3.5 -49.5q2 -19 2.5 -42t1.5 -49q36 13 58 49q17 29 22 75q4 46 -9 74q-27 63 -71 83q-9 4 -20 6zM571 1014q38 -2 79.5 -7t86.5 -15
q42 -11 66 -48q24 -38 14 -81q-9 -42 -47 -66q-38 -23 -80 -14q-63 15 -116 18v-10.5t-1 -27.5v-55q63 -4 117 -29q118 -52 177 -190q34 -85 27 -179q-7 -92 -52 -167q-76 -130 -231 -154l3 -47q4 -44 -24 -78q-27 -34 -71 -39q-22 -3 -42.5 3.5t-36 20t-26 32t-13.5 39.5
q-1 19 -2 38.5t-3 40.5q-131 30 -274 104q-39 20 -52 62t7 82q19 38 62 52q43 13 83 -6q43 -23 84 -40.5t81 -29.5l-3 59q-2 27 -15 174l-1 24l-21 -3q-121 -9 -188 40q-34 25 -53.5 55.5t-27.5 62t-4.5 63.5t15.5 61q30 71 107 137q74 62 164 92l-3 34q-2 22 5 42
t20.5 35.5t32 25t40.5 11.5t42.5 -5t36 -20t25 -32t11.5 -41v-12t1 -12z" />
    <glyph glyph-name="ampersand" unicode="&#x26;" horiz-adv-x="978" 
d="M567 229q-80 95 -136 190l-30 -26q-60 -54 -79.5 -93.5t-9.5 -76.5q11 -30 72 -37q38 -4 78.5 2t67.5 19q18 8 37 22zM911 166q15 -15 23 -33.5t9 -38t-6 -39t-22 -35.5q-14 -15 -32.5 -23t-39 -9t-40 6t-34.5 22l-63 61q-44 -37 -91 -58q-26 -12 -56.5 -20.5
t-63.5 -13.5t-67.5 -6t-67.5 3q-51 7 -95 23.5t-87 56.5q-42 39 -61 100q-63 194 147 385q32 29 80 65q-7 20 -12.5 40t-10.5 40q0 1 -3 18l-6 23q-3 9 -5 28t-2 33t1.5 32.5t5.5 35.5q12 48 44.5 88t77.5 62q48 24 105 19.5t106 -40.5q129 -91 105 -220q-14 -73 -93 -164
q-11 -14 -26.5 -28.5t-34.5 -31.5q39 -70 99 -148l13 31q16 37 56 54q38 16 78 -2q19 -9 33.5 -23.5t22 -32.5t7 -38.5t-9.5 -41.5q-44 -102 -51 -114zM522 827q-7 -4 -12 -16q0 -13 7 -51q24 28 29 45q-2 4 -7 9t-13 11z" />
    <glyph glyph-name="quotesingle" unicode="'" horiz-adv-x="305" 
d="M270 663q0 -46 -33 -79q-34 -32 -80 -32q-23 0 -43 9t-35 24t-24 35t-9 43v114q0 23 9 43.5t24 35.5t35 24t43 9q47 0 80 -33t33 -79v-114z" />
  </font>
</defs>
</svg>
