<?xml version="1.0" encoding="iso-8859-1"?>
<!-- Generator: Adobe Illustrator 19.0.0, SVG Export Plug-In . SVG Version: 6.00 Build 0)  -->
<svg fill="#6c6789" version="1.1" id="Layer_1" xmlns="http://www.w3.org/2000/svg" xmlns:xlink="http://www.w3.org/1999/xlink" x="0px" y="0px"
	 viewBox="0 0 512 512" style="enable-background:new 0 0 512 512;" xml:space="preserve">
<g>
	<g>
		<path d="M505.936,478.345L356.827,27.103c-5.021-15.195-21.49-27.098-37.494-27.098C319.108,0.004,192.667,0,192.667,0
			c-16.004,0-32.473,11.904-37.494,27.098L6.064,478.345c-2.791,8.447-1.709,17.003,2.968,23.474
			C13.707,508.289,21.491,512,30.387,512h97.292c33.373,0,62.829-21.29,73.296-52.977l55.023-166.515l55.023,166.517
			C321.487,490.71,350.942,512,384.317,512h97.297c8.895,0,16.68-3.711,21.356-10.181
			C507.646,495.347,508.727,486.792,505.936,478.345z M181.134,452.466c-7.635,23.11-29.116,38.636-53.455,38.636H30.387
			c-2.108,0-3.719-0.556-4.419-1.526s-0.723-2.673-0.062-4.675L175.015,33.655c2.206-6.677,10.619-12.757,17.651-12.757H317.21
			c2.108,0,3.719,0.556,4.419,1.526c0.7,0.97,0.723,2.674,0.062,4.675L181.134,452.466z M486.032,489.576
			c-0.7,0.969-2.311,1.526-4.419,1.526h-97.297c-24.339,0-45.819-15.524-53.45-38.633l-63.862-193.265L339.26,40.54l146.835,444.362
			C486.755,486.904,486.732,488.607,486.032,489.576z"/>
	</g>
</g>
<g>
	<g>
		<path d="M156.572,197.331c-5.482-1.809-11.389,1.164-13.2,6.642L109.69,305.898c-1.811,5.479,1.164,11.389,6.642,13.2
			c1.089,0.359,2.193,0.531,3.28,0.531c4.384,0,8.469-2.783,9.92-7.173l33.681-101.925
			C165.026,205.052,162.051,199.142,156.572,197.331z"/>
	</g>
</g>
<g>
	<g>
		<path d="M169.341,158.684c-5.479-1.81-11.389,1.164-13.2,6.642l-1.553,4.699c-1.811,5.479,1.164,11.389,6.642,13.2
			c1.089,0.359,2.193,0.531,3.28,0.531c4.385,0,8.469-2.783,9.92-7.173l1.553-4.699
			C177.796,166.404,174.821,160.495,169.341,158.684z"/>
	</g>
</g>
<g>
</g>
<g>
</g>
<g>
</g>
<g>
</g>
<g>
</g>
<g>
</g>
<g>
</g>
<g>
</g>
<g>
</g>
<g>
</g>
<g>
</g>
<g>
</g>
<g>
</g>
<g>
</g>
<g>
</g>
</svg>
