<?xml version="1.0" encoding="iso-8859-1"?>
<svg viewBox="-8 0 480 480" fill="#af7575" xmlns="http://www.w3.org/2000/svg"><path d="m40 448h352c22.082031-.027344 39.972656-17.917969 40-40v-288c-.027344-22.082031-17.917969-39.972656-40-40h-8v16h8c13.253906 0 24 10.746094 24 24v288c0 13.253906-10.746094 24-24 24h-352c-13.253906 0-24-10.746094-24-24v-288c0-13.253906 10.746094-24 24-24h232v-16h-232c-22.082031.027344-39.9726562 17.917969-40 40v288c.0273438 22.082031 17.917969 39.972656 40 40zm0 0"/><path d="m32 112h16v16h-16zm0 0"/><path d="m64 112h16v16h-16zm0 0"/><path d="m96 112h16v16h-16zm0 0"/><path d="m384 144h16v16h-16zm0 0"/><path d="m32 144h240v16h-240zm0 0"/><path d="m40 184c-4.417969 0-8 3.582031-8 8v96c0 4.417969 3.582031 8 8 8h112c4.417969 0 8-3.582031 8-8v-96c0-4.417969-3.582031-8-8-8zm104 96h-96v-80h96zm0 0"/><path d="m184 184h56v16h-56zm0 0"/><path d="m256 184h16v16h-16zm0 0"/><path d="m184 224h32v16h-32zm0 0"/><path d="m232 224h40v16h-40zm0 0"/><path d="m184 264h88v16h-88zm0 0"/><path d="m184 304h88v16h-88zm0 0"/><path d="m184 384h104v16h-104zm0 0"/><path d="m184 344h48v16h-48zm0 0"/><path d="m248 344h24v16h-24zm0 0"/><path d="m384 184h16v16h-16zm0 0"/><path d="m384 224h16v16h-16zm0 0"/><path d="m384 264h16v16h-16zm0 0"/><path d="m384 304h16v16h-16zm0 0"/><path d="m384 344h16v16h-16zm0 0"/><path d="m48 464v16h352c35.328125-.039062 63.960938-28.671875 64-64v-288h-16v288c-.027344 26.5-21.5 47.972656-48 48zm0 0"/><path d="m328 0c-22.082031.0273438-39.972656 17.917969-40 40v312c-.003906 1.402344.359375 2.78125 1.054688 4l32 56c1.425781 2.492188 4.074218 4.027344 6.945312 4.027344s5.519531-1.535156 6.945312-4.027344l32-56c.695313-1.21875 1.058594-2.597656 1.054688-4v-312c-.027344-22.082031-17.917969-39.9726562-40-40zm0 16c13.253906 0 24 10.746094 24 24v8h-48v-8c0-13.253906 10.746094-24 24-24zm8 328v-248h16v248zm-32 0v-248h16v248zm0-264v-16h48v16zm24 311.871094-18.214844-31.871094h36.429688zm0 0"/></svg>